<svg width="559" height="661" viewBox="0 0 559 661" fill="none" xmlns="http://www.w3.org/2000/svg">
<path d="M131.508 646V641.84H145.628V646H131.508ZM131.508 622.16V618H145.628V622.16H131.508ZM131.508 633.04V628.96H144.828V633.04H131.508ZM128.588 618H133.228V646H128.588V618ZM154.799 638.8L155.679 634.8H168.679L169.599 638.8H154.799ZM162.119 625.92L157.719 636.2L157.639 637.24L153.759 646H148.439L162.119 616.44L175.799 646H170.479L166.679 637.48L166.559 636.32L162.119 625.92ZM181.245 632C181.245 633.92 181.645 635.64 182.445 637.16C183.272 638.653 184.405 639.827 185.845 640.68C187.285 641.533 188.925 641.96 190.765 641.96C192.632 641.96 194.272 641.533 195.685 640.68C197.125 639.827 198.245 638.653 199.045 637.16C199.872 635.64 200.285 633.92 200.285 632C200.285 630.08 199.885 628.373 199.085 626.88C198.285 625.36 197.165 624.173 195.725 623.32C194.312 622.467 192.659 622.04 190.765 622.04C188.925 622.04 187.285 622.467 185.845 623.32C184.405 624.173 183.272 625.36 182.445 626.88C181.645 628.373 181.245 630.08 181.245 632ZM176.245 632C176.245 629.893 176.605 627.96 177.325 626.2C178.045 624.44 179.059 622.92 180.365 621.64C181.699 620.333 183.245 619.32 185.005 618.6C186.792 617.88 188.712 617.52 190.765 617.52C192.872 617.52 194.805 617.88 196.565 618.6C198.325 619.32 199.859 620.333 201.165 621.64C202.499 622.92 203.525 624.44 204.245 626.2C204.965 627.96 205.325 629.893 205.325 632C205.325 634.08 204.965 636.013 204.245 637.8C203.525 639.587 202.512 641.133 201.205 642.44C199.899 643.747 198.352 644.773 196.565 645.52C194.805 646.24 192.872 646.6 190.765 646.6C188.685 646.6 186.752 646.24 184.965 645.52C183.179 644.773 181.632 643.747 180.325 642.44C179.045 641.133 178.045 639.587 177.325 637.8C176.605 636.013 176.245 634.08 176.245 632ZM213.316 632C213.316 634 213.742 635.76 214.596 637.28C215.449 638.8 216.609 640 218.076 640.88C219.569 641.733 221.236 642.16 223.076 642.16C224.942 642.16 226.596 641.747 228.036 640.92C229.476 640.067 230.609 638.893 231.436 637.4C232.262 635.907 232.676 634.2 232.676 632.28C232.676 630.36 232.262 628.627 231.436 627.08C230.609 625.533 229.462 624.307 227.996 623.4C226.556 622.493 224.849 622.04 222.876 622.04C221.036 622.04 219.396 622.467 217.956 623.32C216.516 624.173 215.382 625.36 214.556 626.88C213.729 628.373 213.316 630.08 213.316 632ZM208.316 632C208.316 629.893 208.676 627.96 209.396 626.2C210.142 624.44 211.169 622.92 212.476 621.64C213.809 620.333 215.356 619.32 217.116 618.6C218.902 617.88 220.822 617.52 222.876 617.52C224.982 617.52 226.916 617.88 228.676 618.6C230.436 619.32 231.969 620.333 233.276 621.64C234.582 622.92 235.596 624.44 236.316 626.2C237.036 627.96 237.396 629.893 237.396 632C237.396 634.08 237.036 636.013 236.316 637.8C235.596 639.587 234.582 641.133 233.276 642.44C231.996 643.747 230.476 644.773 228.716 645.52C226.956 646.24 225.009 646.6 222.876 646.6C220.796 646.6 218.862 646.24 217.076 645.52C215.289 644.773 213.742 643.747 212.436 642.44C211.129 641.133 210.116 639.587 209.396 637.8C208.676 636.013 208.316 634.08 208.316 632ZM221.596 634H227.036L239.636 646.2H234.076L221.596 634ZM242.489 618H247.209V636.6C247.209 638.333 247.663 639.733 248.569 640.8C249.503 641.84 250.876 642.36 252.689 642.36C254.476 642.36 255.836 641.84 256.769 640.8C257.703 639.733 258.169 638.333 258.169 636.6V618H262.889V636.8C262.889 638.347 262.636 639.733 262.129 640.96C261.649 642.16 260.956 643.187 260.049 644.04C259.143 644.893 258.063 645.547 256.809 646C255.556 646.453 254.183 646.68 252.689 646.68C251.196 646.68 249.823 646.453 248.569 646C247.316 645.547 246.223 644.893 245.289 644.04C244.383 643.187 243.689 642.16 243.209 640.96C242.729 639.733 242.489 638.347 242.489 636.8V618ZM272.299 638.8L273.179 634.8H286.179L287.099 638.8H272.299ZM279.619 625.92L275.219 636.2L275.139 637.24L271.259 646H265.939L279.619 616.44L293.299 646H287.979L284.179 637.48L284.059 636.32L279.619 625.92ZM296.556 618H301.356V646H296.556V618ZM305.596 646H299.476V641.56H305.476C306.863 641.56 308.143 641.36 309.316 640.96C310.49 640.56 311.503 639.96 312.356 639.16C313.236 638.36 313.916 637.36 314.396 636.16C314.903 634.96 315.156 633.573 315.156 632C315.156 630.427 314.903 629.04 314.396 627.84C313.916 626.64 313.236 625.64 312.356 624.84C311.503 624.04 310.49 623.44 309.316 623.04C308.143 622.64 306.863 622.44 305.476 622.44H299.476V618H305.596C308.45 618 310.956 618.587 313.116 619.76C315.276 620.907 316.956 622.533 318.156 624.64C319.383 626.72 319.996 629.173 319.996 632C319.996 634.827 319.383 637.293 318.156 639.4C316.956 641.48 315.276 643.107 313.116 644.28C310.956 645.427 308.45 646 305.596 646ZM330.363 632.64H335.483L344.963 646H339.283L330.363 632.64ZM324.603 618H329.323V646H324.603V618ZM327.403 622.08V618H333.243C335.27 618 337.03 618.36 338.523 619.08C340.043 619.8 341.217 620.813 342.043 622.12C342.87 623.4 343.283 624.92 343.283 626.68C343.283 628.44 342.87 629.973 342.043 631.28C341.217 632.587 340.043 633.6 338.523 634.32C337.03 635.04 335.27 635.4 333.243 635.4H327.403V631.52H333.043C334.11 631.52 335.043 631.333 335.843 630.96C336.67 630.587 337.31 630.053 337.763 629.36C338.217 628.64 338.443 627.787 338.443 626.8C338.443 625.787 338.217 624.933 337.763 624.24C337.31 623.547 336.67 623.013 335.843 622.64C335.043 622.267 334.11 622.08 333.043 622.08H327.403ZM351.752 638.8L352.632 634.8H365.632L366.552 638.8H351.752ZM359.072 625.92L354.672 636.2L354.592 637.24L350.712 646H345.392L359.072 616.44L372.752 646H367.432L363.632 637.48L363.512 636.32L359.072 625.92ZM376.009 618H380.809V646H376.009V618ZM385.049 646H378.929V641.56H384.929C386.316 641.56 387.596 641.36 388.769 640.96C389.943 640.56 390.956 639.96 391.809 639.16C392.689 638.36 393.369 637.36 393.849 636.16C394.356 634.96 394.609 633.573 394.609 632C394.609 630.427 394.356 629.04 393.849 627.84C393.369 626.64 392.689 625.64 391.809 624.84C390.956 624.04 389.943 623.44 388.769 623.04C387.596 622.64 386.316 622.44 384.929 622.44H378.929V618H385.049C387.903 618 390.409 618.587 392.569 619.76C394.729 620.907 396.409 622.533 397.609 624.64C398.836 626.72 399.449 629.173 399.449 632C399.449 634.827 398.836 637.293 397.609 639.4C396.409 641.48 394.729 643.107 392.569 644.28C390.409 645.427 387.903 646 385.049 646ZM407.456 632C407.456 633.92 407.856 635.64 408.656 637.16C409.483 638.653 410.616 639.827 412.056 640.68C413.496 641.533 415.136 641.96 416.976 641.96C418.843 641.96 420.483 641.533 421.896 640.68C423.336 639.827 424.456 638.653 425.256 637.16C426.083 635.64 426.496 633.92 426.496 632C426.496 630.08 426.096 628.373 425.296 626.88C424.496 625.36 423.376 624.173 421.936 623.32C420.523 622.467 418.87 622.04 416.976 622.04C415.136 622.04 413.496 622.467 412.056 623.32C410.616 624.173 409.483 625.36 408.656 626.88C407.856 628.373 407.456 630.08 407.456 632ZM402.456 632C402.456 629.893 402.816 627.96 403.536 626.2C404.256 624.44 405.27 622.92 406.576 621.64C407.91 620.333 409.456 619.32 411.216 618.6C413.003 617.88 414.923 617.52 416.976 617.52C419.083 617.52 421.016 617.88 422.776 618.6C424.536 619.32 426.07 620.333 427.376 621.64C428.71 622.92 429.736 624.44 430.456 626.2C431.176 627.96 431.536 629.893 431.536 632C431.536 634.08 431.176 636.013 430.456 637.8C429.736 639.587 428.723 641.133 427.416 642.44C426.11 643.747 424.563 644.773 422.776 645.52C421.016 646.24 419.083 646.6 416.976 646.6C414.896 646.6 412.963 646.24 411.176 645.52C409.39 644.773 407.843 643.747 406.536 642.44C405.256 641.133 404.256 639.587 403.536 637.8C402.816 636.013 402.456 634.08 402.456 632Z" fill="black"/>
<path d="M263.779 1.36189C260.88 2.11094 256.566 3.60902 254.232 4.69854C251.899 5.71996 245.392 9.12469 239.735 12.257C234.078 15.3894 226.652 19.2027 223.258 21.1094C219.156 23.3565 210.316 28.3274 202.184 33.0259C192.424 38.6097 165.198 53.7267 162.652 55.1567C160.106 56.5867 143.346 65.9838 135.779 70.2056C128.212 74.4275 116.119 81.1689 108.906 85.1184C101.693 89.136 86.1349 97.784 74.2542 104.321C62.3735 110.858 45.8255 120.051 37.4807 124.613C29.1359 129.244 26.095 131.627 20.4376 135.508C17.8917 137.279 16.3359 138.845 12.1635 141.977C10.3956 143.271 7.00111 146.336 6.36465 146.948C5.021 148.378 0 153.622 0 158.524C0 162.951 0.0707183 436.01 1.06077 440.232C1.62652 442.82 3.1116 446.974 4.31381 449.425C5.51603 451.876 7.84973 455.554 9.54697 457.596C11.1735 459.639 14.7801 463.384 17.3967 465.836C20.084 468.287 24.1857 471.488 26.5194 472.986C28.8531 474.484 35.3591 478.365 41.0166 481.566C46.6741 484.766 56.0089 489.941 61.8785 493.142C67.6774 496.274 75.315 500.496 78.8509 502.539C82.3161 504.514 89.1758 508.259 94.0553 510.915C98.9349 513.502 106.572 517.86 111.028 520.448C115.483 523.103 125.808 528.892 134.011 533.386C142.144 537.88 156.5 545.915 165.834 551.295C175.169 556.606 187.121 563.347 192.354 566.207C197.587 569.135 205.861 573.766 210.741 576.422C215.62 579.145 220.995 582.073 222.763 582.891C224.531 583.708 228.491 586.023 231.602 588.066C234.714 590.041 241.574 593.786 246.807 596.373C252.04 599.029 258.546 601.821 261.304 602.57C265.335 603.796 268.093 604 276.155 604C283.51 604 287.541 603.66 291.713 602.638C294.825 601.957 299.351 600.595 301.755 599.642C304.23 598.62 309.958 595.965 314.484 593.65C319.081 591.334 330.325 585.342 339.448 580.303C348.57 575.264 361.017 568.455 367.028 565.186C373.039 561.917 380.677 557.696 384 555.857C387.324 553.95 395.103 549.592 401.326 546.12C407.55 542.647 413.419 539.31 414.409 538.629C415.399 538.016 420.137 535.224 425.017 532.501C429.897 529.777 440.999 523.512 449.768 518.677C458.537 513.775 471.903 506.42 479.47 502.335C487.037 498.181 495.665 493.55 498.564 491.984C501.463 490.35 506.697 487.49 510.232 485.515C513.698 483.54 521.689 479.182 527.912 475.778C534.135 472.441 541.207 468.355 543.612 466.721C546.087 465.087 549.41 462.091 550.966 460.116C552.593 458.209 554.502 455.417 555.209 453.987C555.987 452.625 557.048 449.561 557.614 447.178C558.462 443.841 558.674 437.372 558.674 415.037C558.674 392.702 558.674 385.893 558.674 382.352C558.674 378.879 558.674 365.396 558.674 361.31C558.674 357.021 558.674 345.444 558.674 342.993C558.674 338.567 558.25 337.273 558.533 310.171C558.745 286.202 558.674 280.891 558.674 276.669C558.674 274.013 558.674 257.126 558.674 256.785C558.674 256.377 558.674 240.51 558.674 236.833C558.674 232.067 558.674 229.071 558.674 203.603C558.674 180.247 558.674 173.846 558.674 170.645C558.674 168.126 558.674 162.474 558.674 158.524C558.321 153.485 556.129 151.102 554.502 148.923C552.593 146.404 550.259 144.293 546.723 140.956C543.753 138.164 538.449 134.215 534.913 132.172C531.448 130.129 525.295 126.724 521.194 124.613C517.092 122.434 510.091 118.689 505.636 116.238C501.181 113.786 496.513 111.199 495.382 110.586C494.179 109.905 489.936 107.522 485.835 105.206C481.733 102.959 472.327 97.7159 464.973 93.6983C457.547 89.6126 446.445 83.4841 440.221 80.1475C433.998 76.7427 425.229 71.9761 420.774 69.4566C416.319 66.9371 410.378 63.6685 407.691 62.1024C404.933 60.6043 394.75 54.9524 385.061 49.5048C375.302 44.0573 361.653 36.4307 354.652 32.5493C347.651 28.5998 339.023 23.7651 335.558 21.6541C332.022 19.5432 327.284 16.9556 324.951 15.798C322.617 14.7085 318.444 12.3932 315.757 10.759C312.999 9.05659 308.898 6.74138 306.564 5.58377C304.23 4.49425 300.058 2.92807 297.37 2.11093C293.481 0.953325 290.723 0 280.752 0C276.438 0 268.447 0.136189 263.779 1.36189Z" fill="white"/>
<path d="M25.8833 171.053C24.7518 172.619 24.6811 180.995 24.8933 303.089L25.1054 433.422C27.1563 440.708 29.985 443.909 33.6623 447.382C37.9762 451.467 42.6436 453.306 52.6856 459.026C59.6867 462.975 70.153 468.831 76.0226 472.032C81.8215 475.232 89.4591 479.386 92.995 481.429C96.4602 483.404 103.32 487.149 108.199 489.805C113.079 492.392 120.717 496.75 125.172 499.338C129.627 501.925 134.365 504.649 135.567 505.33C136.84 506.079 138.962 507.169 140.164 507.918C141.437 508.599 146.387 511.322 151.125 514.046C155.934 516.702 159.965 518.881 160.177 518.881C160.39 518.881 168.381 523.443 177.998 528.959C187.687 534.475 200.133 541.625 205.791 544.757C211.448 547.889 220.005 552.656 224.885 555.312C229.764 558.035 235.28 561.032 237.26 561.985C239.17 562.938 243.484 565.458 246.807 567.569C250.131 569.612 256.708 573.289 261.517 575.604C269.649 579.485 270.498 580.03 275.377 580.166L278.631 580.098V514.863C275.59 514.795 265.831 511.254 264.487 510.505C263.143 509.756 261.517 508.735 260.951 508.326C260.385 507.85 257.839 506.42 255.294 505.126C252.748 503.764 249.07 501.857 247.161 500.836C245.181 499.814 239.311 496.41 234.078 493.277C228.845 490.145 224.319 487.557 223.965 487.557C223.682 487.557 222.622 487.013 221.49 486.264C220.429 485.583 216.54 483.336 212.863 481.293C209.185 479.182 203.598 476.254 200.487 474.619C197.375 473.053 193.061 470.738 190.94 469.512C188.818 468.355 180.969 463.997 173.614 459.843C166.188 455.689 156.5 450.242 152.045 447.722C147.59 445.202 142.286 442.342 140.376 441.321C138.396 440.3 133.658 437.712 129.769 435.465C125.879 433.286 118.383 429.064 113.15 426.068C107.917 423.072 101.552 419.327 99.006 417.76C96.4602 416.194 93.5607 413.879 92.5707 412.585C91.5806 411.291 89.8127 408.568 88.7519 406.525C87.6911 404.482 86.3475 400.805 85.8524 398.353C85.2867 395.902 84.8624 389.773 84.8624 384.53C84.8624 377.108 85.0745 374.997 85.9232 374.18C86.5596 373.567 87.479 373.363 88.1861 373.635C88.8933 373.839 92.2878 375.678 95.8237 377.584C99.2889 379.559 106.29 383.441 111.382 386.232C116.403 389.024 124.04 393.246 128.354 395.63C132.597 398.013 137.406 400.669 138.962 401.622C140.518 402.575 144.832 404.89 148.509 406.729C152.186 408.636 158.056 411.904 161.592 414.015C165.057 416.126 168.451 418.033 169.017 418.237C169.583 418.441 174.675 421.301 180.332 424.57C185.99 427.838 192.637 431.652 195.183 432.945C197.729 434.307 203.598 437.576 208.266 440.232C212.933 442.887 219.156 446.428 222.056 447.994C224.955 449.561 231.32 453.17 236.2 455.893C241.079 458.685 249.777 463.588 255.647 466.72C261.446 469.921 268.023 473.189 270.144 473.938C272.266 474.688 275.165 474.688 276.297 474.688C277.358 474.688 277.57 474.756 278.631 474.688C278.631 472.985 278.631 409.385 278.631 409.385C271.771 408.295 269.861 406.865 267.316 405.639C264.77 404.414 254.445 398.898 244.332 393.314C234.219 387.731 223.541 381.67 220.642 379.9C217.742 378.197 212.438 375.201 208.973 373.363C205.437 371.456 200.558 368.8 198.012 367.37C195.466 366.008 191.647 363.897 189.525 362.808C187.404 361.65 181.181 358.246 175.735 355.249C170.29 352.253 164.208 348.985 162.299 347.963C160.319 346.942 157.985 345.716 156.995 345.171C156.005 344.627 154.732 343.878 154.166 343.469C153.601 343.06 151.055 341.63 148.509 340.269C145.963 338.975 139.952 335.638 135.072 332.914C130.193 330.191 123.05 326.241 119.161 324.13C115.271 322.019 107.917 317.661 102.896 314.461C97.0966 310.784 92.995 307.583 91.7928 305.949C90.732 304.519 89.1055 301.659 88.1154 299.616C87.1254 297.573 85.8524 293.624 85.216 290.9C84.6502 288.244 84.1552 283.205 84.1552 279.869C84.1552 276.464 84.4381 272.991 84.8624 272.038C85.216 271.084 86.1353 270.131 86.7718 269.927C87.5497 269.654 90.4491 270.676 94.4094 272.719C97.8745 274.489 103.32 277.349 106.431 279.051C109.543 280.754 115.201 283.954 118.949 286.133C122.767 288.312 126.02 290.083 126.233 290.083C126.445 290.083 127.93 290.9 129.556 291.921C131.254 292.875 136.062 295.735 140.376 298.118C144.619 300.569 150.206 303.634 152.752 304.927C155.298 306.221 158.763 308.128 160.531 309.149C162.299 310.171 167.532 313.167 172.199 315.823C176.867 318.41 184.787 322.904 189.879 325.696C194.9 328.488 204.801 334.072 211.802 338.09C218.803 342.107 228.491 347.759 233.371 350.551C238.25 353.343 243.13 356.203 244.332 356.816C245.464 357.497 248.505 359.199 251.05 360.697C253.596 362.195 258.476 364.783 262.012 366.485C265.477 368.187 268.376 369.822 270.569 370.503C271.771 370.843 272.619 371.115 274.387 371.115C275.943 371.115 278.631 371.115 278.631 371.115V303.838C275.59 303.838 274.458 303.089 271.559 302.408C268.659 301.727 265.123 300.501 263.78 299.82C262.436 299.071 257.486 296.552 252.818 294.168C248.151 291.785 242.281 288.653 239.735 287.155C237.19 285.657 232.098 282.729 228.421 280.618C224.743 278.439 216.611 273.876 210.387 270.403C204.164 266.999 198.436 263.798 197.658 263.322C196.88 262.845 195.466 262.028 194.476 261.415C193.486 260.802 189.808 258.827 186.343 257.057C182.807 255.286 175.382 251.201 169.724 248C164.067 244.8 158.197 241.531 156.641 240.782C155.086 239.965 150.277 237.309 146.034 234.994C141.72 232.611 135.85 229.274 132.951 227.504C130.051 225.801 124.323 222.737 120.222 220.626C116.12 218.515 106.29 213.136 98.2989 208.641C90.3077 204.079 82.5287 199.653 80.9729 198.7C79.4171 197.814 75.2447 195.567 71.7795 193.729C68.2436 191.958 63.6469 189.371 61.5253 188.009C59.3331 186.647 56.9994 185.217 56.2215 184.74C55.4436 184.264 50.8469 181.676 45.9673 179.02C41.0878 176.296 35.7839 173.232 34.0866 172.143C32.4601 171.121 30.1971 170.032 29.1364 169.827C27.5098 169.487 26.8734 169.759 25.8833 171.053Z" fill="#006494"/>
<path d="M271.7 24.9229C269.72 25.4677 266.962 26.3529 265.689 26.9657C264.487 27.6467 258.971 30.5748 253.525 33.5709C248.08 36.6352 240.937 40.4485 237.614 42.0828C234.29 43.717 231.037 45.5556 230.33 46.1684C229.622 46.7813 229.057 47.7346 229.127 48.1432C229.127 48.6198 230.188 49.8456 231.39 50.7989C232.663 51.7522 235.633 53.5227 237.967 54.7484C240.301 56.0422 247.302 59.8555 253.525 63.3283C259.748 66.8011 266.255 70.4102 268.022 71.3635C269.79 72.3168 274.246 74.7682 277.923 76.8111C281.6 78.8539 285.914 81.2372 287.47 82.1224C289.026 82.9396 293.481 85.391 297.371 87.5019C301.26 89.681 305.574 91.9962 306.918 92.7452C308.261 93.4943 311.444 95.2647 313.989 96.6947C316.535 98.0566 326.082 103.368 335.205 108.407C344.328 113.446 353.592 118.553 355.713 119.643C357.835 120.8 363.28 123.796 367.735 126.248C372.191 128.767 375.939 130.742 376.009 130.742C376.151 130.742 377.424 131.491 378.838 132.308C380.323 133.193 382.94 134.692 384.708 135.645C386.476 136.598 391.567 139.322 396.023 141.773C400.478 144.157 407.62 148.106 411.934 150.421C416.177 152.805 422.683 156.346 426.219 158.389C429.826 160.431 430.321 160.636 430.321 161.725C430.321 162.542 428.482 163.7 426.714 164.585C424.805 165.538 398.286 178.34 391.002 180.655C379.757 184.128 366.816 174.527 365.119 173.642C364.058 173.097 358.33 170.033 352.531 166.764C346.661 163.564 337.751 158.661 332.73 155.801C327.638 153.009 318.091 147.698 311.514 144.021C304.867 140.343 298.856 137.007 298.078 136.598C297.3 136.19 295.885 135.304 294.895 134.76C293.905 134.147 291.36 132.717 289.238 131.627C287.116 130.47 283.581 128.563 281.459 127.337C279.337 126.112 274.034 123.184 269.79 120.868C265.477 118.553 257.698 114.263 252.464 111.335C247.231 108.475 241.503 105.275 239.735 104.321C237.967 103.368 235.351 101.87 233.866 100.985C232.451 100.168 231.108 99.4185 230.895 99.4185C230.683 99.4185 226.794 97.2395 222.197 94.6519C217.671 91.9962 213.852 89.8852 213.711 89.8852C213.64 89.8852 209.326 87.57 204.164 84.71C199.072 81.8501 192.566 78.3091 189.879 76.8791C187.121 75.4492 184.08 74.2235 182.948 74.2235C181.888 74.2235 180.332 74.4958 179.412 74.9044C178.564 75.2449 174.745 77.3558 170.997 79.4667C167.178 81.6458 157.773 86.9572 150.135 91.2471C142.427 95.5371 130.263 102.278 123.05 106.228C115.837 110.246 99.0058 119.575 85.5693 126.997C72.1328 134.419 60.3229 141.024 59.1914 141.705C58.1306 142.454 57.1405 142.999 56.9284 142.999C56.7162 142.999 52.0488 145.519 46.4621 148.583C40.9461 151.579 35.8543 154.575 35.1472 155.188C34.44 155.801 33.8742 156.959 33.9449 157.776C33.9449 158.729 34.7936 159.955 36.2079 160.84C37.4101 161.725 39.3195 162.883 40.3803 163.428C41.4411 163.972 43.8455 165.266 45.7549 166.219C47.5936 167.173 52.9682 170.033 57.6356 172.62C62.303 175.14 67.0411 177.864 68.2433 178.749C69.3748 179.566 75.103 182.835 80.9726 186.035C86.7715 189.235 93.1362 192.708 95.1163 193.798C97.0257 194.819 101.693 197.339 105.37 199.382C109.048 201.492 112.725 203.467 113.503 203.876C114.281 204.284 119.373 207.076 124.818 210.004C130.263 213 137.477 217.018 140.871 219.061C144.336 221.036 149.569 223.964 152.54 225.462C155.58 227.028 158.551 228.662 159.116 229.071C159.682 229.479 160.955 230.228 161.945 230.773C162.935 231.318 168.805 234.518 175.028 237.991C181.251 241.396 190.657 246.639 195.89 249.567C201.123 252.495 207.205 255.832 209.326 256.922C211.448 258.079 225.309 265.91 240.089 274.422C254.869 282.934 269.79 291.446 273.326 293.352C276.792 295.327 280.257 296.893 280.893 296.893C281.6 296.893 282.873 296.553 283.722 296.144C284.641 295.667 288.531 293.352 292.42 290.901C296.31 288.517 300.624 285.794 301.967 284.977C303.311 284.091 307.483 281.64 311.161 279.461C314.838 277.214 318.445 275.103 319.081 274.762C319.718 274.354 321.768 273.196 323.678 272.107C325.516 271.017 328.133 269.315 329.406 268.361C330.679 267.408 331.74 266.251 331.669 265.91C331.669 265.501 330.75 264.412 329.689 263.322C328.628 262.301 327.567 261.484 327.214 261.484C326.931 261.484 324.739 260.326 322.263 258.828C319.859 257.398 313.919 254.062 309.039 251.474C304.16 248.818 299.068 246.094 297.724 245.277C296.381 244.528 292.208 242.281 288.531 240.238C284.853 238.195 277.499 234.11 272.266 231.182C267.032 228.254 261.304 225.121 259.536 224.168C257.768 223.215 255.152 221.717 253.667 220.831C252.252 220.014 250.909 219.265 250.697 219.265C250.484 219.265 248.292 218.039 245.746 216.541C243.2 215.043 241.008 213.818 240.796 213.818C240.584 213.818 239.24 213.069 237.755 212.251C236.341 211.366 233.724 209.868 231.956 208.915C230.188 207.961 225.874 205.578 222.409 203.603C218.873 201.629 214.772 199.313 213.216 198.496C211.66 197.611 207.205 195.16 203.315 193.049C199.426 190.87 194.334 188.146 192 186.92C189.667 185.694 185.211 183.243 182.1 181.473C178.988 179.634 174.391 177.115 171.846 175.821C169.3 174.459 162.652 170.714 156.995 167.445C151.337 164.245 146.67 161.248 146.528 160.976C146.458 160.636 147.589 159.75 149.004 159.001C150.489 158.32 152.469 157.163 153.459 156.55C154.449 155.937 158.48 153.758 162.511 151.783C166.542 149.74 171.28 147.357 173.119 146.404C176.159 144.838 181.817 142.25 186.272 142.318L193.91 143.612C204.305 148.787 211.024 152.6 213.569 154.099C216.115 155.597 219.298 157.435 220.641 158.184C221.985 158.933 223.965 160.023 225.026 160.636C226.087 161.248 234.361 165.811 243.413 170.85C252.464 175.889 263.072 181.813 266.962 184.06C270.851 186.307 275.165 188.759 276.509 189.508C277.852 190.257 281.035 192.027 283.581 193.389C286.126 194.751 289.309 196.522 290.652 197.271C291.996 198.02 300.411 202.718 309.393 207.689C318.303 212.66 330.75 219.538 336.973 223.01C343.196 226.483 351.753 231.046 356.067 233.225C361.158 235.812 365.543 237.515 368.796 238.127C371.483 238.672 375.019 238.876 376.575 238.672C378.131 238.468 380.818 237.923 382.586 237.515C384.354 237.106 386.546 236.221 387.536 235.676C388.456 235.063 390.153 234.11 391.284 233.565C392.345 233.02 397.437 230.16 402.599 227.232C407.762 224.236 412.712 221.308 413.702 220.627C414.692 220.014 418.016 218.244 421.128 216.746C424.239 215.248 428.341 213.205 430.321 212.115C432.23 211.026 434.352 209.8 434.918 209.391C435.483 208.915 437.746 207.621 439.868 206.531C441.99 205.374 448.213 201.969 453.658 198.905C459.103 195.841 464.054 193.049 464.619 192.708C465.185 192.368 469.499 189.984 474.166 187.465C478.834 184.877 486.613 180.587 491.492 177.932C496.372 175.276 502.241 172.076 504.575 170.85C506.909 169.624 511.293 167.445 514.264 166.015C518.224 164.177 520.345 163.428 522.396 162.474C523.881 161.725 527.064 160.431 527.064 158.525C526.993 156.278 523.811 155.12 520.487 153.213C517.163 151.239 511.435 148.106 507.758 146.2C504.08 144.361 500.261 142.318 499.271 141.705C498.281 141.092 496.867 140.207 496.089 139.799C495.311 139.322 493.543 138.369 492.199 137.688C490.856 137.007 487.815 135.373 485.481 134.147C483.148 132.921 480.743 131.559 480.177 131.083C479.612 130.606 476.571 128.904 473.459 127.201C470.348 125.499 461.578 120.732 454.012 116.51C446.445 112.356 440.151 108.952 440.009 108.952C439.939 108.952 436.12 106.841 431.523 104.253C426.997 101.734 418.865 97.1714 413.419 94.2433C408.045 91.3152 402.812 88.3872 401.751 87.8424C400.761 87.2976 397.437 85.4591 394.396 83.7567C391.355 82.0543 387.819 80.0796 386.476 79.3306C385.203 78.5815 377.141 74.0873 368.655 69.3887C360.168 64.6221 347.51 57.5403 340.509 53.6589C333.508 49.7775 325.234 45.0108 322.122 43.1723C319.01 41.3337 314.202 38.678 311.514 37.3161C308.756 35.9542 303.664 33.0943 300.199 30.9833C296.663 28.9405 292.208 26.6253 290.299 25.9443C288.319 25.2634 284.217 24.5143 281.105 24.3781C277.428 24.1058 274.104 24.31 271.7 24.9229Z" fill="#29384A"/>
<path d="M516.951 176.637C512.496 178.953 505.919 182.562 502.454 184.536C498.918 186.511 495.241 188.69 494.109 189.371C493.048 190.12 492.058 190.665 491.846 190.665C491.634 190.665 490.644 191.278 489.512 191.959C488.452 192.64 482.653 195.976 476.642 199.313C470.631 202.65 462.639 206.94 458.962 208.846C455.285 210.685 447.011 215.247 440.575 218.924C434.14 222.601 425.088 227.776 420.421 230.5C415.753 233.156 408.752 237.174 404.863 239.353C400.973 241.532 396.376 244.119 394.608 245.141C392.84 246.162 384.284 250.997 375.514 255.9C366.745 260.734 356.35 266.454 352.319 268.565C348.359 270.676 344.964 272.378 344.752 272.378C344.54 272.378 342.065 273.672 339.236 275.307C336.478 276.941 332.73 279.052 330.962 280.005C329.194 280.958 326.365 282.525 324.597 283.41C322.829 284.363 319.647 286.066 317.525 287.155C315.404 288.313 311.373 290.355 308.686 291.785C305.928 293.215 301.048 295.939 297.724 297.778C294.401 299.684 289.238 301.863 287.399 302.544C285.561 303.225 282.944 303.702 281.813 303.702L278.63 303.77V371.048C283.581 370.98 287.894 369.482 290.087 368.528C292.279 367.507 297.866 364.579 302.887 361.855C307.978 359.131 312.999 356.135 313.99 355.522C314.98 354.841 320.991 351.436 327.426 347.964C333.861 344.491 344.823 338.43 351.824 334.481C358.825 330.531 368.018 325.356 372.332 322.905C376.575 320.453 381.879 317.525 384.001 316.436C386.122 315.278 391.072 312.554 394.962 310.307C398.851 308.06 404.721 304.86 408.045 303.157C411.369 301.455 417.875 297.914 422.542 295.326C427.21 292.739 436.757 287.291 443.758 283.274C450.759 279.256 464.124 271.698 473.459 266.59C482.794 261.415 496.301 253.993 503.515 250.043C510.728 246.094 519.002 241.464 521.901 239.761C524.801 238.059 528.407 235.607 529.893 234.245C531.873 232.475 532.721 230.977 533.216 228.594C533.641 226.823 533.923 215.519 533.923 203.399C533.923 191.346 533.57 180.246 533.216 178.748C532.863 177.25 532.509 174.799 531.378 173.845C530.317 172.892 527.842 172.279 526.852 172.279C525.862 172.279 521.406 174.254 516.951 176.637ZM522.255 279.392C520.699 279.869 516.739 281.707 513.415 283.41C510.091 285.112 504.858 287.904 501.747 289.538C498.635 291.241 494.18 293.692 491.846 294.986C489.512 296.28 482.158 300.434 475.581 304.179C468.933 307.924 458.962 313.508 453.305 316.64C447.647 319.772 438.878 324.675 433.857 327.535C428.765 330.395 421.623 334.413 417.945 336.388C414.268 338.43 406.418 342.72 400.619 345.989C394.75 349.257 381.738 356.544 371.625 362.263C361.512 367.983 351.187 373.976 348.641 375.542C346.096 377.108 342.913 378.947 341.57 379.56C340.226 380.241 336.054 382.488 332.376 384.53C328.699 386.641 322.759 389.91 319.293 391.953C315.757 393.928 308.615 397.809 303.382 400.533C298.149 403.257 292.067 406.253 289.945 407.07C287.824 407.955 284.854 408.84 283.369 409.113L278.63 409.249C278.63 459.162 278.63 473.939 278.63 474.552C283.722 474.552 284.924 474.007 287.399 472.985C289.945 471.828 295.673 469.036 300.553 466.448C305.433 463.929 310.949 461.001 312.929 459.979C314.838 458.958 319.506 456.302 323.183 454.191C326.86 452.012 336.761 446.497 345.106 441.934C353.45 437.304 365.543 430.562 371.979 426.953C378.414 423.276 389.022 417.284 395.669 413.675C402.246 409.998 409.035 406.253 410.661 405.367C412.359 404.55 415.046 403.052 416.673 402.167C418.37 401.282 423.532 398.422 428.2 395.834C432.867 393.178 438.454 390.046 440.575 388.82C442.697 387.595 445.384 386.029 446.586 385.416C447.718 384.735 451.466 382.624 454.86 380.717C458.326 378.81 461.225 377.244 461.437 377.244C461.649 377.244 467.59 374.044 474.662 370.162C481.804 366.213 490.785 361.31 494.675 359.131C498.564 357.02 505.636 353.071 510.374 350.415C515.183 347.759 521.548 344.014 524.518 342.176C527.488 340.269 530.529 338.022 531.236 337.068C532.014 336.115 532.863 333.119 533.287 330.259C533.711 327.263 533.923 316.368 533.782 304.247L533.57 283.274C530.246 280.141 528.337 279.052 527.205 278.916C526.003 278.711 523.811 278.916 522.255 279.392ZM520.841 385.688C519.285 386.233 516.456 387.459 514.476 388.48C512.567 389.501 506.485 392.838 501.039 395.834C495.594 398.83 488.098 403.052 484.421 405.163C480.743 407.274 473.884 411.155 469.216 413.811C464.549 416.467 455.002 421.71 448.001 425.592C441 429.405 432.726 434.035 429.614 435.806C426.502 437.576 419.148 441.73 413.349 444.999C407.479 448.267 399.7 452.761 396.023 454.94C392.345 457.051 385.344 461.069 380.465 463.725C375.585 466.448 369.998 469.513 368.089 470.602C366.109 471.624 361.512 474.143 357.835 476.254C354.158 478.297 343.762 483.881 334.851 488.647C325.87 493.346 318.233 497.5 317.879 497.84C317.455 498.112 312.999 500.564 307.978 503.288C302.887 505.943 296.734 509.144 294.188 510.438C291.643 511.663 285.349 513.842 282.873 514.523L278.63 514.864C278.63 578.737 278.63 577.783 278.63 580.03C284.712 580.167 285.844 579.281 287.612 578.6C289.026 578.056 294.118 575.468 298.785 573.221C303.452 570.974 314.272 565.254 322.829 560.555C331.386 555.925 340.721 550.75 343.479 549.115C346.308 547.481 348.783 546.119 348.995 546.119C349.207 546.119 355.289 542.783 362.573 538.765C369.928 534.679 380.96 528.483 387.183 525.01C393.406 521.537 399.276 518.2 400.266 517.519C401.256 516.907 405.994 514.115 410.874 511.391C415.753 508.667 426.856 502.402 435.625 497.568C444.394 492.665 454.86 486.877 458.962 484.63C463.064 482.383 467.66 479.931 469.216 479.114C470.772 478.297 475.086 475.982 478.763 473.939C482.441 471.896 489.3 468.151 493.968 465.495C498.635 462.907 507.546 458.073 513.769 454.668C519.992 451.331 526.286 447.722 527.842 446.769C529.327 445.816 531.236 443.909 532.085 442.615C533.499 440.3 533.57 439.347 533.782 418.101C533.923 405.912 533.782 394.268 533.499 392.225C533.146 389.365 532.58 388.071 531.024 386.573C529.468 385.211 528.266 384.735 526.286 384.803C524.872 384.803 522.396 385.211 520.841 385.688Z" fill="#214F64"/>
</svg>
