<svg width="1920" height="192" viewBox="0 0 1920 192" fill="none" xmlns="http://www.w3.org/2000/svg">
<path d="M0 0.640625H1920V188.641C1170.19 185.527 749.807 185.684 0 188.641V0.640625Z" fill="#0F3B62"/>
<path d="M748.184 164.24L748.888 161.04H759.288L760.024 164.24H748.184ZM754.04 153.936L750.52 162.16L750.456 162.992L747.352 170H743.096L754.04 146.352L764.984 170H760.728L757.688 163.184L757.592 162.256L754.04 153.936ZM767.59 147.6H771.366V170H767.59V147.6ZM769.83 150.928V147.6H774.342C775.963 147.6 777.371 147.888 778.566 148.464C779.782 149.019 780.72 149.819 781.382 150.864C782.043 151.888 782.374 153.115 782.374 154.544C782.374 155.973 782.043 157.211 781.382 158.256C780.72 159.301 779.782 160.112 778.566 160.688C777.371 161.243 775.963 161.52 774.342 161.52H769.83V158.192H774.342C775.643 158.192 776.688 157.883 777.478 157.264C778.267 156.645 778.662 155.739 778.662 154.544C778.662 153.349 778.267 152.453 777.478 151.856C776.688 151.237 775.643 150.928 774.342 150.928H769.83ZM790.698 159.312H794.794L802.378 170H797.834L790.698 159.312ZM786.09 147.6H789.866V170H786.09V147.6ZM788.33 150.864V147.6H793.002C794.623 147.6 796.031 147.888 797.226 148.464C798.442 149.04 799.38 149.851 800.042 150.896C800.703 151.92 801.034 153.136 801.034 154.544C801.034 155.952 800.703 157.179 800.042 158.224C799.38 159.269 798.442 160.08 797.226 160.656C796.031 161.232 794.623 161.52 793.002 161.52H788.33V158.416H792.842C793.695 158.416 794.442 158.267 795.082 157.968C795.743 157.669 796.255 157.243 796.618 156.688C796.98 156.112 797.162 155.429 797.162 154.64C797.162 153.829 796.98 153.147 796.618 152.592C796.255 152.037 795.743 151.611 795.082 151.312C794.442 151.013 793.695 150.864 792.842 150.864H788.33ZM807.841 158.8C807.841 160.336 808.161 161.712 808.801 162.928C809.462 164.123 810.369 165.061 811.521 165.744C812.673 166.427 813.985 166.768 815.457 166.768C816.95 166.768 818.262 166.427 819.393 165.744C820.545 165.061 821.441 164.123 822.081 162.928C822.742 161.712 823.073 160.336 823.073 158.8C823.073 157.264 822.753 155.899 822.113 154.704C821.473 153.488 820.577 152.539 819.425 151.856C818.294 151.173 816.972 150.832 815.457 150.832C813.985 150.832 812.673 151.173 811.521 151.856C810.369 152.539 809.462 153.488 808.801 154.704C808.161 155.899 807.841 157.264 807.841 158.8ZM803.841 158.8C803.841 157.115 804.129 155.568 804.705 154.16C805.281 152.752 806.092 151.536 807.137 150.512C808.204 149.467 809.441 148.656 810.849 148.08C812.278 147.504 813.814 147.216 815.457 147.216C817.142 147.216 818.689 147.504 820.097 148.08C821.505 148.656 822.732 149.467 823.777 150.512C824.844 151.536 825.665 152.752 826.241 154.16C826.817 155.568 827.105 157.115 827.105 158.8C827.105 160.464 826.817 162.011 826.241 163.44C825.665 164.869 824.854 166.107 823.809 167.152C822.764 168.197 821.526 169.019 820.097 169.616C818.689 170.192 817.142 170.48 815.457 170.48C813.793 170.48 812.246 170.192 810.817 169.616C809.388 169.019 808.15 168.197 807.105 167.152C806.081 166.107 805.281 164.869 804.705 163.44C804.129 162.011 803.841 160.464 803.841 158.8ZM838.353 163.344L844.944 147.6H849.297L838.353 171.248L827.409 147.6H831.761L838.353 163.344ZM851.403 164.24L852.107 161.04H862.507L863.243 164.24H851.403ZM857.259 153.936L853.739 162.16L853.675 162.992L850.571 170H846.315L857.259 146.352L868.203 170H863.947L860.907 163.184L860.811 162.256L857.259 153.936ZM872.624 158.8C872.624 160.379 872.976 161.765 873.68 162.96C874.405 164.155 875.344 165.083 876.496 165.744C877.669 166.384 878.938 166.704 880.304 166.704C881.37 166.704 882.33 166.565 883.184 166.288C884.037 166.011 884.805 165.637 885.488 165.168C886.192 164.677 886.8 164.133 887.312 163.536V168.016C886.373 168.784 885.36 169.371 884.272 169.776C883.184 170.181 881.818 170.384 880.176 170.384C878.533 170.384 876.997 170.107 875.568 169.552C874.16 168.997 872.933 168.197 871.888 167.152C870.842 166.107 870.021 164.88 869.424 163.472C868.848 162.043 868.56 160.485 868.56 158.8C868.56 157.115 868.848 155.568 869.424 154.16C870.021 152.731 870.842 151.493 871.888 150.448C872.933 149.403 874.16 148.603 875.568 148.048C876.997 147.493 878.533 147.216 880.176 147.216C881.818 147.216 883.184 147.419 884.272 147.824C885.36 148.229 886.373 148.816 887.312 149.584V154.064C886.8 153.467 886.192 152.933 885.488 152.464C884.805 151.973 884.037 151.589 883.184 151.312C882.33 151.035 881.37 150.896 880.304 150.896C878.938 150.896 877.669 151.227 876.496 151.888C875.344 152.528 874.405 153.445 873.68 154.64C872.976 155.813 872.624 157.2 872.624 158.8ZM879.216 168.24L881.776 168.304L879.472 172.016C879.557 171.995 879.653 171.973 879.76 171.952C879.888 171.952 880.005 171.952 880.112 171.952C880.496 171.952 880.88 172.048 881.264 172.24C881.669 172.453 882 172.752 882.256 173.136C882.533 173.52 882.672 174.021 882.672 174.64C882.672 175.323 882.49 175.899 882.128 176.368C881.765 176.859 881.296 177.221 880.72 177.456C880.165 177.712 879.578 177.84 878.96 177.84C878.234 177.84 877.594 177.744 877.04 177.552C876.506 177.381 875.952 177.061 875.376 176.592L876.624 174.96C876.965 175.216 877.296 175.408 877.616 175.536C877.957 175.664 878.32 175.728 878.704 175.728C879.258 175.728 879.664 175.621 879.92 175.408C880.197 175.195 880.336 174.896 880.336 174.512C880.336 174.107 880.176 173.819 879.856 173.648C879.557 173.499 879.141 173.424 878.608 173.424C878.458 173.424 878.17 173.456 877.744 173.52C877.317 173.584 876.89 173.733 876.464 173.968L879.216 168.24ZM894.653 164.24L895.357 161.04H905.757L906.493 164.24H894.653ZM900.509 153.936L896.989 162.16L896.925 162.992L893.821 170H889.565L900.509 146.352L911.453 170H907.197L904.157 163.184L904.061 162.256L900.509 153.936ZM894.813 143.376C894.919 142.843 895.143 142.373 895.485 141.968C895.826 141.541 896.253 141.211 896.765 140.976C897.277 140.72 897.81 140.592 898.365 140.592C898.877 140.592 899.303 140.677 899.645 140.848C899.986 140.997 900.285 141.179 900.541 141.392C900.818 141.584 901.095 141.765 901.373 141.936C901.671 142.085 902.045 142.16 902.493 142.16C902.834 142.16 903.154 142.021 903.453 141.744C903.751 141.467 904.061 141.072 904.381 140.56L906.173 142.32C906.002 142.704 905.735 143.099 905.373 143.504C905.01 143.888 904.573 144.208 904.061 144.464C903.57 144.699 903.026 144.816 902.429 144.816C901.853 144.816 901.341 144.688 900.893 144.432C900.466 144.155 900.05 143.888 899.645 143.632C899.261 143.376 898.823 143.248 898.333 143.248C897.906 143.248 897.575 143.355 897.341 143.568C897.127 143.76 896.978 143.984 896.893 144.24C896.807 144.496 896.765 144.709 896.765 144.88L894.813 143.376ZM915.81 158.8C915.81 160.336 916.13 161.712 916.77 162.928C917.431 164.123 918.338 165.061 919.49 165.744C920.642 166.427 921.954 166.768 923.426 166.768C924.919 166.768 926.231 166.427 927.362 165.744C928.514 165.061 929.41 164.123 930.05 162.928C930.711 161.712 931.042 160.336 931.042 158.8C931.042 157.264 930.722 155.899 930.082 154.704C929.442 153.488 928.546 152.539 927.394 151.856C926.263 151.173 924.94 150.832 923.426 150.832C921.954 150.832 920.642 151.173 919.49 151.856C918.338 152.539 917.431 153.488 916.77 154.704C916.13 155.899 915.81 157.264 915.81 158.8ZM911.81 158.8C911.81 157.115 912.098 155.568 912.674 154.16C913.25 152.752 914.06 151.536 915.106 150.512C916.172 149.467 917.41 148.656 918.818 148.08C920.247 147.504 921.783 147.216 923.426 147.216C925.111 147.216 926.658 147.504 928.066 148.08C929.474 148.656 930.7 149.467 931.746 150.512C932.812 151.536 933.634 152.752 934.21 154.16C934.786 155.568 935.074 157.115 935.074 158.8C935.074 160.464 934.786 162.011 934.21 163.44C933.634 164.869 932.823 166.107 931.778 167.152C930.732 168.197 929.495 169.019 928.066 169.616C926.658 170.192 925.111 170.48 923.426 170.48C921.762 170.48 920.215 170.192 918.786 169.616C917.356 169.019 916.119 168.197 915.074 167.152C914.05 166.107 913.25 164.869 912.674 163.44C912.098 162.011 911.81 160.464 911.81 158.8ZM948.34 147.6H952.18V170H948.34V147.6ZM955.572 170H950.676V166.448H955.476C956.585 166.448 957.609 166.288 958.548 165.968C959.486 165.648 960.297 165.168 960.98 164.528C961.684 163.888 962.228 163.088 962.612 162.128C963.017 161.168 963.22 160.059 963.22 158.8C963.22 157.541 963.017 156.432 962.612 155.472C962.228 154.512 961.684 153.712 960.98 153.072C960.297 152.432 959.486 151.952 958.548 151.632C957.609 151.312 956.585 151.152 955.476 151.152H950.676V147.6H955.572C957.854 147.6 959.86 148.069 961.588 149.008C963.316 149.925 964.66 151.227 965.62 152.912C966.601 154.576 967.092 156.539 967.092 158.8C967.092 161.061 966.601 163.035 965.62 164.72C964.66 166.384 963.316 167.685 961.588 168.624C959.86 169.541 957.854 170 955.572 170ZM973.497 158.8C973.497 160.336 973.817 161.712 974.457 162.928C975.119 164.123 976.025 165.061 977.177 165.744C978.329 166.427 979.641 166.768 981.113 166.768C982.607 166.768 983.919 166.427 985.049 165.744C986.201 165.061 987.097 164.123 987.737 162.928C988.399 161.712 988.729 160.336 988.729 158.8C988.729 157.264 988.409 155.899 987.769 154.704C987.129 153.488 986.233 152.539 985.081 151.856C983.951 151.173 982.628 150.832 981.113 150.832C979.641 150.832 978.329 151.173 977.177 151.856C976.025 152.539 975.119 153.488 974.457 154.704C973.817 155.899 973.497 157.264 973.497 158.8ZM969.497 158.8C969.497 157.115 969.785 155.568 970.361 154.16C970.937 152.752 971.748 151.536 972.793 150.512C973.86 149.467 975.097 148.656 976.505 148.08C977.935 147.504 979.471 147.216 981.113 147.216C982.799 147.216 984.345 147.504 985.753 148.08C987.161 148.656 988.388 149.467 989.433 150.512C990.5 151.536 991.321 152.752 991.897 154.16C992.473 155.568 992.761 157.115 992.761 158.8C992.761 160.464 992.473 162.011 991.897 163.44C991.321 164.869 990.511 166.107 989.465 167.152C988.42 168.197 987.183 169.019 985.753 169.616C984.345 170.192 982.799 170.48 981.113 170.48C979.449 170.48 977.903 170.192 976.473 169.616C975.044 169.019 973.807 168.197 972.761 167.152C971.737 166.107 970.937 164.869 970.361 163.44C969.785 162.011 969.497 160.464 969.497 158.8ZM1014.57 163.344L1021.16 147.6H1025.52L1014.57 171.248L1003.63 147.6H1007.98L1014.57 163.344ZM1030.46 170V166.672H1041.75V170H1030.46ZM1030.46 150.928V147.6H1041.75V150.928H1030.46ZM1030.46 159.632V156.368H1041.11V159.632H1030.46ZM1028.12 147.6H1031.83V170H1028.12V147.6ZM1062.75 147.6H1066.47V171.12L1050.11 154.96V170H1046.4V146.48L1062.75 162.64V147.6ZM1071.43 147.6H1075.27V170H1071.43V147.6ZM1078.67 170H1073.77V166.448H1078.57C1079.68 166.448 1080.7 166.288 1081.64 165.968C1082.58 165.648 1083.39 165.168 1084.07 164.528C1084.78 163.888 1085.32 163.088 1085.71 162.128C1086.11 161.168 1086.31 160.059 1086.31 158.8C1086.31 157.541 1086.11 156.432 1085.71 155.472C1085.32 154.512 1084.78 153.712 1084.07 153.072C1083.39 152.432 1082.58 151.952 1081.64 151.632C1080.7 151.312 1079.68 151.152 1078.57 151.152H1073.77V147.6H1078.67C1080.95 147.6 1082.95 148.069 1084.68 149.008C1086.41 149.925 1087.75 151.227 1088.71 152.912C1089.69 154.576 1090.19 156.539 1090.19 158.8C1090.19 161.061 1089.69 163.035 1088.71 164.72C1087.75 166.384 1086.41 167.685 1084.68 168.624C1082.95 169.541 1080.95 170 1078.67 170ZM1096.21 170V166.672H1107.5V170H1096.21ZM1096.21 150.928V147.6H1107.5V150.928H1096.21ZM1096.21 159.632V156.368H1106.86V159.632H1096.21ZM1093.87 147.6H1097.58V170H1093.87V147.6ZM1112.15 147.6H1115.99V170H1112.15V147.6ZM1119.38 170H1114.49V166.448H1119.29C1120.4 166.448 1121.42 166.288 1122.36 165.968C1123.3 165.648 1124.11 165.168 1124.79 164.528C1125.5 163.888 1126.04 163.088 1126.42 162.128C1126.83 161.168 1127.03 160.059 1127.03 158.8C1127.03 157.541 1126.83 156.432 1126.42 155.472C1126.04 154.512 1125.5 153.712 1124.79 153.072C1124.11 152.432 1123.3 151.952 1122.36 151.632C1121.42 151.312 1120.4 151.152 1119.29 151.152H1114.49V147.6H1119.38C1121.67 147.6 1123.67 148.069 1125.4 149.008C1127.13 149.925 1128.47 151.227 1129.43 152.912C1130.41 154.576 1130.9 156.539 1130.9 158.8C1130.9 161.061 1130.41 163.035 1129.43 164.72C1128.47 166.384 1127.13 167.685 1125.4 168.624C1123.67 169.541 1121.67 170 1119.38 170ZM1137.31 158.8C1137.31 160.336 1137.63 161.712 1138.27 162.928C1138.93 164.123 1139.84 165.061 1140.99 165.744C1142.14 166.427 1143.45 166.768 1144.93 166.768C1146.42 166.768 1147.73 166.427 1148.86 165.744C1150.01 165.061 1150.91 164.123 1151.55 162.928C1152.21 161.712 1152.54 160.336 1152.54 158.8C1152.54 157.264 1152.22 155.899 1151.58 154.704C1150.94 153.488 1150.05 152.539 1148.89 151.856C1147.76 151.173 1146.44 150.832 1144.93 150.832C1143.45 150.832 1142.14 151.173 1140.99 151.856C1139.84 152.539 1138.93 153.488 1138.27 154.704C1137.63 155.899 1137.31 157.264 1137.31 158.8ZM1133.31 158.8C1133.31 157.115 1133.6 155.568 1134.17 154.16C1134.75 152.752 1135.56 151.536 1136.61 150.512C1137.67 149.467 1138.91 148.656 1140.32 148.08C1141.75 147.504 1143.28 147.216 1144.93 147.216C1146.61 147.216 1148.16 147.504 1149.57 148.08C1150.97 148.656 1152.2 149.467 1153.25 150.512C1154.31 151.536 1155.13 152.752 1155.71 154.16C1156.29 155.568 1156.57 157.115 1156.57 158.8C1156.57 160.464 1156.29 162.011 1155.71 163.44C1155.13 164.869 1154.32 166.107 1153.28 167.152C1152.23 168.197 1151 169.019 1149.57 169.616C1148.16 170.192 1146.61 170.48 1144.93 170.48C1143.26 170.48 1141.72 170.192 1140.29 169.616C1138.86 169.019 1137.62 168.197 1136.57 167.152C1135.55 166.107 1134.75 164.869 1134.17 163.44C1133.6 162.011 1133.31 160.464 1133.31 158.8ZM1164.85 159.312H1168.95L1176.53 170H1171.99L1164.85 159.312ZM1160.25 147.6H1164.02V170H1160.25V147.6ZM1162.49 150.864V147.6H1167.16C1168.78 147.6 1170.19 147.888 1171.38 148.464C1172.6 149.04 1173.54 149.851 1174.2 150.896C1174.86 151.92 1175.19 153.136 1175.19 154.544C1175.19 155.952 1174.86 157.179 1174.2 158.224C1173.54 159.269 1172.6 160.08 1171.38 160.656C1170.19 161.232 1168.78 161.52 1167.16 161.52H1162.49V158.416H1167C1167.85 158.416 1168.6 158.267 1169.24 157.968C1169.9 157.669 1170.41 157.243 1170.77 156.688C1171.14 156.112 1171.32 155.429 1171.32 154.64C1171.32 153.829 1171.14 153.147 1170.77 152.592C1170.41 152.037 1169.9 151.611 1169.24 151.312C1168.6 151.013 1167.85 150.864 1167 150.864H1162.49Z" fill="white"/>
<rect x="125" y="183" width="1702" height="9" rx="4.5" fill="#2888B1"/>
</svg>
