<svg width="28" height="32" viewBox="0 0 28 32" fill="none" xmlns="http://www.w3.org/2000/svg">
<path d="M3.5 32C2.5375 32 1.71383 31.6869 1.029 31.0608C0.344166 30.4347 0.00116667 29.6811 0 28.8V3.2C0 2.32 0.343 1.56693 1.029 0.9408C1.715 0.314667 2.53867 0.00106667 3.5 0H24.5C25.4625 0 26.2867 0.3136 26.9727 0.9408C27.6587 1.568 28.0012 2.32107 28 3.2V28.8C28 29.68 27.6576 30.4336 26.9727 31.0608C26.2879 31.688 25.4637 32.0011 24.5 32H3.5ZM5.25 25.6H22.75L16.7125 18.4L12.6875 23.2L9.975 20L5.25 25.6Z" fill="#247BA0"/>
</svg>
