<svg width="30" height="30" viewBox="0 0 30 30" fill="none" xmlns="http://www.w3.org/2000/svg">
<mask id="path-1-inside-1_5815_22462" fill="white">
<path fill-rule="evenodd" clip-rule="evenodd" d="M18.3333 0V3.33333H3.33333V26.6667H26.6667V11.6667H30V28.3333C30 28.7754 29.8244 29.1993 29.5118 29.5118C29.1993 29.8244 28.7754 30 28.3333 30H1.66667C1.22464 30 0.800716 29.8244 0.488155 29.5118C0.175595 29.1993 0 28.7754 0 28.3333V1.66667C0 1.22464 0.175595 0.800716 0.488155 0.488155C0.800716 0.175595 1.22464 0 1.66667 0H18.3333ZM28.2333 0.59L29.4117 1.76833C29.5679 1.92461 29.6557 2.13653 29.6557 2.3575C29.6557 2.57847 29.5679 2.79039 29.4117 2.94667L13.8567 18.5L10.5367 20.1333C10.4429 20.1798 10.3369 20.1957 10.2337 20.1787C10.1305 20.1618 10.0351 20.1128 9.96114 20.0389C9.88715 19.9649 9.83824 19.8695 9.8213 19.7663C9.80435 19.663 9.82022 19.5571 9.86667 19.4633L11.5 16.1433L27.055 0.588333C27.2113 0.432107 27.4232 0.344345 27.6442 0.344345C27.8651 0.344345 28.0771 0.432107 28.2333 0.588333V0.59Z"/>
</mask>
<path fill-rule="evenodd" clip-rule="evenodd" d="M18.3333 0V3.33333H3.33333V26.6667H26.6667V11.6667H30V28.3333C30 28.7754 29.8244 29.1993 29.5118 29.5118C29.1993 29.8244 28.7754 30 28.3333 30H1.66667C1.22464 30 0.800716 29.8244 0.488155 29.5118C0.175595 29.1993 0 28.7754 0 28.3333V1.66667C0 1.22464 0.175595 0.800716 0.488155 0.488155C0.800716 0.175595 1.22464 0 1.66667 0H18.3333ZM28.2333 0.59L29.4117 1.76833C29.5679 1.92461 29.6557 2.13653 29.6557 2.3575C29.6557 2.57847 29.5679 2.79039 29.4117 2.94667L13.8567 18.5L10.5367 20.1333C10.4429 20.1798 10.3369 20.1957 10.2337 20.1787C10.1305 20.1618 10.0351 20.1128 9.96114 20.0389C9.88715 19.9649 9.83824 19.8695 9.8213 19.7663C9.80435 19.663 9.82022 19.5571 9.86667 19.4633L11.5 16.1433L27.055 0.588333C27.2113 0.432107 27.4232 0.344345 27.6442 0.344345C27.8651 0.344345 28.0771 0.432107 28.2333 0.588333V0.59Z" fill="#006494"/>
<path d="M18.3333 0H22.3333V-4H18.3333V0ZM18.3333 3.33333V7.33333H22.3333V3.33333H18.3333ZM3.33333 3.33333V-0.666667H-0.666667V3.33333H3.33333ZM3.33333 26.6667H-0.666667V30.6667H3.33333V26.6667ZM26.6667 26.6667V30.6667H30.6667V26.6667H26.6667ZM26.6667 11.6667V7.66667H22.6667V11.6667H26.6667ZM30 11.6667H34V7.66667H30V11.6667ZM0 28.3333H-4H0ZM1.66667 0V-4V0ZM28.2333 0.59H24.2333V2.24685L25.4049 3.41843L28.2333 0.59ZM29.4117 1.76833L32.2405 -1.05967L32.2401 -1.06009L29.4117 1.76833ZM29.6557 2.3575H25.6557H29.6557ZM29.4117 2.94667L32.2399 5.77525L32.2405 5.77467L29.4117 2.94667ZM13.8567 18.5L15.6224 22.0892L16.2166 21.7968L16.6849 21.3286L13.8567 18.5ZM10.5367 20.1333L8.77091 16.5442L8.76088 16.5491L10.5367 20.1333ZM9.86667 19.4633L13.4509 21.2391L13.4558 21.2291L9.86667 19.4633ZM11.5 16.1433L8.67157 13.3149L8.20322 13.7833L7.91083 14.3776L11.5 16.1433ZM27.055 0.588333L24.227 -2.24052L24.2266 -2.24009L27.055 0.588333ZM28.2333 0.588333H32.2333V-1.06887L31.0613 -2.24052L28.2333 0.588333ZM14.3333 0V3.33333H22.3333V0H14.3333ZM18.3333 -0.666667H3.33333V7.33333H18.3333V-0.666667ZM-0.666667 3.33333V26.6667H7.33333V3.33333H-0.666667ZM3.33333 30.6667H26.6667V22.6667H3.33333V30.6667ZM30.6667 26.6667V11.6667H22.6667V26.6667H30.6667ZM26.6667 15.6667H30V7.66667H26.6667V15.6667ZM26 11.6667V28.3333H34V11.6667H26ZM26 28.3333C26 27.7145 26.2458 27.121 26.6834 26.6834L32.3403 32.3403C33.403 31.2776 34 29.8362 34 28.3333H26ZM26.6834 26.6834C27.121 26.2458 27.7145 26 28.3333 26V34C29.8362 34 31.2776 33.403 32.3403 32.3403L26.6834 26.6834ZM28.3333 26H1.66667V34H28.3333V26ZM1.66667 26C2.2855 26 2.87899 26.2458 3.31658 26.6834L-2.34027 32.3403C-1.27756 33.403 0.163781 34 1.66667 34V26ZM3.31658 26.6834C3.75417 27.121 4 27.7145 4 28.3333H-4C-4 29.8362 -3.40298 31.2776 -2.34027 32.3403L3.31658 26.6834ZM4 28.3333V1.66667H-4V28.3333H4ZM4 1.66667C4 2.2855 3.75417 2.879 3.31658 3.31658L-2.34027 -2.34027C-3.40298 -1.27757 -4 0.163774 -4 1.66667H4ZM3.31658 3.31658C2.879 3.75417 2.2855 4 1.66667 4V-4C0.163774 -4 -1.27757 -3.40298 -2.34027 -2.34027L3.31658 3.31658ZM1.66667 4H18.3333V-4H1.66667V4ZM25.4049 3.41843L26.5832 4.59676L32.2401 -1.06009L31.0618 -2.23843L25.4049 3.41843ZM26.5828 4.59633C25.9892 4.00251 25.6557 3.19721 25.6557 2.3575H33.6557C33.6557 1.07585 33.1466 -0.153303 32.2405 -1.05967L26.5828 4.59633ZM25.6557 2.3575C25.6557 1.51778 25.9892 0.712482 26.5828 0.118667L32.2405 5.77467C33.1466 4.86831 33.6557 3.63916 33.6557 2.3575H25.6557ZM26.5834 0.118088L11.0284 15.6714L16.6849 21.3286L32.2399 5.77525L26.5834 0.118088ZM12.0909 14.9108L8.77091 16.5442L12.3024 23.7225L15.6224 22.0892L12.0909 14.9108ZM8.76088 16.5491C9.41713 16.224 10.1589 16.1129 10.8816 16.2315L9.58577 24.1259C10.515 24.2784 11.4687 24.1356 12.3125 23.7175L8.76088 16.5491ZM10.8816 16.2315C11.6044 16.3502 12.2717 16.6925 12.7896 17.2104L7.13271 22.8673C7.79856 23.5331 8.65653 23.9733 9.58577 24.1259L10.8816 16.2315ZM12.7896 17.2104C13.3075 17.7283 13.6498 18.3956 13.7685 19.1184L5.87412 20.4142C6.02666 21.3435 6.46686 22.2014 7.13271 22.8673L12.7896 17.2104ZM13.7685 19.1184C13.8871 19.8411 13.776 20.5829 13.4509 21.2391L6.28245 17.6875C5.86441 18.5313 5.72158 19.485 5.87412 20.4142L13.7685 19.1184ZM13.4558 21.2291L15.0892 17.9091L7.91083 14.3776L6.2775 17.6976L13.4558 21.2291ZM14.3284 18.9718L29.8834 3.41676L24.2266 -2.24009L8.67157 13.3149L14.3284 18.9718ZM29.883 3.41719C29.2892 4.01085 28.4838 4.34434 27.6442 4.34434V-3.65566C26.3625 -3.65566 25.1334 -3.14664 24.227 -2.24052L29.883 3.41719ZM27.6442 4.34434C26.8045 4.34434 25.9992 4.01085 25.4053 3.41719L31.0613 -2.24052C30.1549 -3.14664 28.9258 -3.65566 27.6442 -3.65566V4.34434ZM24.2333 0.588333V0.59H32.2333V0.588333H24.2333Z" fill="#006494" mask="url(#path-1-inside-1_5815_22462)"/>
</svg>
