<svg width="32" height="32" viewBox="0 0 32 32" fill="none" xmlns="http://www.w3.org/2000/svg">
<path d="M12.9024 10.1875L13.7264 13.4995C14.5024 16.6195 14.8896 18.1804 16.0304 18.8898C17.1712 19.6009 18.6192 19.1813 21.5152 18.3458L24.5872 17.4569C27.4832 16.6213 28.9312 16.2035 29.5904 14.9751C30.2496 13.7449 29.8624 12.184 29.0848 9.06397L28.2624 5.75375C27.4864 2.63198 27.0976 1.07109 25.9584 0.361753C24.816 -0.349358 23.368 0.0701976 20.472 0.907531L17.4 1.79286C14.504 2.62842 13.056 3.04798 12.3984 4.2782C11.7392 5.50664 12.1264 7.06753 12.9024 10.1875Z" fill="#006494"/>
<path d="M1.24272 3.99645C1.28487 3.82761 1.35657 3.66965 1.4537 3.53161C1.55083 3.39357 1.6715 3.27816 1.80881 3.19197C1.94611 3.10579 2.09736 3.05052 2.2539 3.02932C2.41044 3.00813 2.56921 3.02142 2.72112 3.06845L5.44592 3.90756C6.16785 4.12595 6.82664 4.5482 7.35822 5.13324C7.8898 5.71828 8.27609 6.4462 8.47952 7.24623L11.9211 21.088L12.1739 22.0605C13.1943 22.4783 14.0542 23.2737 14.6091 24.3129L15.1051 24.1422L29.2971 20.0445C29.4497 20.0003 29.6085 19.99 29.7647 20.0141C29.9208 20.0382 30.0711 20.0962 30.2071 20.1849C30.343 20.2735 30.4619 20.3911 30.557 20.5308C30.652 20.6705 30.7214 20.8296 30.7611 20.9991C30.8008 21.1686 30.8101 21.3451 30.7884 21.5186C30.7667 21.6921 30.7145 21.8591 30.6347 22.0102C30.5549 22.1612 30.4492 22.2933 30.3234 22.399C30.1977 22.5046 30.0545 22.5817 29.9019 22.6258L15.7627 26.7076L15.2347 26.8889C15.2251 29.1467 13.8219 31.2124 11.6987 31.824C9.15472 32.56 6.53872 30.9316 5.85712 28.1902C5.17552 25.4489 6.68592 22.6276 9.22992 21.8933C9.35685 21.8578 9.48325 21.827 9.60912 21.8009L6.16592 7.95556C6.07281 7.60009 5.8987 7.27735 5.66045 7.01854C5.4222 6.75973 5.12786 6.57363 4.80592 6.47823L2.07952 5.63734C1.92759 5.59068 1.78542 5.51122 1.66114 5.40349C1.53685 5.29577 1.43288 5.16189 1.35518 5.00951C1.27747 4.85713 1.22754 4.68924 1.20824 4.51541C1.18895 4.34159 1.20066 4.16524 1.24272 3.99645Z" fill="#006494"/>
</svg>
