<svg width="32" height="32" viewBox="0 0 32 32" fill="none" xmlns="http://www.w3.org/2000/svg">
<path d="M31.6131 11.0275L28.671 8.08527C28.4336 7.85109 28.1171 7.71435 27.7839 7.70201C27.4507 7.68966 27.125 7.80262 26.8709 8.0186C26.4787 8.35246 25.9754 8.52678 25.4607 8.50702C24.9461 8.48726 24.4576 8.27487 24.0921 7.91193C23.7294 7.54648 23.5171 7.05813 23.4974 6.54359C23.4776 6.02905 23.6518 5.52586 23.9855 5.13367C24.2014 4.87961 24.3144 4.55386 24.3021 4.22063C24.2897 3.8874 24.153 3.57089 23.9188 3.33351L20.974 0.387904C20.7252 0.139507 20.3879 0 20.0363 0C19.6847 0 19.3475 0.139507 19.0986 0.387904L14.4084 5.07767C14.1189 5.36833 13.9006 5.72203 13.7704 6.11109C13.7451 6.1859 13.7029 6.25387 13.647 6.30972C13.5912 6.36556 13.5232 6.40779 13.4484 6.43312C13.0592 6.56325 12.7055 6.78189 12.415 7.07185L0.387883 19.0996C0.1395 19.3485 0 19.6857 0 20.0374C0 20.389 0.1395 20.7262 0.387883 20.9751L3.33333 23.9174C3.5707 24.1516 3.8872 24.2883 4.22041 24.3007C4.55362 24.313 4.87936 24.2 5.1334 23.9841C5.52468 23.6475 6.02867 23.4713 6.5444 23.4906C7.06013 23.51 7.54949 23.7235 7.91443 24.0885C8.27936 24.4534 8.4929 24.9428 8.51227 25.4586C8.53163 25.9743 8.35539 26.4784 8.01885 26.8697C7.80288 27.1237 7.68993 27.4495 7.70227 27.7827C7.71461 28.1159 7.85135 28.4324 8.08552 28.6698L11.0276 31.6121C11.2765 31.8605 11.6137 32 11.9653 32C12.3169 32 12.6542 31.8605 12.903 31.6121L24.9302 19.5843C25.22 19.2941 25.4387 18.9406 25.5689 18.5516C25.5941 18.4765 25.6363 18.4083 25.6923 18.3523C25.7483 18.2963 25.8165 18.2541 25.8916 18.2289C26.2804 18.0988 26.6339 17.8804 26.9243 17.5908L31.6138 12.9004C31.8613 12.6515 32.0001 12.3148 32 11.9638C31.9999 11.6129 31.8608 11.2762 31.6131 11.0275ZM16.3878 9.0507C16.2888 9.14978 16.1712 9.22838 16.0418 9.282C15.9123 9.33563 15.7736 9.36323 15.6335 9.36323C15.4934 9.36323 15.3547 9.33563 15.2252 9.282C15.0958 9.22838 14.9782 9.14978 14.8791 9.0507L14.1118 8.28329C13.9166 8.08223 13.8084 7.81243 13.8105 7.53222C13.8126 7.252 13.9248 6.98387 14.123 6.78577C14.3212 6.58766 14.5894 6.4755 14.8696 6.47351C15.1498 6.47153 15.4195 6.57988 15.6205 6.77516L16.3878 7.54189C16.4869 7.64095 16.5655 7.75856 16.6191 7.888C16.6728 8.01745 16.7004 8.15618 16.7004 8.29629C16.7004 8.4364 16.6728 8.57514 16.6191 8.70458C16.5655 8.83403 16.4869 8.95164 16.3878 9.0507ZM19.3213 11.9843C19.1213 12.1842 18.8501 12.2965 18.5673 12.2965C18.2845 12.2965 18.0133 12.1842 17.8132 11.9843L17.0799 11.2509C16.8798 11.0508 16.7674 10.7795 16.7674 10.4965C16.7674 10.2135 16.8798 9.94217 17.0799 9.74209C17.2799 9.54201 17.5513 9.42961 17.8342 9.42961C18.1172 9.42961 18.3885 9.54201 18.5886 9.74209L19.322 10.4755C19.4214 10.5745 19.5003 10.6922 19.5541 10.8219C19.608 10.9515 19.6358 11.0904 19.6358 11.2308C19.6359 11.3711 19.6082 11.5101 19.5545 11.6397C19.5008 11.7694 19.422 11.8872 19.3226 11.9863L19.3213 11.9843ZM22.2547 14.9179C22.1557 15.017 22.0381 15.0956 21.9086 15.1492C21.7792 15.2028 21.6405 15.2304 21.5004 15.2304C21.3603 15.2304 21.2215 15.2028 21.0921 15.1492C20.9627 15.0956 20.8451 15.017 20.746 14.9179L20.0127 14.1845C19.8175 13.9834 19.7093 13.7136 19.7114 13.4334C19.7135 13.1532 19.8257 12.8851 20.0239 12.687C20.2221 12.4889 20.4903 12.3767 20.7705 12.3747C21.0507 12.3727 21.3204 12.4811 21.5214 12.6764L22.2547 13.4098C22.3544 13.5087 22.4336 13.6263 22.4878 13.7558C22.5419 13.8854 22.57 14.0244 22.5703 14.1648C22.5706 14.3052 22.5432 14.4443 22.4896 14.5741C22.436 14.704 22.3573 14.8219 22.2581 14.9212L22.2547 14.9179ZM25.2169 17.8875C25.1178 17.9866 25.0002 18.0652 24.8708 18.1188C24.7413 18.1724 24.6026 18.2 24.4625 18.2C24.3224 18.2 24.1837 18.1724 24.0542 18.1188C23.9248 18.0652 23.8072 17.9866 23.7081 17.8875L22.9454 17.1208C22.8443 17.022 22.7638 16.9041 22.7086 16.7739C22.6534 16.6438 22.6246 16.5039 22.6239 16.3626C22.6233 16.2212 22.6507 16.0811 22.7046 15.9504C22.7586 15.8197 22.838 15.7011 22.9382 15.6013C23.0384 15.5016 23.1574 15.4228 23.2884 15.3695C23.4193 15.3161 23.5595 15.2894 23.7009 15.2908C23.8423 15.2921 23.982 15.3216 24.1118 15.3774C24.2417 15.4332 24.3592 15.5143 24.4575 15.616L25.2209 16.382C25.3199 16.4811 25.3984 16.5988 25.452 16.7282C25.5056 16.8577 25.5331 16.9965 25.533 17.1366C25.533 17.2767 25.5053 17.4154 25.4516 17.5448C25.398 17.6742 25.3193 17.7918 25.2202 17.8908L25.2169 17.8875Z" fill="#006494"/>
</svg>
