<svg width="32" height="32" viewBox="0 0 32 32" fill="none" xmlns="http://www.w3.org/2000/svg">
<path d="M30.3389 15.3598L16.6246 1.64553C16.0608 1.08172 15.2836 0.761719 14.476 0.761719H3.80934C3.00106 0.761719 2.22589 1.08281 1.65435 1.65435C1.08281 2.22589 0.761719 3.00106 0.761719 3.80934V14.476C0.761719 15.2836 1.08172 16.0608 1.66077 16.6246L2.28553 17.2341C3.65696 16.4112 5.24172 15.9998 6.85696 15.9998C9.28179 15.9998 11.6073 16.9631 13.3219 18.6777C15.0366 20.3923 15.9998 22.7178 15.9998 25.1427C15.9998 26.7579 15.5731 28.3274 14.7503 29.7141L15.3598 30.3236C15.9236 30.9027 16.716 31.2379 17.5236 31.2379C18.3312 31.2379 19.1084 30.9179 19.6722 30.3389L30.3389 19.6722C30.9179 19.1084 31.2379 18.3312 31.2379 17.5236C31.2379 16.716 30.9179 15.9389 30.3389 15.3598ZM6.09505 8.38077C5.48884 8.38077 4.90746 8.13995 4.47881 7.7113C4.05015 7.28264 3.80934 6.70126 3.80934 6.09505C3.80934 5.48884 4.05015 4.90746 4.47881 4.47881C4.90746 4.05015 5.48884 3.80934 6.09505 3.80934C6.70126 3.80934 7.28264 4.05015 7.7113 4.47881C8.13995 4.90746 8.38077 5.48884 8.38077 6.09505C8.38077 6.70126 8.13995 7.28264 7.7113 7.7113C7.28264 8.13995 6.70126 8.38077 6.09505 8.38077ZM12.9522 26.6665H8.38077V31.2379H5.33315V26.6665H0.761719V23.6189H5.33315V19.0474H8.38077V23.6189H12.9522V26.6665Z" fill="#006494"/>
</svg>
