<svg width="24" height="24" viewBox="0 0 24 24" fill="none" xmlns="http://www.w3.org/2000/svg">
<path d="M10.8 18H13.2V10.8H10.8V18ZM12 8.4C12.34 8.4 12.6252 8.2848 12.8556 8.0544C13.086 7.824 13.2008 7.5392 13.2 7.2C13.1992 6.8608 13.084 6.576 12.8544 6.3456C12.6248 6.1152 12.34 6 12 6C11.66 6 11.3752 6.1152 11.1456 6.3456C10.916 6.576 10.8008 6.8608 10.8 7.2C10.7992 7.5392 10.9144 7.8244 11.1456 8.0556C11.3768 8.2868 11.6616 8.4016 12 8.4ZM12 24C10.34 24 8.78 23.6848 7.32 23.0544C5.86 22.424 4.59 21.5692 3.51 20.49C2.43 19.4108 1.5752 18.1408 0.945601 16.68C0.316001 15.2192 0.000801518 13.6592 1.51899e-06 12C-0.00079848 10.3408 0.314401 8.7808 0.945601 7.32C1.5768 5.8592 2.4316 4.5892 3.51 3.51C4.5884 2.4308 5.8584 1.576 7.32 0.9456C8.7816 0.3152 10.3416 0 12 0C13.6584 0 15.2184 0.3152 16.68 0.9456C18.1416 1.576 19.4116 2.4308 20.49 3.51C21.5684 4.5892 22.4236 5.8592 23.0556 7.32C23.6876 8.7808 24.0024 10.3408 24 12C23.9976 13.6592 23.6824 15.2192 23.0544 16.68C22.4264 18.1408 21.5716 19.4108 20.49 20.49C19.4084 21.5692 18.1384 22.4244 16.68 23.0556C15.2216 23.6868 13.6616 24.0016 12 24Z" fill="#247BA0"/>
</svg>
