<svg xmlns="http://www.w3.org/2000/svg" width="48" height="48" viewBox="0 0 24 24"><path fill="#255e7e" fill-rule="evenodd" d="M14.25 2.5a.25.25 0 0 0-.25-.25H7A2.75 2.75 0 0 0 4.25 5v14A2.75 2.75 0 0 0 7 21.75h10A2.75 2.75 0 0 0 19.75 19V9.147a.25.25 0 0 0-.25-.25H15a.75.75 0 0 1-.75-.75zM12 10a2 2 0 1 0 0 4a2 2 0 0 0 0-4m-4 8.5a3 3 0 0 1 3-3h2a3 3 0 0 1 3 3a1 1 0 0 1-1 1H9a1 1 0 0 1-1-1" clip-rule="evenodd"/><path fill="#255e7e" d="M15.75 2.824c0-.184.193-.301.336-.186q.182.147.323.342l3.013 4.197c.068.096-.006.22-.124.22H16a.25.25 0 0 1-.25-.25z"/></svg>