<svg width="25" height="32" viewBox="0 0 25 32" fill="none" xmlns="http://www.w3.org/2000/svg">
<path d="M14.0229 11.4284H22.4038L14.0229 3.04743V11.4284ZM3.35621 0.761719H15.5467L24.6895 9.90458V28.1903C24.6895 28.9986 24.3685 29.7737 23.7969 30.3453C23.2254 30.9168 22.4502 31.2379 21.6419 31.2379H3.35621C2.54793 31.2379 1.77276 30.9168 1.20122 30.3453C0.629681 29.7737 0.308594 28.9986 0.308594 28.1903V3.80934C0.308594 2.11791 1.66478 0.761719 3.35621 0.761719ZM4.88002 28.1903H7.92764V19.0474H4.88002V28.1903ZM10.9753 28.1903H14.0229V15.9998H10.9753V28.1903ZM17.0705 28.1903H20.1181V22.0951H17.0705V28.1903Z" fill="#006494"/>
</svg>
