<svg xmlns="http://www.w3.org/2000/svg" width="15" height="16" viewBox="0 0 15 16" fill="none">
  <path d="M4.70099 0.553125L4.47727 1H1.49432C0.944336 1 0.5 1.44687 0.5 2C0.5 2.55312 0.944336 3 1.49432 3H13.4261C13.9761 3 14.4205 2.55312 14.4205 2C14.4205 1.44687 13.9761 1 13.4261 1H10.4432L10.2195 0.553125C10.0517 0.2125 9.70677 0 9.33079 0H5.58967C5.21369 0 4.86879 0.2125 4.70099 0.553125ZM13.4261 4H1.49432L2.15305 14.5938C2.20277 15.3844 2.85529 16 3.64142 16H11.279C12.0652 16 12.7177 15.3844 12.7674 14.5938L13.4261 4Z" fill="#D73232"/>
</svg>