<svg width="34" height="32" viewBox="0 0 34 32" fill="none" xmlns="http://www.w3.org/2000/svg">
<path d="M30.807 11.8956V1.68421C30.807 1.23753 30.6296 0.809144 30.3137 0.493294C29.9979 0.177443 29.5695 0 29.1228 0H27.4386C24.1055 3.33305 17.8436 5.19916 13.9649 6.08505V24.2307C17.8436 25.1166 24.1055 26.9827 27.4386 30.3158H29.1228C29.5695 30.3158 29.9979 30.1383 30.3137 29.8225C30.6296 29.5066 30.807 29.0783 30.807 28.6316V18.4202C31.5308 18.2341 32.1722 17.8126 32.6301 17.222C33.0881 16.6314 33.3366 15.9052 33.3366 15.1579C33.3366 14.4105 33.0881 13.6844 32.6301 13.0938C32.1722 12.5032 31.5308 12.0817 30.807 11.8956ZM3.85963 6.73684C2.96627 6.73684 2.1095 7.09173 1.4778 7.72343C0.846097 8.35513 0.491211 9.2119 0.491211 10.1053V20.2105C0.491211 21.1039 0.846097 21.9607 1.4778 22.5924C2.1095 23.2241 2.96627 23.5789 3.85963 23.5789H5.54384L7.22805 32H10.5965V6.73684H3.85963Z" fill="#006494"/>
</svg>
