<svg width="32" height="23" viewBox="0 0 32 23" fill="none" xmlns="http://www.w3.org/2000/svg">
<path d="M15.9999 0.833984C8.8888 0.833984 2.81591 5.2571 0.355469 11.5007C2.81591 17.7442 8.8888 22.1673 15.9999 22.1673C23.111 22.1673 29.1839 17.7442 31.6444 11.5007C29.1839 5.2571 23.111 0.833984 15.9999 0.833984ZM15.9999 18.6118C12.0746 18.6118 8.8888 15.426 8.8888 11.5007C8.8888 7.57532 12.0746 4.38954 15.9999 4.38954C19.9252 4.38954 23.111 7.57532 23.111 11.5007C23.111 15.426 19.9252 18.6118 15.9999 18.6118ZM15.9999 7.23398C13.639 7.23398 11.7332 9.13976 11.7332 11.5007C11.7332 13.8615 13.639 15.7673 15.9999 15.7673C18.3608 15.7673 20.2666 13.8615 20.2666 11.5007C20.2666 9.13976 18.3608 7.23398 15.9999 7.23398Z" fill="#1B98E0"/>
</svg>
