<svg width="29" height="30" viewBox="0 0 29 30" fill="none" xmlns="http://www.w3.org/2000/svg">
<path d="M14.7283 14.8697C21.4904 14.8697 28.4293 19.0831 28.8787 27.5477C28.896 27.874 28.7775 28.1935 28.5491 28.4361C28.3207 28.6787 28.0012 28.8245 27.6608 28.8415C24.0927 29.0158 7.56814 29.1226 1.79748 28.8415C1.45673 28.8249 1.1368 28.6793 0.908071 28.4367C0.679344 28.1941 0.560551 27.8743 0.577823 27.5477C1.02726 19.0847 7.96611 14.8697 14.7283 14.8697ZM14.7283 0.0742188C13.0222 0.0742188 11.386 0.72372 10.1796 1.87984C8.97321 3.03596 8.29547 4.60399 8.29547 6.23899C8.29547 7.87399 8.97321 9.44203 10.1796 10.5981C11.386 11.7543 13.0222 12.4038 14.7283 12.4038C16.4344 12.4038 18.0706 11.7543 19.277 10.5981C20.4833 9.44203 21.1611 7.87399 21.1611 6.23899C21.1611 4.60399 20.4833 3.03596 19.277 1.87984C18.0706 0.72372 16.4344 0.0742188 14.7283 0.0742188Z" fill="#247BA0"/>
</svg>
