<svg width="32" height="32" viewBox="0 0 32 32" fill="none" xmlns="http://www.w3.org/2000/svg">
<path d="M16 32C12.2667 32 8.96296 30.867 6.08889 28.6009C3.21481 26.3348 1.34815 23.4382 0.488889 19.9111C0.37037 19.4667 0.459259 19.0595 0.755555 18.6898C1.05185 18.32 1.45185 18.1049 1.95556 18.0444C2.42963 17.9852 2.85926 18.0741 3.24444 18.3111C3.62963 18.5481 3.8963 18.9037 4.04444 19.3778C4.75556 22.0444 6.22222 24.2222 8.44444 25.9111C10.6667 27.6 13.1852 28.4444 16 28.4444C19.4667 28.4444 22.4077 27.2373 24.8231 24.8231C27.2385 22.4089 28.4456 19.4678 28.4444 16C28.4433 12.5321 27.2361 9.5917 24.8231 7.17866C22.4101 4.76563 19.469 3.55792 16 3.55555C13.9556 3.55555 12.0444 4.02963 10.2667 4.97778C8.48889 5.92592 6.99259 7.22963 5.77778 8.88889H8.88889C9.39259 8.88889 9.81511 9.05955 10.1564 9.40089C10.4978 9.74222 10.6679 10.1641 10.6667 10.6667C10.6655 11.1692 10.4948 11.5917 10.1547 11.9342C9.81452 12.2767 9.39259 12.4468 8.88889 12.4444H1.77778C1.27407 12.4444 0.852148 12.2738 0.512 11.9324C0.171852 11.5911 0.00118519 11.1692 0 10.6667V3.55555C0 3.05185 0.170667 2.62993 0.512 2.28978C0.853333 1.94963 1.27526 1.77896 1.77778 1.77778C2.2803 1.77659 2.70281 1.94726 3.04533 2.28978C3.38785 2.6323 3.55793 3.05422 3.55556 3.55555V5.95555C5.06667 4.05926 6.91141 2.59259 9.08978 1.55556C11.2681 0.518518 13.5716 0 16 0C18.2222 0 20.304 0.422518 22.2453 1.26756C24.1867 2.11259 25.8756 3.25274 27.312 4.688C28.7484 6.12326 29.8892 7.81215 30.7342 9.75466C31.5793 11.6972 32.0012 13.779 32 16C31.9988 18.221 31.5769 20.3028 30.7342 22.2453C29.8916 24.1878 28.7508 25.8767 27.312 27.312C25.8732 28.7473 24.1843 29.888 22.2453 30.7342C20.3064 31.5804 18.2246 32.0024 16 32ZM17.7778 15.2889L22.2222 19.7333C22.5481 20.0593 22.7111 20.4741 22.7111 20.9778C22.7111 21.4815 22.5481 21.8963 22.2222 22.2222C21.8963 22.5481 21.4815 22.7111 20.9778 22.7111C20.4741 22.7111 20.0593 22.5481 19.7333 22.2222L14.7556 17.2444C14.5778 17.0667 14.4444 16.867 14.3556 16.6453C14.2667 16.4237 14.2222 16.1938 14.2222 15.9556V8.88889C14.2222 8.38518 14.3929 7.96326 14.7342 7.62311C15.0756 7.28296 15.4975 7.11229 16 7.11111C16.5025 7.10992 16.925 7.28059 17.2676 7.62311C17.6101 7.96563 17.7801 8.38755 17.7778 8.88889V15.2889Z" fill="#006494"/>
</svg>
