<svg width="58" height="65" viewBox="0 0 58 65" fill="none" xmlns="http://www.w3.org/2000/svg">
<path d="M27.2793 0.146561C26.9795 0.22717 26.5334 0.388388 26.292 0.505637C26.0507 0.615558 25.3778 0.981962 24.7927 1.31905C24.2077 1.65614 23.4398 2.06652 23.0887 2.2717C22.6645 2.51353 21.7503 3.04848 20.9093 3.55412C19.9 4.15502 17.0843 5.78185 16.821 5.93574C16.5578 6.08963 14.8245 7.1009 14.0419 7.55524C13.2594 8.00958 12.0088 8.73506 11.2628 9.16009C10.5168 9.59245 8.90784 10.5231 7.67917 11.2266C6.4505 11.9301 4.73914 12.9194 3.87615 13.4104C3.01316 13.9087 2.69868 14.1652 2.1136 14.5829C1.85031 14.7734 1.68942 14.9419 1.25792 15.279C1.07508 15.4183 0.724036 15.748 0.658215 15.814C0.519258 15.9679 0 16.5321 0 17.0598C0 17.5361 0.0073135 46.9216 0.109702 47.376C0.16821 47.6545 0.321794 48.1015 0.446123 48.3653C0.570453 48.6291 0.811798 49.0248 0.987322 49.2446C1.15553 49.4645 1.52852 49.8675 1.79912 50.1313C2.07703 50.3951 2.50122 50.7396 2.74256 50.9008C2.98391 51.062 3.65675 51.4797 4.24183 51.8241C4.82691 52.1685 5.79229 52.7255 6.39931 53.0699C6.99901 53.407 7.78887 53.8613 8.15455 54.0812C8.51291 54.2937 9.22232 54.6967 9.72695 54.9825C10.2316 55.261 11.0214 55.73 11.4822 56.0085C11.9429 56.2943 13.0107 56.9171 13.8591 57.4008C14.7001 57.8844 16.1848 58.7492 17.1501 59.3281C18.1155 59.8997 19.3515 60.6251 19.8927 60.9329C20.4339 61.248 21.2896 61.7463 21.7942 62.0321C22.2988 62.3253 22.8547 62.6404 23.0375 62.7283C23.2203 62.8162 23.6299 63.0654 23.9517 63.2852C24.2735 63.4977 24.9829 63.9008 25.5241 64.1793C26.0653 64.465 26.7381 64.7655 27.0234 64.8461C27.4402 64.978 27.7255 65 28.5592 65C29.3198 65 29.7367 64.9634 30.1682 64.8534C30.49 64.7802 30.958 64.6336 31.2067 64.531C31.4627 64.4211 32.055 64.1353 32.5231 63.8861C32.9985 63.637 34.1613 62.9921 35.1048 62.4498C36.0482 61.9076 37.3354 61.1747 37.957 60.823C38.5787 60.4713 39.3685 60.0169 39.7123 59.8191C40.056 59.6139 40.8605 59.1449 41.5041 58.7711C42.1477 58.3974 42.7547 58.0383 42.8571 57.965C42.9595 57.8991 43.4495 57.5986 43.9541 57.3055C44.4587 57.0124 45.607 56.3382 46.5138 55.8179C47.4207 55.2903 48.803 54.4989 49.5855 54.0592C50.368 53.6122 51.2603 53.1139 51.5601 52.9453C51.86 52.7694 52.4012 52.4617 52.7669 52.2492C53.1252 52.0366 53.9517 51.5676 54.5952 51.2012C55.2388 50.8422 55.9702 50.4025 56.2188 50.2266C56.4748 50.0507 56.8185 49.7283 56.9794 49.5158C57.1476 49.3106 57.3451 49.0101 57.4182 48.8563C57.4987 48.7097 57.6084 48.3799 57.6669 48.1235C57.7547 47.7644 57.7766 47.0682 57.7766 44.6646C57.7766 42.261 57.7766 41.5282 57.7766 41.1471C57.7766 40.7734 57.7766 39.3224 57.7766 38.8827C57.7766 38.4211 57.7766 37.1753 57.7766 36.9115C57.7766 36.4352 57.7327 36.2959 57.762 33.3794C57.7839 30.7999 57.7766 30.2283 57.7766 29.774C57.7766 29.4882 57.7766 27.6708 57.7766 27.6342C57.7766 27.5902 57.7766 25.8827 57.7766 25.487C57.7766 24.9741 57.7766 24.6516 57.7766 21.9109C57.7766 19.3974 57.7766 18.7086 57.7766 18.3641C57.7766 18.093 57.7766 17.4848 57.7766 17.0598C57.74 16.5175 57.5133 16.261 57.3451 16.0265C57.1476 15.7554 56.9063 15.5282 56.5406 15.1691C56.2335 14.8687 55.685 14.4436 55.3193 14.2238C54.9609 14.0039 54.3246 13.6375 53.9005 13.4104C53.4763 13.1759 52.7522 12.7728 52.2915 12.509C51.8307 12.2452 51.348 11.9667 51.231 11.9008C51.1067 11.8275 50.6679 11.571 50.2437 11.3219C49.8195 11.08 48.8468 10.5158 48.0862 10.0834C47.3183 9.64374 46.1701 8.98422 45.5265 8.62514C44.8829 8.25874 43.976 7.74577 43.5153 7.47463C43.0545 7.2035 42.4402 6.85175 42.1623 6.6832C41.8771 6.52198 40.8239 5.91375 39.822 5.32751C38.8127 4.74126 37.4012 3.92052 36.6772 3.50282C35.9531 3.07779 35.0609 2.5575 34.7025 2.33033C34.3369 2.10316 33.8469 1.82469 33.6055 1.70011C33.3642 1.58286 32.9327 1.33371 32.6548 1.15784C32.3695 0.974634 31.9453 0.725479 31.704 0.600902C31.4627 0.483653 31.0312 0.315107 30.7532 0.22717C30.351 0.102593 30.0658 0 29.0346 0C28.5885 0 27.762 0.0146561 27.2793 0.146561Z" fill="white"/>
<path d="M2.67663 18.4081C2.55962 18.5766 2.5523 19.478 2.57424 32.6172L2.59619 46.6431C2.80828 47.4272 3.10082 47.7716 3.48112 48.1454C3.92724 48.5851 4.40993 48.7829 5.44845 49.3985C6.17248 49.8235 7.25488 50.4537 7.8619 50.7981C8.46161 51.1426 9.25147 51.5896 9.61714 51.8094C9.9755 52.0219 10.6849 52.425 11.1895 52.7108C11.6942 52.9892 12.484 53.4582 12.9448 53.7367C13.4055 54.0152 13.8955 54.3083 14.0199 54.3816C14.1515 54.4622 14.3709 54.5794 14.4952 54.66C14.6269 54.7333 15.1388 55.0264 15.6288 55.3196C16.1262 55.6054 16.543 55.8399 16.565 55.8399C16.5869 55.8399 17.4133 56.3308 18.408 56.9244C19.4099 57.518 20.6971 58.2874 21.2822 58.6245C21.8672 58.9616 22.7522 59.4746 23.2568 59.7604C23.7614 60.0535 24.3319 60.3759 24.5367 60.4785C24.7341 60.5811 25.1803 60.8523 25.524 61.0794C25.8677 61.2993 26.5479 61.695 27.0452 61.9441C27.8863 62.3618 27.974 62.4205 28.4786 62.4351L28.8151 62.4278V55.4075C28.5006 55.4002 27.4913 55.0191 27.3524 54.9385C27.2134 54.8579 27.0452 54.748 26.9867 54.704C26.9282 54.6527 26.6649 54.4988 26.4016 54.3596C26.1383 54.213 25.758 54.0078 25.5606 53.8979C25.3558 53.788 24.7488 53.4216 24.2076 53.0845C23.6664 52.7474 23.1983 52.4689 23.1617 52.4689C23.1325 52.4689 23.0228 52.4103 22.9058 52.3297C22.7961 52.2564 22.3938 52.0146 22.0135 51.7948C21.6332 51.5676 21.0554 51.2525 20.7337 51.0766C20.4119 50.9081 19.9657 50.6589 19.7463 50.527C19.5269 50.4024 18.7151 49.9334 17.9545 49.4864C17.1866 49.0394 16.1847 48.4532 15.7239 48.182C15.2632 47.9109 14.7146 47.6031 14.5172 47.4932C14.3124 47.3833 13.8224 47.1048 13.4202 46.863C13.0179 46.6285 12.2427 46.1741 11.7015 45.8517C11.1603 45.5293 10.5021 45.1262 10.2388 44.9577C9.9755 44.7891 9.67565 44.54 9.57326 44.4007C9.47087 44.2615 9.28803 43.9684 9.17833 43.7485C9.06863 43.5287 8.92967 43.133 8.87848 42.8692C8.81997 42.6054 8.77609 41.9458 8.77609 41.3816C8.77609 40.5828 8.79803 40.3556 8.88579 40.2677C8.95161 40.2017 9.04669 40.1798 9.11982 40.2091C9.19296 40.2311 9.54401 40.4289 9.90968 40.6341C10.268 40.8466 10.9921 41.2643 11.5186 41.5648C12.0379 41.8652 12.8278 42.3196 13.2739 42.576C13.7127 42.8325 14.21 43.1183 14.3709 43.2209C14.5318 43.3235 14.9779 43.5727 15.3582 43.7705C15.7385 43.9757 16.3456 44.3275 16.7112 44.5546C17.0696 44.7818 17.4206 44.987 17.4791 45.009C17.5377 45.0309 18.0642 45.3387 18.6493 45.6905C19.2344 46.0422 19.9219 46.4526 20.1851 46.5918C20.4484 46.7384 21.0554 47.0901 21.5381 47.3759C22.0208 47.6617 22.6644 48.0428 22.9643 48.2113C23.2641 48.3799 23.9223 48.7683 24.427 49.0614C24.9316 49.3618 25.8312 49.8895 26.4382 50.2266C27.0379 50.571 27.718 50.9227 27.9374 51.0033C28.1569 51.0839 28.4567 51.0839 28.5737 51.0839C28.6834 51.0839 28.7054 51.0913 28.8151 51.0839C28.8151 50.9007 28.8151 44.0563 28.8151 44.0563C28.1057 43.9391 27.9082 43.7852 27.6449 43.6533C27.3816 43.5214 26.3139 42.9278 25.268 42.3269C24.2222 41.726 23.1179 41.0738 22.818 40.8833C22.5181 40.7001 21.9696 40.3776 21.6113 40.1798C21.2456 39.9746 20.741 39.6888 20.4777 39.5349C20.2144 39.3883 19.8195 39.1612 19.6001 39.0439C19.3807 38.9193 18.7371 38.5529 18.1739 38.2305C17.6108 37.9081 16.9818 37.5563 16.7844 37.4464C16.5796 37.3365 16.3382 37.2046 16.2359 37.1459C16.1335 37.0873 16.0018 37.0067 15.9433 36.9627C15.8848 36.9188 15.6215 36.7649 15.3582 36.6183C15.0949 36.4791 14.4733 36.12 13.9687 35.8269C13.464 35.5338 12.7254 35.1087 12.3231 34.8816C11.9209 34.6544 11.1603 34.1854 10.641 33.841C10.0413 33.4453 9.61714 33.1008 9.49281 32.925C9.38311 32.7711 9.2149 32.4633 9.11251 32.2435C9.01012 32.0236 8.87848 31.5986 8.81266 31.3055C8.75415 31.0197 8.70295 30.4774 8.70295 30.1183C8.70295 29.7519 8.73221 29.3782 8.77609 29.2756C8.81266 29.173 8.90773 29.0704 8.97355 29.0484C9.054 29.0191 9.35385 29.129 9.76341 29.3489C10.1218 29.5394 10.6849 29.8472 11.0067 30.0304C11.3285 30.2136 11.9136 30.558 12.3012 30.7925C12.6961 31.027 13.0325 31.2175 13.0545 31.2175C13.0764 31.2175 13.23 31.3055 13.3982 31.4154C13.5737 31.518 14.0711 31.8258 14.5172 32.0822C14.956 32.3461 15.5338 32.6758 15.797 32.815C16.0603 32.9543 16.4187 33.1595 16.6015 33.2694C16.7844 33.3793 17.3256 33.7017 17.8083 33.9875C18.2909 34.266 19.1101 34.7497 19.6366 35.0501C20.1559 35.3506 21.1798 35.9515 21.9038 36.3838C22.6278 36.8162 23.6298 37.4244 24.1344 37.7249C24.6391 38.0253 25.1437 38.3331 25.268 38.399C25.385 38.4723 25.6995 38.6555 25.9628 38.8167C26.2261 38.978 26.7307 39.2564 27.0964 39.4396C27.4548 39.6228 27.7546 39.7987 27.9813 39.872C28.1057 39.9086 28.1934 39.9379 28.3763 39.9379C28.5372 39.9379 28.8151 39.9379 28.8151 39.9379V32.6978C28.5006 32.6978 28.3836 32.6172 28.0837 32.5439C27.7839 32.4706 27.4182 32.3387 27.2792 32.2654C27.1403 32.1848 26.6283 31.9137 26.1456 31.6572C25.663 31.4007 25.0559 31.0636 24.7926 30.9024C24.5294 30.7412 24.0028 30.4261 23.6225 30.1989C23.2422 29.9644 22.4011 29.4734 21.7575 29.0997C21.114 28.7333 20.5216 28.3889 20.4411 28.3376C20.3607 28.2863 20.2144 28.1984 20.112 28.1324C20.0096 28.0665 19.6293 27.8539 19.271 27.6634C18.9053 27.4729 18.1374 27.0332 17.5523 26.6888C16.9672 26.3444 16.3602 25.9926 16.1993 25.912C16.0384 25.8241 15.5411 25.5383 15.1023 25.2891C14.6561 25.0326 14.0491 24.6736 13.7493 24.483C13.4494 24.2998 12.857 23.9701 12.4328 23.7429C12.0087 23.5157 10.9921 22.9368 10.1657 22.4532C9.33923 21.9622 8.53474 21.4858 8.37385 21.3833C8.21295 21.288 7.78145 21.0462 7.42309 20.8483C7.05742 20.6578 6.58204 20.3793 6.36264 20.2328C6.13592 20.0862 5.89457 19.9323 5.81412 19.881C5.73367 19.8297 5.2583 19.5512 4.75367 19.2654C4.24904 18.9723 3.70052 18.6426 3.525 18.5253C3.35679 18.4154 3.12276 18.2981 3.01305 18.2762C2.84484 18.2395 2.77902 18.2688 2.67663 18.4081Z" fill="#006494"/>
<path d="M28.0984 2.68269C27.8936 2.74132 27.6083 2.83658 27.4767 2.90253C27.3524 2.97581 26.7819 3.29092 26.2188 3.61336C25.6556 3.94312 24.917 4.35349 24.5732 4.52937C24.2295 4.70524 23.8931 4.9031 23.82 4.96905C23.7468 5.035 23.6883 5.1376 23.6956 5.18156C23.6956 5.23286 23.8053 5.36477 23.9297 5.46736C24.0613 5.56995 24.3685 5.76048 24.6098 5.89239C24.8512 6.03162 25.5752 6.44199 26.2188 6.81572C26.8624 7.18946 27.5352 7.57784 27.7181 7.68044C27.9009 7.78303 28.3616 8.04684 28.7419 8.26668C29.1222 8.48652 29.5684 8.74301 29.7293 8.83827C29.8902 8.92621 30.3509 9.19002 30.7532 9.41719C31.1554 9.65169 31.6015 9.90084 31.7405 9.98145C31.8794 10.0621 32.2085 10.2526 32.4718 10.4065C32.7351 10.553 33.7224 11.1246 34.6659 11.6669C35.6093 12.2092 36.5674 12.7588 36.7868 12.876C37.0062 13.0006 37.5693 13.3231 38.0301 13.5869C38.4908 13.858 38.8784 14.0705 38.8858 14.0705C38.9004 14.0705 39.032 14.1511 39.1783 14.2391C39.3319 14.3343 39.6025 14.4955 39.7853 14.5981C39.9682 14.7007 40.4947 14.9939 40.9555 15.2577C41.4162 15.5141 42.1549 15.9392 42.601 16.1883C43.0398 16.4448 43.7127 16.8259 44.0783 17.0457C44.4513 17.2656 44.5025 17.2875 44.5025 17.4048C44.5025 17.4927 44.3124 17.6173 44.1295 17.7126C43.9321 17.8152 41.1895 19.1928 40.4362 19.442C39.2734 19.8157 37.935 18.7825 37.7595 18.6872C37.6498 18.6286 37.0574 18.2988 36.4577 17.9471C35.8507 17.6026 34.9292 17.075 34.4099 16.7672C33.8833 16.4668 32.896 15.8952 32.2158 15.4995C31.5284 15.1038 30.9067 14.7447 30.8263 14.7007C30.7458 14.6568 30.5996 14.5615 30.4972 14.5029C30.3948 14.4369 30.1315 14.283 29.9121 14.1658C29.6927 14.0412 29.327 13.836 29.1076 13.7041C28.8882 13.5722 28.3397 13.2571 27.9009 13.0079C27.4548 12.7588 26.6503 12.2971 26.1091 11.982C25.5679 11.6742 24.9755 11.3298 24.7927 11.2272C24.6098 11.1246 24.3392 10.9634 24.1856 10.8681C24.0394 10.7802 23.9004 10.6996 23.8785 10.6996C23.8565 10.6996 23.4543 10.4651 22.9789 10.1866C22.5108 9.90084 22.1159 9.67367 22.1013 9.67367C22.094 9.67367 21.6479 9.42452 21.114 9.11674C20.5874 8.80896 19.9146 8.4279 19.6366 8.27401C19.3514 8.12012 19.0369 7.98822 18.9199 7.98822C18.8102 7.98822 18.6493 8.01753 18.5542 8.0615C18.4665 8.09814 18.0716 8.32531 17.6839 8.55248C17.289 8.78698 16.3163 9.35856 15.5265 9.82023C14.7293 10.2819 13.4714 11.0074 12.7254 11.4324C11.9794 11.8648 10.2388 12.8687 8.84924 13.6675C7.45967 14.4662 6.23832 15.1771 6.1213 15.2503C6.0116 15.3309 5.90921 15.3896 5.88727 15.3896C5.86533 15.3896 5.38264 15.6607 4.80487 15.9905C4.23442 16.3129 3.70785 16.6353 3.63471 16.7013C3.56158 16.7672 3.50307 16.8918 3.51038 16.9798C3.51038 17.0824 3.59815 17.2143 3.74442 17.3095C3.86875 17.4048 4.06621 17.5294 4.17591 17.588C4.28561 17.6466 4.53427 17.7858 4.73174 17.8884C4.92189 17.991 5.47771 18.2988 5.9604 18.5773C6.4431 18.8484 6.9331 19.1415 7.05743 19.2368C7.17444 19.3247 7.76684 19.6765 8.37386 20.0209C8.97356 20.3653 9.63178 20.7391 9.83656 20.8563C10.034 20.9662 10.5167 21.2374 10.897 21.4572C11.2773 21.6844 11.6576 21.8969 11.7381 21.9409C11.8185 21.9848 12.3451 22.2853 12.9082 22.6004C13.4714 22.9228 14.2173 23.3552 14.5684 23.575C14.9267 23.7875 15.4679 24.1026 15.7751 24.2639C16.0896 24.4324 16.3968 24.6083 16.4553 24.6523C16.5138 24.6962 16.6454 24.7768 16.7478 24.8355C16.8502 24.8941 17.4572 25.2385 18.1008 25.6122C18.7444 25.9786 19.7171 26.5429 20.2583 26.858C20.7995 27.1731 21.4284 27.5322 21.6479 27.6494C21.8673 27.774 23.3007 28.6167 24.8292 29.5327C26.3577 30.4488 27.9009 31.3648 28.2666 31.57C28.6249 31.7825 28.9833 31.951 29.0491 31.951C29.1222 31.951 29.2539 31.9144 29.3416 31.8704C29.4367 31.8191 29.839 31.57 30.2412 31.3061C30.6434 31.0497 31.0896 30.7565 31.2285 30.6686C31.3675 30.5733 31.799 30.3095 32.1793 30.075C32.5596 29.8332 32.9326 29.606 32.9984 29.5694C33.0642 29.5254 33.2763 29.4008 33.4738 29.2836C33.6639 29.1663 33.9345 28.9831 34.0662 28.8806C34.1978 28.778 34.3075 28.6534 34.3002 28.6167C34.3002 28.5728 34.2051 28.4555 34.0954 28.3383C33.9857 28.2284 33.876 28.1404 33.8394 28.1404C33.8102 28.1404 33.5835 28.0158 33.3275 27.8546C33.0788 27.7007 32.4645 27.3417 31.9599 27.0632C31.4552 26.7774 30.9287 26.4843 30.7897 26.3963C30.6508 26.3157 30.2193 26.0739 29.839 25.8541C29.4587 25.6342 28.6981 25.1945 28.1569 24.8794C27.6157 24.5643 27.0233 24.2272 26.8404 24.1246C26.6576 24.022 26.387 23.8608 26.2334 23.7656C26.0871 23.6776 25.9482 23.597 25.9262 23.597C25.9043 23.597 25.6776 23.4651 25.4143 23.3039C25.151 23.1427 24.9243 23.0108 24.9024 23.0108C24.8804 23.0108 24.7415 22.9302 24.5879 22.8422C24.4416 22.747 24.171 22.5857 23.9882 22.4831C23.8053 22.3805 23.3592 22.1241 23.0008 21.9116C22.6352 21.699 22.211 21.4499 22.0501 21.3619C21.8892 21.2667 21.4284 21.0029 21.0262 20.7757C20.624 20.5412 20.0974 20.2481 19.856 20.1162C19.6147 19.9843 19.1539 19.7205 18.8322 19.5299C18.5104 19.3321 18.035 19.0609 17.7717 18.9217C17.5084 18.7751 16.8209 18.3721 16.2359 18.0203C15.6508 17.6759 15.1681 17.3535 15.1535 17.3242C15.1462 17.2875 15.2632 17.1923 15.4094 17.1117C15.563 17.0384 15.7678 16.9138 15.8702 16.8479C15.9726 16.7819 16.3894 16.5474 16.8063 16.3349C17.2232 16.115 17.7132 15.8586 17.9033 15.756C18.2178 15.5874 18.8029 15.309 19.2636 15.3163L20.0535 15.4555C21.1286 16.0125 21.8234 16.4228 22.0867 16.584C22.3499 16.7453 22.6791 16.9431 22.818 17.0237C22.957 17.1043 23.1617 17.2216 23.2714 17.2875C23.3811 17.3535 24.2368 17.8445 25.173 18.3868C26.1091 18.929 27.2061 19.5666 27.6083 19.8084C28.0106 20.0502 28.4567 20.314 28.5957 20.3946C28.7346 20.4753 29.0637 20.6658 29.327 20.8123C29.5903 20.9589 29.9194 21.1494 30.0584 21.23C30.1973 21.3107 31.0676 21.8163 31.9964 22.3512C32.9179 22.8862 34.2051 23.6263 34.8487 24.0001C35.4923 24.3738 36.3772 24.8648 36.8233 25.0993C37.3499 25.3777 37.8034 25.5609 38.1398 25.6269C38.4177 25.6855 38.7834 25.7075 38.9443 25.6855C39.1052 25.6635 39.3831 25.6049 39.5659 25.5609C39.7487 25.517 39.9755 25.4217 40.0779 25.3631C40.1729 25.2971 40.3485 25.1945 40.4655 25.1359C40.5752 25.0773 41.1017 24.7695 41.6356 24.4544C42.1695 24.132 42.6815 23.8169 42.7839 23.7436C42.8862 23.6776 43.23 23.4871 43.5518 23.3259C43.8736 23.1647 44.2977 22.9448 44.5025 22.8276C44.7 22.7103 44.9194 22.5784 44.9779 22.5344C45.0364 22.4831 45.2704 22.3439 45.4898 22.2267C45.7092 22.1021 46.3528 21.7357 46.916 21.4059C47.4791 21.0762 47.9911 20.7757 48.0496 20.7391C48.1081 20.7024 48.5542 20.4459 49.0369 20.1748C49.5196 19.8963 50.3241 19.4347 50.8287 19.1489C51.3333 18.8631 51.9403 18.5187 52.1817 18.3868C52.423 18.2548 52.8765 18.0203 53.1836 17.8665C53.5932 17.6686 53.8126 17.588 54.0247 17.4854C54.1783 17.4048 54.5074 17.2656 54.5074 17.0604C54.5001 16.8185 54.171 16.694 53.8272 16.4888C53.4835 16.2763 52.8911 15.9392 52.5108 15.734C52.1305 15.5361 51.7356 15.3163 51.6332 15.2503C51.5308 15.1844 51.3845 15.0891 51.3041 15.0451C51.2236 14.9939 51.0408 14.8913 50.9018 14.818C50.7629 14.7447 50.4484 14.5688 50.207 14.4369C49.9657 14.305 49.717 14.1585 49.6585 14.1072C49.6 14.0559 49.2855 13.8727 48.9638 13.6895C48.642 13.5063 47.7351 12.9933 46.9525 12.5389C46.17 12.0919 45.5191 11.7255 45.5045 11.7255C45.4972 11.7255 45.1022 11.4984 44.6269 11.2199C44.1588 10.9488 43.3177 10.4578 42.7546 10.1427C42.1988 9.82756 41.6576 9.51245 41.5479 9.45383C41.4455 9.39521 41.1017 9.19735 40.7873 9.01415C40.4728 8.83094 40.1071 8.61843 39.9682 8.53782C39.8365 8.45721 39.0028 7.97356 38.1252 7.46792C37.2475 6.95496 35.9384 6.19284 35.2144 5.77514C34.4903 5.35744 33.6347 4.84447 33.3129 4.64661C32.9911 4.44876 32.4938 4.16296 32.2158 4.0164C31.9306 3.86984 31.4041 3.56206 31.0457 3.33489C30.68 3.11505 30.2193 2.86589 30.0218 2.79261C29.817 2.71933 29.3928 2.63872 29.071 2.62407C28.6907 2.59475 28.347 2.61674 28.0984 2.68269Z" fill="#29384A"/>
<path d="M53.4619 19.0081C53.0012 19.2572 52.321 19.6456 51.9626 19.8581C51.597 20.0706 51.2167 20.3051 51.0997 20.3784C50.99 20.459 50.8876 20.5176 50.8656 20.5176C50.8437 20.5176 50.7413 20.5836 50.6243 20.6569C50.5146 20.7302 49.9149 21.0892 49.2932 21.4483C48.6716 21.8074 47.8451 22.2691 47.4648 22.4742C47.0845 22.6721 46.2289 23.1631 45.5633 23.5588C44.8978 23.9545 43.9617 24.5114 43.479 24.8046C42.9963 25.0904 42.2723 25.5227 41.87 25.7572C41.4678 25.9917 40.9924 26.2702 40.8096 26.3801C40.6267 26.49 39.7418 27.0103 38.8349 27.5379C37.928 28.0582 36.853 28.6738 36.4361 28.901C36.0265 29.1281 35.6755 29.3113 35.6535 29.3113C35.6316 29.3113 35.3756 29.4506 35.0831 29.6264C34.7979 29.8023 34.4103 30.0295 34.2274 30.1321C34.0446 30.2347 33.752 30.4032 33.5692 30.4985C33.3864 30.6011 33.0573 30.7843 32.8379 30.9015C32.6184 31.0261 32.2016 31.2459 31.9237 31.3998C31.6384 31.5537 31.1338 31.8468 30.7901 32.0447C30.4463 32.2499 29.9125 32.4844 29.7223 32.5577C29.5322 32.6309 29.2616 32.6822 29.1445 32.6822L28.8154 32.6896V39.9297C29.3274 39.9224 29.7735 39.7612 30.0002 39.6586C30.2269 39.5486 30.8047 39.2335 31.324 38.9404C31.8505 38.6473 32.3698 38.3249 32.4722 38.2589C32.5746 38.1856 33.1962 37.8192 33.8617 37.4455C34.5273 37.0718 35.6609 36.4196 36.3849 35.9945C37.1089 35.5695 38.0597 35.0126 38.5058 34.7488C38.9446 34.4849 39.4931 34.1698 39.7125 34.0526C39.9319 33.928 40.4439 33.6349 40.8461 33.3931C41.2484 33.1512 41.8554 32.8068 42.1991 32.6236C42.5429 32.4404 43.2157 32.0594 43.6984 31.7809C44.1811 31.5024 45.1684 30.9162 45.8924 30.4838C46.6165 30.0515 47.9987 29.238 48.9641 28.6884C49.9295 28.1315 51.3264 27.3327 52.0723 26.9077C52.8183 26.4827 53.674 25.9844 53.9739 25.8012C54.2737 25.618 54.6467 25.3542 54.8003 25.2076C55.0051 25.0171 55.0928 24.8559 55.144 24.5994C55.1879 24.4088 55.2171 23.1924 55.2171 21.888C55.2171 20.5909 55.1806 19.3964 55.144 19.2352C55.1074 19.074 55.0709 18.8102 54.9539 18.7076C54.8442 18.605 54.5882 18.5391 54.4858 18.5391C54.3834 18.5391 53.9227 18.7516 53.4619 19.0081ZM54.0104 30.0661C53.8495 30.1174 53.44 30.3153 53.0962 30.4985C52.7525 30.6817 52.2113 30.9821 51.8895 31.158C51.5677 31.3412 51.107 31.605 50.8656 31.7442C50.6243 31.8835 49.8637 32.3305 49.1835 32.7335C48.496 33.1366 47.4648 33.7375 46.8798 34.0746C46.2947 34.4117 45.3878 34.9393 44.8686 35.2471C44.342 35.5548 43.6033 35.9872 43.223 36.1997C42.8427 36.4196 42.0309 36.8812 41.4312 37.233C40.8242 37.5847 39.4785 38.3688 38.4327 38.9844C37.3868 39.5999 36.3191 40.2448 36.0558 40.4134C35.7925 40.5819 35.4634 40.7798 35.3244 40.8457C35.1855 40.919 34.754 41.1608 34.3737 41.3807C33.9934 41.6078 33.3791 41.9596 33.0207 42.1794C32.655 42.3919 31.9164 42.8096 31.3752 43.1028C30.834 43.3959 30.205 43.7183 29.9856 43.8063C29.7662 43.9015 29.459 43.9968 29.3054 44.0261L28.8154 44.0408C28.8154 49.4122 28.8154 51.0024 28.8154 51.0684C29.342 51.0684 29.4663 51.0097 29.7223 50.8998C29.9856 50.7752 30.578 50.4748 31.0826 50.1963C31.5872 49.9252 32.1577 49.6101 32.3625 49.5002C32.5599 49.3902 33.0426 49.1044 33.4229 48.8773C33.8032 48.6428 34.8271 48.0492 35.6901 47.5582C36.5531 47.0599 37.8037 46.3344 38.4692 45.9461C39.1348 45.5503 40.2318 44.9055 40.9193 44.5171C41.5994 44.1214 42.3015 43.7183 42.4697 43.6231C42.6453 43.5351 42.9232 43.3739 43.0914 43.2786C43.2669 43.1834 43.8008 42.8756 44.2835 42.5971C44.7662 42.3113 45.3439 41.9742 45.5633 41.8423C45.7827 41.7104 46.0607 41.5419 46.185 41.4759C46.302 41.4026 46.6896 41.1755 47.0407 40.9703C47.399 40.7651 47.6989 40.5966 47.7208 40.5966C47.7428 40.5966 48.3571 40.2521 49.0884 39.8344C49.8271 39.4094 50.7559 38.8818 51.1582 38.6473C51.5604 38.4201 52.2918 37.9951 52.7818 37.7093C53.2791 37.4235 53.9373 37.0205 54.2445 36.8226C54.5516 36.6174 54.8661 36.3756 54.9392 36.273C55.0197 36.1704 55.1074 35.848 55.1513 35.5402C55.1952 35.2178 55.2171 34.0453 55.2025 32.7409L55.1806 30.4838C54.8368 30.1467 54.6394 30.0295 54.5224 30.0148C54.398 29.9928 54.1713 30.0148 54.0104 30.0661ZM53.8642 41.5052C53.7033 41.5639 53.4107 41.6958 53.2059 41.8057C53.0085 41.9156 52.3795 42.2747 51.8164 42.5971C51.2532 42.9196 50.478 43.3739 50.0977 43.6011C49.7174 43.8282 49.008 44.2459 48.5253 44.5317C48.0426 44.8175 47.0553 45.3818 46.3313 45.7995C45.6072 46.2099 44.7515 46.7082 44.4297 46.8987C44.1079 47.0892 43.3473 47.5362 42.7476 47.888C42.1406 48.2397 41.3361 48.7234 40.9558 48.9579C40.5755 49.1851 39.8515 49.6174 39.3469 49.9032C38.8422 50.1963 38.2645 50.5261 38.067 50.6433C37.8622 50.7533 37.3868 51.0244 37.0065 51.2516C36.6262 51.4714 35.5512 52.0723 34.6297 52.5853C33.7008 53.0909 32.911 53.5379 32.8744 53.5746C32.8305 53.6039 32.3698 53.8677 31.8505 54.1608C31.324 54.4466 30.6877 54.791 30.4244 54.9303C30.1611 55.0622 29.5102 55.2967 29.2542 55.3699L28.8154 55.4066C28.8154 62.2803 28.8154 62.1777 28.8154 62.4196C29.4444 62.4342 29.5614 62.3389 29.7442 62.2657C29.8905 62.207 30.4171 61.9286 30.8998 61.6867C31.3825 61.4449 32.5014 60.8294 33.3864 60.3237C34.2713 59.8254 35.2367 59.2685 35.5219 59.0926C35.8144 58.9167 36.0704 58.7702 36.0924 58.7702C36.1143 58.7702 36.7433 58.4111 37.4966 57.9787C38.2572 57.5391 39.3981 56.8722 40.0416 56.4985C40.6852 56.1247 41.2923 55.7657 41.3946 55.6924C41.497 55.6264 41.987 55.326 42.4917 55.0329C42.9963 54.7397 44.1445 54.0656 45.0514 53.5453C45.9583 53.0176 47.0407 52.3948 47.4648 52.1529C47.889 51.9111 48.3644 51.6473 48.5253 51.5593C48.6862 51.4714 49.1323 51.2223 49.5126 51.0024C49.8929 50.7826 50.6023 50.3795 51.085 50.0937C51.5677 49.8153 52.4892 49.295 53.1328 48.9286C53.7764 48.5695 54.4273 48.1811 54.5882 48.0785C54.7418 47.9759 54.9392 47.7707 55.027 47.6315C55.1733 47.3824 55.1806 47.2798 55.2025 44.9934C55.2171 43.6817 55.2025 42.4286 55.1733 42.2087C55.1367 41.901 55.0782 41.7617 54.9173 41.6005C54.7564 41.4539 54.6321 41.4026 54.4273 41.41C54.281 41.41 54.025 41.4539 53.8642 41.5052Z" fill="#214F64"/>
</svg>
