<svg xmlns="http://www.w3.org/2000/svg" width="19" height="24" viewBox="0 0 19 24" fill="none">
  <path fill-rule="evenodd" clip-rule="evenodd" d="M9.57111 22.8639C11.2659 21.7998 14.4495 17.2381 17.1162 10.6841C17.1162 5.33573 13.5345 1 9.11621 1C4.69793 1 1.11621 5.33573 1.11621 10.6841C3.24954 17.2381 6.96653 21.7998 8.66131 22.8639C8.9503 23.0454 9.28212 23.0454 9.57111 22.8639ZM9.11621 14.8344C11.0098 14.8344 12.5448 12.9763 12.5448 10.6841C12.5448 8.39195 11.0098 6.53378 9.11621 6.53378C7.22266 6.53378 5.68764 8.39195 5.68764 10.6841C5.68764 12.9763 7.22266 14.8344 9.11621 14.8344Z" stroke="black" stroke-width="2"/>
</svg>