<svg xmlns="http://www.w3.org/2000/svg" width="21" height="24" viewBox="0 0 21 24" fill="none">
  <path fill-rule="evenodd" clip-rule="evenodd" d="M10.9833 21.8763C12.784 20.9089 16.1667 16.7619 19 10.8037C19 5.94157 15.1944 2 10.5 2C5.80558 2 2 5.94157 2 10.8037C4.26667 16.7619 8.21597 20.9089 10.0167 21.8763C10.3237 22.0412 10.6763 22.0412 10.9833 21.8763ZM10.5 14.5768C12.5119 14.5768 14.1429 12.8875 14.1429 10.8037C14.1429 8.71995 12.5119 7.03071 10.5 7.03071C8.48811 7.03071 6.85714 8.71995 6.85714 10.8037C6.85714 12.8875 8.48811 14.5768 10.5 14.5768Z" stroke="#33363F" stroke-width="3"/>
</svg>