<svg xmlns="http://www.w3.org/2000/svg" width="26" height="22" viewBox="0 0 26 22" fill="none">
  <path d="M18.9267 5.68178C19.5812 5.51703 20.2785 5.60328 20.8653 5.92154C21.4521 6.2398 21.8803 6.764 22.0557 7.37883C22.2311 7.99366 22.1392 8.64876 21.8005 9.2C21.4617 9.75124 20.9037 10.1535 20.2492 10.3182C19.5947 10.483 18.8973 10.3967 18.3106 10.0785M8.0914 5.92154C7.50461 5.60328 6.80726 5.51703 6.15278 5.68178C5.4983 5.84652 4.94028 6.24876 4.6015 6.8C4.26271 7.35124 4.1709 8.00634 4.34627 8.62117C4.52164 9.236 4.94982 9.7602 5.53661 10.0785C6.12341 10.3967 6.82075 10.483 7.47523 10.3182C8.12972 10.1535 8.63541 10.049 8.9742 9.4978M18.3106 6.8C18.3106 9.45097 16.0229 11.6 13.201 11.6C10.379 11.6 8.0914 9.45097 8.0914 6.8C8.0914 4.14903 10.379 2 13.201 2C16.0229 2 18.3106 4.14903 18.3106 6.8ZM23.2505 18.8H19.4367C19.1863 17.6317 18.5208 15.8854 16.7532 14.8526C17.463 14.3462 18.3873 14 19.588 14C22.5196 14 23.8036 16.0639 24.3401 17.485C24.597 18.1653 24.0189 18.8 23.2505 18.8ZM6.81403 14C8.01471 14 8.93901 14.3462 9.64877 14.8526C7.88109 15.8854 7.21567 17.6316 6.96519 18.8H3.15144C2.38309 18.8 1.80499 18.1652 2.06185 17.485C2.59841 16.0639 3.88234 14 6.81403 14ZM13.201 14C8.63872 14 7.33531 17.0614 6.96294 18.8107C6.8246 19.4605 7.38592 20 8.0914 20H18.3106C19.016 20 19.5774 19.4605 19.439 18.8107C19.0666 17.0614 17.7632 14 13.201 14Z" stroke="#232323" stroke-width="3" stroke-linecap="round"/>
</svg>