<svg width="38" height="32" viewBox="0 0 38 32" fill="none" xmlns="http://www.w3.org/2000/svg">
<path d="M36.2523 23.3312C36.4067 22.45 36.4067 21.55 36.2523 20.6688L37.7843 19.7375C37.9624 19.6312 38.0396 19.4125 37.9803 19.2062C37.5824 17.8562 36.8995 16.6313 36.0088 15.6187C35.8722 15.4625 35.6525 15.425 35.4744 15.5312L33.9423 16.4625C33.2951 15.8812 32.5528 15.4313 31.7512 15.1313V13.2688C31.7512 13.0563 31.6086 12.8687 31.4127 12.825C30.0885 12.5125 28.7405 12.525 27.4816 12.825C27.2857 12.8687 27.1432 13.0563 27.1432 13.2688V15.1313C26.3415 15.4313 25.5993 15.8812 24.952 16.4625L23.42 15.5312C23.2478 15.425 23.0221 15.4625 22.8855 15.6187C21.9948 16.6313 21.3119 17.8562 20.9141 19.2062C20.8547 19.4125 20.9378 19.6312 21.11 19.7375L22.6421 20.6688C22.4877 21.55 22.4877 22.45 22.6421 23.3312L21.11 24.2625C20.9319 24.3688 20.8547 24.5875 20.9141 24.7938C21.3119 26.1438 21.9948 27.3625 22.8855 28.3813C23.0221 28.5375 23.2418 28.575 23.42 28.4688L24.952 27.5375C25.5993 28.1187 26.3415 28.5688 27.1432 28.8687V30.7313C27.1432 30.9438 27.2857 31.1312 27.4816 31.175C28.8058 31.4875 30.1538 31.475 31.4127 31.175C31.6086 31.1312 31.7512 30.9438 31.7512 30.7313V28.8687C32.5528 28.5688 33.2951 28.1187 33.9423 27.5375L35.4744 28.4688C35.6466 28.575 35.8722 28.5375 36.0088 28.3813C36.8995 27.3687 37.5824 26.1438 37.9803 24.7938C38.0396 24.5875 37.9565 24.3688 37.7843 24.2625L36.2523 23.3312ZM29.4531 25.0312C27.8617 25.0312 26.5731 23.6688 26.5731 22C26.5731 20.3312 27.8676 18.9688 29.4531 18.9688C31.0386 18.9688 32.3331 20.3312 32.3331 22C32.3331 23.6688 31.0445 25.0312 29.4531 25.0312ZM13.3014 16C17.4997 16 20.9022 12.4187 20.9022 8C20.9022 3.58125 17.4997 0 13.3014 0C9.10315 0 5.7006 3.58125 5.7006 8C5.7006 12.4187 9.10315 16 13.3014 16ZM25.2489 30.1562C25.1123 30.0812 24.9758 29.9937 24.8451 29.9125L24.376 30.2C24.0197 30.4125 23.6159 30.5312 23.2121 30.5312C22.5649 30.5312 21.9414 30.2437 21.496 29.7437C20.4093 28.5063 19.578 27 19.1089 25.3937C18.7823 24.2875 19.2217 23.1187 20.1718 22.5375L20.6409 22.25C20.635 22.0875 20.635 21.925 20.6409 21.7625L20.1718 21.475C19.2217 20.9 18.7823 19.725 19.1089 18.6187C19.1623 18.4375 19.2395 18.2563 19.2989 18.075C19.0733 18.0563 18.8535 18 18.622 18H17.6303C16.312 18.6375 14.8453 19 13.3014 19C11.7575 19 10.2967 18.6375 8.97251 18H7.98084C3.57475 18 0 21.7625 0 26.4V29C0 30.6562 1.2767 32 2.8503 32H23.7525C24.3523 32 24.9104 31.8 25.3677 31.4688C25.2964 31.2313 25.2489 30.9875 25.2489 30.7313V30.1562Z" fill="#1B98E0"/>
</svg>
