<svg width="55" height="48" viewBox="0 0 65 58" fill="none" xmlns="http://www.w3.org/2000/svg">
<path fill-rule="evenodd" clip-rule="evenodd" d="M0.5 50.0909C0.5 54.4567 3.56286 58 7.348 58H57.652C61.4371 58 64.5 54.4567 64.5 50.0909V39.3662C64.5005 38.7869 64.3355 38.2236 64.0306 37.7632C63.7257 37.3029 63.2978 36.9712 62.8131 36.8195C61.3255 36.3522 60.0124 35.3335 59.0762 33.9204C58.1401 32.5074 57.6329 30.7784 57.6329 29C57.6329 27.2216 58.1401 25.4926 59.0762 24.0796C60.0124 22.6665 61.3255 21.6478 62.8131 21.1805C63.2978 21.0288 63.7257 20.6971 64.0306 20.2368C64.3355 19.7764 64.5005 19.2131 64.5 18.6338V7.90909C64.5 3.54327 61.4371 0 57.652 0H7.348C3.56286 0 0.5 3.54327 0.5 7.90909V18.6127C0.500608 19.1948 0.668204 19.7603 0.976649 20.2209C1.2851 20.6816 1.71705 21.0116 2.20514 21.1595C3.70857 21.6129 5.03926 22.6284 5.98897 24.0471C6.93869 25.4658 7.45385 27.2076 7.45385 29C7.45385 30.7924 6.93869 32.5342 5.98897 33.9529C5.03926 35.3716 3.70857 36.3871 2.20514 36.8405C1.71705 36.9884 1.2851 37.3184 0.976649 37.7791C0.668204 38.2397 0.500608 38.8052 0.5 39.3873L0.5 50.0909ZM23.1834 44.5124L46.0406 18.1487C46.5507 17.5253 46.8301 16.6972 46.8196 15.8401C46.8091 14.983 46.5094 14.1643 45.9842 13.5578C45.459 12.9514 44.7496 12.6048 44.0064 12.5917C43.2633 12.5786 42.5451 12.9 42.004 13.4876L19.1469 39.8513C18.8685 40.1536 18.6457 40.5172 18.4914 40.9206C18.3371 41.3241 18.2547 41.7591 18.2488 42.2C18.243 42.6409 18.3139 43.0786 18.4574 43.4873C18.6009 43.896 18.814 44.2674 19.0842 44.5793C19.3543 44.8913 19.676 45.1375 20.0302 45.3035C20.3844 45.4695 20.7638 45.5518 21.1461 45.5455C21.5283 45.5393 21.9056 45.4446 22.2556 45.2672C22.6055 45.0897 22.921 44.833 23.1834 44.5124ZM18.8817 18.4545C18.8817 17.0561 19.3633 15.715 20.2207 14.7262C21.078 13.7373 22.2407 13.1818 23.4531 13.1818C24.6656 13.1818 25.8283 13.7373 26.6856 14.7262C27.5429 15.715 28.0246 17.0561 28.0246 18.4545C28.0246 19.853 27.5429 21.1941 26.6856 22.1829C25.8283 23.1718 24.6656 23.7273 23.4531 23.7273C22.2407 23.7273 21.078 23.1718 20.2207 22.1829C19.3633 21.1941 18.8817 19.853 18.8817 18.4545ZM37.1674 39.5455C37.1674 38.147 37.6491 36.8059 38.5064 35.8171C39.3637 34.8282 40.5264 34.2727 41.7389 34.2727C42.9513 34.2727 44.114 34.8282 44.9713 35.8171C45.8287 36.8059 46.3103 38.147 46.3103 39.5455C46.3103 40.9439 45.8287 42.285 44.9713 43.2738C44.114 44.2627 42.9513 44.8182 41.7389 44.8182C40.5264 44.8182 39.3637 44.2627 38.5064 43.2738C37.6491 42.285 37.1674 40.9439 37.1674 39.5455Z" fill="#1B98E0"/>
</svg>
