<svg width="24" height="24" viewBox="0 0 24 24" fill="none" xmlns="http://www.w3.org/2000/svg">
<path d="M11 0C10.4477 0 10 0.447715 10 1V6.58579C10 7.47669 8.92286 7.92286 8.29289 7.29289L7.70711 6.70711C7.31658 6.31658 6.68342 6.31658 6.29289 6.70711L5.70711 7.29289C5.07714 7.92286 4 7.47669 4 6.58579V1C4 0.447715 3.55228 0 3 0H1C0.447716 0 0 0.447715 0 1V23C0 23.5523 0.447716 24 1 24H17C17.5523 24 18 23.5523 18 23V1C18 0.447716 17.5523 0 17 0H11ZM24 1C24 0.447716 23.5523 0 23 0H21C20.4477 0 20 0.447715 20 1V23C20 23.5523 20.4477 24 21 24H23C23.5523 24 24 23.5523 24 23V1Z" fill="#247BA0"/>
</svg>
