<svg width="56" height="48" viewBox="0 0 49 57" fill="none" xmlns="http://www.w3.org/2000/svg">
<g clip-path="url(#clip0_5545_15072)">
<path d="M40.5 19.3337H45.8333C46.5406 19.3337 47.2189 19.6146 47.719 20.1147C48.2191 20.6148 48.5 21.2931 48.5 22.0003V54.0003C48.5 54.7076 48.2191 55.3858 47.719 55.8859C47.2189 56.386 46.5406 56.667 45.8333 56.667H3.16667C2.45942 56.667 1.78115 56.386 1.28105 55.8859C0.780951 55.3858 0.5 54.7076 0.5 54.0003V22.0003C0.5 21.2931 0.780951 20.6148 1.28105 20.1147C1.78115 19.6146 2.45942 19.3337 3.16667 19.3337H8.5V16.667C8.5 12.4235 10.1857 8.35387 13.1863 5.35328C16.1869 2.3527 20.2565 0.666992 24.5 0.666992C28.7435 0.666992 32.8131 2.3527 35.8137 5.35328C38.8143 8.35387 40.5 12.4235 40.5 16.667V19.3337ZM21.8333 39.9523V46.0003H27.1667V39.9523C28.1834 39.3653 28.9779 38.4592 29.4272 37.3745C29.8764 36.2899 29.9552 35.0873 29.6514 33.9533C29.3475 32.8193 28.678 31.8172 27.7466 31.1025C26.8152 30.3878 25.674 30.0004 24.5 30.0003C23.326 30.0004 22.1848 30.3878 21.2534 31.1025C20.322 31.8172 19.6525 32.8193 19.3486 33.9533C19.0448 35.0873 19.1236 36.2899 19.5728 37.3745C20.0221 38.4592 20.8166 39.3653 21.8333 39.9523ZM35.1667 19.3337V16.667C35.1667 13.838 34.0429 11.1249 32.0425 9.12452C30.0421 7.12413 27.329 6.00033 24.5 6.00033C21.671 6.00033 18.9579 7.12413 16.9575 9.12452C14.9571 11.1249 13.8333 13.838 13.8333 16.667V19.3337H35.1667Z" fill="#1B98E0"/>
</g>
<defs>
<clipPath id="clip0_5545_15072">
<rect width="49" height="57" fill="white"/>
</clipPath>
</defs>
</svg>
