<svg xmlns="http://www.w3.org/2000/svg" width="25" height="24" viewBox="0 0 25 24" fill="none">
    <g clip-path="url(#clip0_5344_7891)">
    <path d="M0.686097 0.0377817C0.806931 0.0034235 0.933613 -0.00765566 1.0589 0.0051781C1.18418 0.0180119 1.30561 0.0545068 1.41623 0.112575C1.52686 0.170643 1.62451 0.249146 1.7036 0.343591C1.7827 0.438037 1.84168 0.546573 1.87717 0.66299L2.58006 2.9546H21.3089C23.6603 2.9546 25.4559 5.06776 24.7786 7.27445L22.6635 14.1665C22.2137 15.636 20.7836 16.6157 19.1938 16.6157H7.49262C5.90281 16.6157 4.47403 15.636 4.0229 14.1665L0.039439 1.18605C-0.0327153 0.951361 -0.00512565 0.698684 0.116141 0.483583C0.237407 0.268482 0.44242 0.107339 0.686097 0.0377817ZM5.11174 21.2309C5.11174 20.4964 5.41469 19.7921 5.95394 19.2728C6.49319 18.7535 7.22458 18.4617 7.9872 18.4617C8.74981 18.4617 9.4812 18.7535 10.0204 19.2728C10.5597 19.7921 10.8626 20.4964 10.8626 21.2309C10.8626 21.9653 10.5597 22.6696 10.0204 23.1889C9.4812 23.7083 8.74981 24 7.9872 24C7.22458 24 6.49319 23.7083 5.95394 23.1889C5.41469 22.6696 5.11174 21.9653 5.11174 21.2309ZM15.3356 21.2309C15.3356 20.8672 15.41 20.5071 15.5545 20.1712C15.699 19.8352 15.9108 19.5299 16.1778 19.2728C16.4448 19.0157 16.7618 18.8117 17.1106 18.6725C17.4595 18.5334 17.8334 18.4617 18.211 18.4617C18.5886 18.4617 18.9626 18.5334 19.3114 18.6725C19.6603 18.8117 19.9773 19.0157 20.2443 19.2728C20.5113 19.5299 20.7231 19.8352 20.8676 20.1712C21.0121 20.5071 21.0865 20.8672 21.0865 21.2309C21.0865 21.9653 20.7835 22.6696 20.2443 23.1889C19.705 23.7083 18.9737 24 18.211 24C17.4484 24 16.717 23.7083 16.1778 23.1889C15.6385 22.6696 15.3356 21.9653 15.3356 21.2309Z" fill="#1B98E0"/>
    </g>
    <defs>
    <clipPath id="clip0_5344_7891">
        <rect width="24.9232" height="24" fill="white"/>
    </clipPath>
    </defs>
</svg>