<svg width="19" height="19" viewBox="0 0 19 19" fill="none" xmlns="http://www.w3.org/2000/svg">
<path fill-rule="evenodd" clip-rule="evenodd" d="M18.3333 9.16667C18.3333 14.2294 14.2294 18.3333 9.16667 18.3333C4.10392 18.3333 0 14.2294 0 9.16667C0 4.10392 4.10392 0 9.16667 0C14.2294 0 18.3333 4.10392 18.3333 9.16667ZM13.5795 6.94925C13.6494 6.85126 13.6994 6.74046 13.7265 6.62316C13.7536 6.50587 13.7574 6.38438 13.7375 6.26564C13.7177 6.1469 13.6747 6.03322 13.6109 5.93111C13.5472 5.82899 13.4639 5.74044 13.3659 5.6705C13.2679 5.60056 13.1571 5.55061 13.0398 5.52349C12.9225 5.49637 12.8011 5.49262 12.6823 5.51245C12.5636 5.53229 12.4499 5.57531 12.3478 5.63908C12.2457 5.70284 12.1571 5.7861 12.0872 5.88408L8.13267 11.4207L6.14808 9.43525C5.9752 9.26827 5.74365 9.17588 5.5033 9.17797C5.26295 9.18005 5.03304 9.27646 4.86308 9.44642C4.69313 9.61637 4.59672 9.84629 4.59463 10.0866C4.59254 10.327 4.68494 10.5585 4.85192 10.7314L7.60192 13.4814C7.69606 13.5754 7.80953 13.6478 7.93445 13.6935C8.05937 13.7393 8.19275 13.7573 8.32533 13.7463C8.4579 13.7353 8.5865 13.6956 8.70218 13.6299C8.81787 13.5642 8.91787 13.4741 8.99525 13.3659L13.5795 6.94925Z" fill="white"/>
</svg>
