<svg width="19" height="20" viewBox="0 0 19 20" fill="none" xmlns="http://www.w3.org/2000/svg">
<path d="M9.94857 0.25C9.67245 0.250306 9.40687 0.356036 9.20609 0.545586C9.00531 0.735136 8.88448 0.994199 8.8683 1.26984C8.85212 1.54549 8.9418 1.81691 9.11902 2.02865C9.29624 2.24039 9.54763 2.37647 9.82182 2.40908L9.94857 2.41667H15.3652C15.6306 2.4167 15.8867 2.51412 16.085 2.69044C16.2833 2.86676 16.4099 3.10973 16.441 3.37325L16.4486 3.5V16.5C16.4485 16.7653 16.3511 17.0214 16.1748 17.2197C15.9985 17.418 15.7555 17.5447 15.492 17.5758L15.3652 17.5833H10.4902C10.2141 17.5836 9.94853 17.6894 9.74775 17.8789C9.54697 18.0685 9.42615 18.3275 9.40996 18.6032C9.39378 18.8788 9.48347 19.1502 9.66069 19.362C9.83791 19.5737 10.0893 19.7098 10.3635 19.7424L10.4902 19.75H15.3652C16.1942 19.75 16.9919 19.4333 17.595 18.8646C18.1982 18.2959 18.5612 17.5182 18.6098 16.6907L18.6152 16.5V3.5C18.6153 2.67102 18.2985 1.87336 17.7298 1.27022C17.1611 0.667076 16.3835 0.30405 15.5559 0.255417L15.3652 0.25H9.94857ZM3.76598 6.16933L0.70232 9.23408C0.499226 9.43724 0.385132 9.71274 0.385132 10C0.385132 10.2873 0.499226 10.5628 0.70232 10.7659L3.76598 13.8307C3.96926 14.0338 4.24491 14.1479 4.53228 14.1478C4.81966 14.1477 5.09523 14.0334 5.29836 13.8301C5.50149 13.6268 5.61556 13.3512 5.61545 13.0638C5.61535 12.7764 5.5011 12.5009 5.29782 12.2978L4.0834 11.0833H9.94857C10.2359 11.0833 10.5114 10.9692 10.7146 10.766C10.9178 10.5629 11.0319 10.2873 11.0319 10C11.0319 9.71268 10.9178 9.43713 10.7146 9.23397C10.5114 9.0308 10.2359 8.91667 9.94857 8.91667H4.0834L5.29782 7.70225C5.5011 7.49912 5.61535 7.22355 5.61545 6.93618C5.61556 6.6488 5.50149 6.37315 5.29836 6.16988C5.09523 5.9666 4.81966 5.85234 4.53228 5.85224C4.24491 5.85214 3.96926 5.9662 3.76598 6.16933Z" fill="white"/>
</svg>
