<svg class='arrow_drop' xmlns="http://www.w3.org/2000/svg" width="12" height="8" viewBox="0 0 12 8" fill="none">
                        <path d="M11.3996 9.53674e-07H0.599332C0.489984 0.000306129 0.3828 0.0271611 0.289317 0.0776744C0.195834 0.128188 0.119594 0.200446 0.0688 0.286673C0.0180054 0.3729 -0.00541687 0.469831 0.00105381 0.567029C0.00752354 0.664228 0.0436401 0.758015 0.105517 0.838296L5.50567 7.78401C5.72948 8.072 6.26829 8.072 6.4927 7.78401L11.8929 0.838296C11.9554 0.758183 11.992 0.664349 11.9988 0.566988C12.0057 0.469627 11.9824 0.372463 11.9315 0.286054C11.8807 0.199644 11.8042 0.127292 11.7105 0.0768609C11.6167 0.0264297 11.5092 -0.000152588 11.3996 9.53674e-07Z" fill="#F9F9FC" />
                        </svg>