<svg xmlns="http://www.w3.org/2000/svg" width="18" height="18" viewBox="0 0 18 18" fill="none">
  <path d="M9 0C4.023 0 0 4.023 0 9C0 13.977 4.023 18 9 18C13.977 18 18 13.977 18 9C18 4.023 13.977 0 9 0ZM12.87 12.87C12.7867 12.9534 12.6878 13.0196 12.579 13.0648C12.4701 13.11 12.3534 13.1332 12.2355 13.1332C12.1176 13.1332 12.0009 13.11 11.892 13.0648C11.7832 13.0196 11.6843 12.9534 11.601 12.87L9 10.269L6.399 12.87C6.23072 13.0383 6.00248 13.1328 5.7645 13.1328C5.52652 13.1328 5.29828 13.0383 5.13 12.87C4.96172 12.7017 4.86718 12.4735 4.86718 12.2355C4.86718 12.1177 4.89039 12.001 4.93549 11.8921C4.98058 11.7832 5.04668 11.6843 5.13 11.601L7.731 9L5.13 6.399C4.96172 6.23072 4.86718 6.00248 4.86718 5.7645C4.86718 5.52652 4.96172 5.29828 5.13 5.13C5.29828 4.96172 5.52652 4.86718 5.7645 4.86718C6.00248 4.86718 6.23072 4.96172 6.399 5.13L9 7.731L11.601 5.13C11.6843 5.04668 11.7832 4.98058 11.8921 4.93549C12.001 4.89039 12.1177 4.86718 12.2355 4.86718C12.3533 4.86718 12.47 4.89039 12.5789 4.93549C12.6878 4.98058 12.7867 5.04668 12.87 5.13C12.9533 5.21332 13.0194 5.31224 13.0645 5.42111C13.1096 5.52998 13.1328 5.64666 13.1328 5.7645C13.1328 5.88234 13.1096 5.99902 13.0645 6.10789C13.0194 6.21676 12.9533 6.31568 12.87 6.399L10.269 9L12.87 11.601C13.212 11.943 13.212 12.519 12.87 12.87Z" fill="#1B98E0"/>
</svg>