<svg width="18" height="18" viewBox="0 0 18 18" fill="none" xmlns="http://www.w3.org/2000/svg">
<path d="M9.5 0C4.523 0 0.5 4.023 0.5 9C0.5 13.977 4.523 18 9.5 18C14.477 18 18.5 13.977 18.5 9C18.5 4.023 14.477 0 9.5 0ZM13.37 12.87C13.2867 12.9534 13.1878 13.0196 13.079 13.0648C12.9701 13.11 12.8534 13.1332 12.7355 13.1332C12.6176 13.1332 12.5009 13.11 12.392 13.0648C12.2832 13.0196 12.1843 12.9534 12.101 12.87L9.5 10.269L6.899 12.87C6.73072 13.0383 6.50248 13.1328 6.2645 13.1328C6.02652 13.1328 5.79828 13.0383 5.63 12.87C5.46172 12.7017 5.36718 12.4735 5.36718 12.2355C5.36718 12.1177 5.39039 12.001 5.43549 11.8921C5.48058 11.7832 5.54668 11.6843 5.63 11.601L8.231 9L5.63 6.399C5.46172 6.23072 5.36718 6.00248 5.36718 5.7645C5.36718 5.52652 5.46172 5.29828 5.63 5.13C5.79828 4.96172 6.02652 4.86718 6.2645 4.86718C6.50248 4.86718 6.73072 4.96172 6.899 5.13L9.5 7.731L12.101 5.13C12.1843 5.04668 12.2832 4.98058 12.3921 4.93549C12.501 4.89039 12.6177 4.86718 12.7355 4.86718C12.8533 4.86718 12.97 4.89039 13.0789 4.93549C13.1878 4.98058 13.2867 5.04668 13.37 5.13C13.4533 5.21332 13.5194 5.31224 13.5645 5.42111C13.6096 5.52998 13.6328 5.64666 13.6328 5.7645C13.6328 5.88234 13.6096 5.99902 13.5645 6.10789C13.5194 6.21676 13.4533 6.31568 13.37 6.399L10.769 9L13.37 11.601C13.712 11.943 13.712 12.519 13.37 12.87Z" fill="#D73232"/>
</svg>
