<svg width="39" height="38" viewBox="0 0 39 38" fill="none" xmlns="http://www.w3.org/2000/svg">
<rect width="39" height="38" rx="19" fill="white"/>
<path d="M22.5494 10.6031L12.7465 22.136C12.4813 22.448 12.3486 22.604 12.2574 22.7937C12.1661 22.9833 12.1206 23.1974 12.0297 23.6255L11.1255 27.8803C11.0025 28.4591 10.941 28.7485 11.0774 28.9089C11.2138 29.0694 11.4598 28.997 11.9517 28.8523L15.5683 27.7886C15.9322 27.6816 16.1142 27.6281 16.2754 27.5207C16.4366 27.4134 16.5692 27.2573 16.8344 26.9453L26.6374 15.4124C27.5458 14.3437 28 13.8093 28 13.1453C28 12.4813 27.5458 11.9469 26.6374 10.8782L26.4036 10.6031C25.4951 9.53437 25.0409 9 24.4765 9C23.9121 9 23.4579 9.53437 22.5494 10.6031Z" fill="black"/>
</svg>
