<svg xmlns="http://www.w3.org/2000/svg" width="17" height="16" viewBox="0 0 17 16" fill="none">
  <path d="M9.65063 15C9.65063 15.5523 10.0983 16 10.6506 16C11.2029 16 11.6506 15.5523 11.6506 15H9.65063ZM5.34937 15C5.34937 15.5523 5.79709 16 6.34937 16C6.90166 16 7.34937 15.5523 7.34937 15H5.34937ZM2.98216 14.5444L3.65282 13.8026L3.65282 13.8026L2.98216 14.5444ZM14.0178 14.5444L13.3472 13.8026L13.3472 13.8026L14.0178 14.5444ZM10.3478 7.22181L10.3269 8.22159L10.3478 7.22181ZM8.68263 5.87963L9.66606 5.69835V5.69834L8.68263 5.87963ZM8.69751 5.95781L9.67602 5.75161L8.69751 5.95781ZM8.31737 5.87963L7.33394 5.69834V5.69835L8.31737 5.87963ZM8.30249 5.95781L7.32398 5.75161L8.30249 5.95781ZM6.65217 7.22181L6.67308 8.22159L6.65217 7.22181ZM12.1885 5.87963L11.2051 5.69834V5.69835L12.1885 5.87963ZM12.1736 5.95781L11.1951 5.75161L12.1736 5.95781ZM10.5233 7.22181L10.5442 8.22159L10.5233 7.22181ZM4.8115 5.87963L3.82807 6.06092L3.82807 6.06092L4.8115 5.87963ZM4.82638 5.95781L5.80489 5.75161L4.82638 5.95781ZM6.4767 7.22181L6.45579 8.22159L6.4767 7.22181ZM4.51638 5.49911L5.49981 5.68039L4.51638 5.49911ZM4.559 5.31662L5.34198 5.93867L4.559 5.31662ZM4.74136 5.49911L5.72479 5.31782V5.31782L4.74136 5.49911ZM4.69874 5.31662L3.91576 5.93867L4.69874 5.31662ZM13.8684 7.18166L13.6623 8.16019L13.8684 7.18166ZM12.4836 5.49911L11.5002 5.68039L12.4836 5.49911ZM12.6701 6.26386L13.5786 5.84606L12.6701 6.26386ZM12.441 5.31662L11.658 5.93867L12.441 5.31662ZM12.2586 5.49911L13.2421 5.6804V5.68039L12.2586 5.49911ZM12.3013 5.31662L13.0842 5.93867L12.3013 5.31662ZM3.13161 7.18166L3.33771 8.16019L3.13161 7.18166ZM4.32992 6.26386L3.42138 5.84606L4.32992 6.26386ZM8.38751 5.49911L9.37094 5.6804V5.68039L8.38751 5.49911ZM8.43013 5.31662L9.21311 5.93867L8.43013 5.31662ZM8.61249 5.49911L7.62906 5.68039V5.6804L8.61249 5.49911ZM8.56987 5.31662L7.78689 5.93867L8.56987 5.31662ZM1.11703 5.92285L0.153193 5.65634L1.11703 5.92285ZM1.00125 6.49715L1.99844 6.42224L1.00125 6.49715ZM1.59482 7.18448L1.87546 6.22467L1.59482 7.18448ZM15.883 5.92285L14.9191 6.18936L15.883 5.92285ZM15.9987 6.49715L15.0016 6.42224L15.9987 6.49715ZM15.4052 7.18448L15.1245 6.22467L15.4052 7.18448ZM14.8476 2.17828L15.8114 1.91177L14.8476 2.17828ZM2.15244 2.17828L3.11627 2.44479L2.15244 2.17828ZM7.20962 11.3333H9.79038V9.33333H7.20962V11.3333ZM9.65063 11.1111V15H11.6506V11.1111H9.65063ZM5.34937 11.1111V15H7.34937V11.1111H5.34937ZM9.79038 11.3333C9.78339 11.3333 9.75859 11.3306 9.72801 11.3029C9.6958 11.2738 9.65063 11.2072 9.65063 11.1111H11.6506C11.6506 10.0368 10.7206 9.33333 9.79038 9.33333V11.3333ZM7.20962 9.33333C6.27944 9.33333 5.34937 10.0368 5.34937 11.1111H7.34937C7.34937 11.2072 7.3042 11.2738 7.27199 11.3029C7.24141 11.3306 7.21661 11.3333 7.20962 11.3333V9.33333ZM13.5218 7.22222V11.8889H15.5218V7.22222H13.5218ZM11.0808 14H5.91925V16H11.0808V14ZM3.47824 11.8889V7.22222H1.47824V11.8889H3.47824ZM5.91925 14C5.08257 14 4.54613 13.9983 4.15206 13.9504C3.77727 13.9048 3.68564 13.8323 3.65282 13.8026L2.31151 15.2862C2.78262 15.7121 3.34847 15.8674 3.91072 15.9357C4.45368 16.0017 5.13381 16 5.91925 16V14ZM1.47824 11.8889C1.47824 12.591 1.47565 13.2287 1.55211 13.7428C1.6345 14.2969 1.82599 14.8472 2.31151 15.2862L3.65282 13.8026C3.63442 13.786 3.57394 13.7418 3.53035 13.4487C3.48083 13.1156 3.47824 12.6534 3.47824 11.8889H1.47824ZM13.5218 11.8889C13.5218 12.6534 13.5192 13.1156 13.4696 13.4487C13.4261 13.7418 13.3656 13.786 13.3472 13.8026L14.6885 15.2862C15.174 14.8472 15.3655 14.2969 15.4479 13.7428C15.5243 13.2287 15.5218 12.591 15.5218 11.8889H13.5218ZM11.0808 16C11.8662 16 12.5463 16.0017 13.0893 15.9357C13.6515 15.8674 14.2174 15.7121 14.6885 15.2862L13.3472 13.8026C13.3144 13.8323 13.2227 13.9048 12.8479 13.9504C12.4539 13.9983 11.9174 14 11.0808 14V16ZM3.82157 2H13.1784V0H3.82157V2ZM13.8837 2.44479L14.9191 6.18936L16.8468 5.65634L15.8114 1.91177L13.8837 2.44479ZM2.08086 6.18936L3.11627 2.44479L1.1886 1.91177L0.153193 5.65634L2.08086 6.18936ZM5.79493 5.69835L5.72479 5.31782L3.75793 5.68039L3.82807 6.06092L5.79493 5.69835ZM11.2752 5.31782L11.2051 5.69834L13.1719 6.06092L13.2421 5.6804L11.2752 5.31782ZM7.40408 5.31782L7.33394 5.69834L9.3008 6.06092L9.37094 5.6804L7.40408 5.31782ZM9.66606 5.69834L9.59592 5.31782L7.62906 5.6804L7.6992 6.06092L9.66606 5.69834ZM10.4356 6.22222C10.3855 6.22222 10.3756 6.22217 10.3687 6.22202L10.3269 8.22159C10.3598 8.22228 10.3951 8.22222 10.4356 8.22222V6.22222ZM7.6992 6.06092C7.70558 6.0955 7.71201 6.13085 7.719 6.16401L9.67602 5.75161C9.67616 5.75229 9.67574 5.75035 9.67406 5.74145C9.67225 5.73192 9.66995 5.7194 9.66606 5.69835L7.6992 6.06092ZM10.3687 6.22202C9.95582 6.21339 9.71879 5.95458 9.67602 5.75161L7.719 6.16401C7.97984 7.40178 9.1181 8.19631 10.3269 8.22159L10.3687 6.22202ZM7.33394 5.69835C7.33005 5.7194 7.32774 5.73192 7.32594 5.74145C7.32426 5.75035 7.32384 5.75229 7.32398 5.75161L9.281 6.16401C9.28799 6.13085 9.29442 6.0955 9.3008 6.06092L7.33394 5.69835ZM6.56443 8.22222C6.60487 8.22222 6.64016 8.22228 6.67308 8.22159L6.63127 6.22202C6.62441 6.22217 6.61447 6.22222 6.56443 6.22222V8.22222ZM7.32398 5.75161C7.28121 5.95458 7.04418 6.21339 6.63127 6.22202L6.67308 8.22159C7.8819 8.19631 9.02016 7.40178 9.281 6.16401L7.32398 5.75161ZM11.2051 5.69835C11.2012 5.7194 11.1989 5.73192 11.1971 5.74145C11.1954 5.75035 11.195 5.75229 11.1951 5.75161L13.1521 6.16401C13.1591 6.13085 13.1656 6.0955 13.1719 6.06092L11.2051 5.69835ZM10.4356 8.22222C10.476 8.22222 10.5113 8.22228 10.5442 8.22159L10.5024 6.22202C10.4955 6.22217 10.4856 6.22222 10.4356 6.22222V8.22222ZM11.1951 5.75161C11.1523 5.95458 10.9153 6.21339 10.5024 6.22202L10.5442 8.22159C11.753 8.19631 12.8913 7.40178 13.1521 6.16401L11.1951 5.75161ZM3.82807 6.06092C3.83445 6.09554 3.84088 6.13085 3.84787 6.16401L5.80489 5.75161C5.80503 5.75228 5.80461 5.75033 5.80292 5.74143C5.80112 5.73191 5.79881 5.71939 5.79493 5.69835L3.82807 6.06092ZM6.56443 6.22222C6.5144 6.22222 6.50446 6.22217 6.4976 6.22202L6.45579 8.22159C6.48871 8.22228 6.524 8.22222 6.56443 8.22222V6.22222ZM3.84787 6.16401C4.10871 7.40178 5.24696 8.19631 6.45579 8.22159L6.4976 6.22202C6.08469 6.21339 5.84766 5.95458 5.80489 5.75161L3.84787 6.16401ZM5.49981 5.68039C5.50514 5.65147 5.50902 5.63045 5.51235 5.61304C5.51394 5.60469 5.51515 5.59853 5.51607 5.59398C5.517 5.58935 5.51738 5.58768 5.51727 5.58816C5.51721 5.58843 5.51616 5.5932 5.51413 5.60104C5.51224 5.60839 5.50819 5.62355 5.50171 5.64358C5.49568 5.6622 5.48379 5.69681 5.46432 5.73945C5.44675 5.77793 5.40903 5.85427 5.34198 5.93867L3.77602 4.69457C3.6543 4.84779 3.60739 5.00145 3.59891 5.02765C3.58154 5.0813 3.57053 5.12892 3.5648 5.15472C3.55329 5.20658 3.54171 5.27033 3.53295 5.31782L5.49981 5.68039ZM5.72479 5.31782C5.71603 5.27033 5.70445 5.20658 5.69293 5.15472C5.68721 5.12892 5.67619 5.0813 5.65883 5.02764C5.65035 5.00145 5.60344 4.84779 5.48172 4.69457L3.91576 5.93867C3.84871 5.85427 3.81099 5.77793 3.79342 5.73945C3.77395 5.69681 3.76206 5.6622 3.75603 5.64358C3.74955 5.62355 3.7455 5.60839 3.7436 5.60104C3.74158 5.5932 3.74053 5.58843 3.74047 5.58816C3.74036 5.58769 3.74073 5.58935 3.74167 5.59398C3.74259 5.59853 3.7438 5.60469 3.74539 5.61304C3.74872 5.63045 3.7526 5.65147 3.75793 5.68039L5.72479 5.31782ZM5.34198 5.93867C5.14466 6.18704 4.8653 6.28421 4.62887 6.28421C4.39243 6.28421 4.11308 6.18704 3.91576 5.93867L5.48172 4.69457C5.04703 4.14743 4.2107 4.14743 3.77602 4.69457L5.34198 5.93867ZM14.7489 6.22222C14.2404 6.22222 14.1396 6.21685 14.0745 6.20313L13.6623 8.16019C13.9823 8.2276 14.3402 8.22222 14.7489 8.22222V6.22222ZM11.5002 5.68039C11.5636 6.02418 11.6206 6.37517 11.7615 6.68165L13.5786 5.84606C13.5801 5.84933 13.5703 5.83057 13.5503 5.74396C13.5286 5.65048 13.5055 5.5264 13.467 5.31782L11.5002 5.68039ZM14.0745 6.20313C13.8147 6.14841 13.6468 5.99437 13.5786 5.84606L11.7615 6.68165C12.1187 7.4584 12.8429 7.98761 13.6623 8.16019L14.0745 6.20313ZM13.467 5.31782C13.4583 5.27033 13.4467 5.20658 13.4352 5.15472C13.4295 5.12892 13.4185 5.0813 13.4011 5.02765C13.3926 5.00145 13.3457 4.84779 13.224 4.69457L11.658 5.93867C11.591 5.85427 11.5533 5.77793 11.5357 5.73945C11.5162 5.69681 11.5043 5.6622 11.4983 5.64358C11.4918 5.62355 11.4878 5.60839 11.4859 5.60104C11.4838 5.5932 11.4828 5.58843 11.4827 5.58816C11.4826 5.58768 11.483 5.58935 11.4839 5.59398C11.4848 5.59853 11.4861 5.60469 11.4877 5.61304C11.491 5.63045 11.4949 5.65147 11.5002 5.68039L13.467 5.31782ZM13.2421 5.68039C13.2474 5.65147 13.2513 5.63045 13.2546 5.61304C13.2562 5.60469 13.2574 5.59853 13.2583 5.59398C13.2593 5.58935 13.2596 5.58768 13.2595 5.58816C13.2595 5.58843 13.2584 5.5932 13.2564 5.60104C13.2545 5.60839 13.2505 5.62355 13.244 5.64358C13.2379 5.6622 13.2261 5.69681 13.2066 5.73945C13.189 5.77793 13.1513 5.85427 13.0842 5.93867L11.5183 4.69457C11.3966 4.84779 11.3497 5.00145 11.3412 5.02765C11.3238 5.0813 11.3128 5.12892 11.3071 5.15472C11.2956 5.20658 11.284 5.27033 11.2752 5.31782L13.2421 5.68039ZM13.224 4.69457C12.7893 4.14743 11.953 4.14743 11.5183 4.69457L13.0842 5.93867C12.8869 6.18703 12.6076 6.28421 12.3711 6.28421C12.1347 6.28421 11.8553 6.18703 11.658 5.93867L13.224 4.69457ZM2.25106 8.22222C2.65976 8.22222 3.01765 8.2276 3.33771 8.16019L2.92551 6.20313C2.86037 6.21685 2.75963 6.22222 2.25106 6.22222V8.22222ZM3.53295 5.31782C3.4945 5.5264 3.47139 5.65048 3.44975 5.74396C3.4297 5.83057 3.41988 5.84933 3.42138 5.84606L5.23846 6.68165C5.3794 6.37517 5.43644 6.02418 5.49981 5.68039L3.53295 5.31782ZM3.33771 8.16019C4.15707 7.98761 4.88127 7.4584 5.23846 6.68165L3.42138 5.84606C3.35318 5.99437 3.18531 6.14841 2.92551 6.20313L3.33771 8.16019ZM9.37094 5.68039C9.37627 5.65147 9.38015 5.63045 9.38348 5.61304C9.38507 5.60469 9.38628 5.59853 9.3872 5.59398C9.38813 5.58935 9.38851 5.58768 9.3884 5.58816C9.38834 5.58843 9.38729 5.5932 9.38527 5.60104C9.38337 5.60839 9.37932 5.62355 9.37284 5.64358C9.36681 5.6622 9.35492 5.69681 9.33545 5.73945C9.31788 5.77793 9.28016 5.85427 9.21311 5.93867L7.64715 4.69457C7.52543 4.84779 7.47852 5.00145 7.47004 5.02765C7.45267 5.0813 7.44166 5.12892 7.43594 5.15472C7.42442 5.20658 7.41284 5.27033 7.40408 5.31782L9.37094 5.68039ZM9.59592 5.31782C9.58716 5.27033 9.57558 5.20658 9.56406 5.15472C9.55834 5.12892 9.54732 5.0813 9.52996 5.02764C9.52148 5.00145 9.47457 4.84779 9.35285 4.69457L7.78689 5.93867C7.71984 5.85427 7.68212 5.77793 7.66455 5.73945C7.64508 5.69681 7.63319 5.6622 7.62716 5.64358C7.62068 5.62355 7.61663 5.60839 7.61473 5.60104C7.61271 5.5932 7.61166 5.58843 7.6116 5.58816C7.61149 5.58769 7.61187 5.58935 7.6128 5.59398C7.61372 5.59853 7.61493 5.60469 7.61652 5.61304C7.61985 5.63045 7.62373 5.65147 7.62906 5.68039L9.59592 5.31782ZM9.21311 5.93867C9.01579 6.18703 8.73644 6.28421 8.5 6.28421C8.26356 6.28421 7.98421 6.18703 7.78689 5.93867L9.35285 4.69457C8.91817 4.14743 8.08183 4.14743 7.64715 4.69457L9.21311 5.93867ZM0.153193 5.65634C0.114587 5.79596 0.0742393 5.9405 0.0472283 6.06488C0.0196414 6.19192 -0.0111468 6.36958 0.00406229 6.57205L1.99844 6.42224C2.00446 6.50236 1.98991 6.54351 2.00168 6.48931C2.00689 6.46529 2.01529 6.43088 2.02913 6.37864C2.04295 6.32648 2.05961 6.26619 2.08086 6.18936L0.153193 5.65634ZM2.25106 6.22222C2.06604 6.22222 1.96087 6.22198 1.88486 6.21853C1.80961 6.21512 1.82636 6.21032 1.87546 6.22467L1.31417 8.14429C1.49233 8.19639 1.66148 8.21046 1.79423 8.21648C1.9262 8.22246 2.08462 8.22222 2.25106 8.22222V6.22222ZM0.00406229 6.57205C0.0628588 7.35479 0.630062 7.94426 1.31417 8.14429L1.87546 6.22467C1.89024 6.22899 1.98731 6.27406 1.99844 6.42224L0.00406229 6.57205ZM14.9191 6.18936C14.9404 6.26619 14.957 6.32648 14.9709 6.37864C14.9847 6.43088 14.9931 6.46529 14.9983 6.48931C15.0101 6.54351 14.9955 6.50235 15.0016 6.42224L16.9959 6.57205C17.0111 6.36958 16.9804 6.19192 16.9528 6.06489C16.9258 5.9405 16.8854 5.79597 16.8468 5.65634L14.9191 6.18936ZM14.7489 8.22222C14.9154 8.22222 15.0738 8.22246 15.2058 8.21648C15.3385 8.21046 15.5077 8.19639 15.6858 8.14429L15.1245 6.22467C15.1736 6.21032 15.1904 6.21512 15.1151 6.21853C15.0391 6.22198 14.934 6.22222 14.7489 6.22222V8.22222ZM15.0016 6.42224C15.0127 6.27406 15.1098 6.22899 15.1245 6.22467L15.6858 8.14429C16.3699 7.94426 16.9371 7.35479 16.9959 6.57205L15.0016 6.42224ZM13.1784 2C13.5231 2 13.7016 2.00136 13.8259 2.0148C13.9298 2.02603 13.8797 2.03599 13.8028 1.98168L14.9562 0.347777C14.6459 0.128736 14.3179 0.0563341 14.0409 0.0263848C13.7842 -0.00136256 13.4789 0 13.1784 0V2ZM15.8114 1.91177C15.7401 1.65398 15.6631 1.36828 15.5639 1.13277C15.4512 0.865406 15.2758 0.573374 14.9562 0.347777L13.8028 1.98168C13.7678 1.95697 13.7392 1.92709 13.7205 1.90142C13.7052 1.88033 13.7068 1.87599 13.7208 1.90937C13.7356 1.94433 13.7557 2.00048 13.7843 2.09477C13.813 2.18909 13.8436 2.29983 13.8837 2.44479L15.8114 1.91177ZM3.82157 0C3.52105 0 3.21577 -0.00136256 2.95912 0.0263848C2.68211 0.0563341 2.35408 0.128736 2.04379 0.347777L3.1972 1.98168C3.12026 2.03599 3.0702 2.02603 3.1741 2.0148C3.29836 2.00136 3.47694 2 3.82157 2V0ZM3.11627 2.44479C3.15635 2.29982 3.18704 2.18909 3.21566 2.09477C3.24428 2.00048 3.26444 1.94433 3.27917 1.90937C3.29324 1.87599 3.29484 1.88033 3.27949 1.90142C3.26081 1.92709 3.2322 1.95697 3.1972 1.98168L2.04379 0.347777C1.72421 0.573374 1.54876 0.865407 1.4361 1.13277C1.33687 1.36828 1.25988 1.65398 1.1886 1.91177L3.11627 2.44479Z" fill="#33363F"/>
</svg>