<svg xmlns="http://www.w3.org/2000/svg" width="25" height="24" viewBox="0 0 25 24" fill="none">
  <path d="M1.5 7.51679C1.5 6.19399 1.50113 5.29056 1.55728 4.59131C1.61208 3.90882 1.71197 3.5527 1.83795 3.30114C2.13462 2.70873 2.6055 2.23193 3.17876 1.93474C3.41722 1.81111 3.7577 1.71097 4.42282 1.65567C5.10623 1.59886 5.99048 1.59766 7.29185 1.59766H17.0143C18.3157 1.59766 19.1999 1.59886 19.8833 1.65567C20.5485 1.71097 20.8889 1.81111 21.1274 1.93474C21.7007 2.23193 22.1715 2.70873 22.4682 3.30114C22.5942 3.5527 22.6941 3.90882 22.7489 4.59131C22.805 5.29056 22.8062 6.19399 22.8062 7.51679V11.2264C22.8062 12.5492 22.805 13.4526 22.7489 14.1518C22.6941 14.8343 22.5942 15.1904 22.4682 15.442C22.1715 16.0344 21.7007 16.5112 21.1274 16.8084C20.8889 16.932 20.5485 17.0322 19.8833 17.0875C19.1999 17.1443 18.3157 17.1455 17.0143 17.1455H6.70579C5.89661 17.1455 5.12592 17.4728 4.5618 18.0468L1.5 21.162V7.51679Z" stroke="#222222" stroke-width="3" stroke-linecap="round" stroke-linejoin="round"/>
</svg>