<svg xmlns="http://www.w3.org/2000/svg" width="30" height="28" viewBox="0 0 30 28" fill="none">
  <path d="M28.0172 0H2.0059C1.57693 0.0030528 1.16644 0.167512 0.86311 0.457846C0.559777 0.748181 0.387955 1.14108 0.384766 1.55167V26.4483C0.387955 26.8589 0.559777 27.2518 0.86311 27.5422C1.16644 27.8325 1.57693 27.9969 2.0059 28H16.011V17.1733H12.2081V12.9383H16.011V9.82333C16.011 6.20667 18.3147 4.235 21.7033 4.235C22.8369 4.235 23.9704 4.235 25.104 4.39833V8.16667H22.7759C20.9354 8.16667 20.5819 9.00667 20.5819 10.2317V12.9267H24.9699L24.397 17.1617H20.5819V28H28.0172C28.4461 27.9969 28.8566 27.8325 29.16 27.5422C29.4633 27.2518 29.6351 26.8589 29.6383 26.4483V1.55167C29.6351 1.14108 29.4633 0.748181 29.16 0.457846C28.8566 0.167512 28.4461 0.0030528 28.0172 0Z" fill="black"/>
</svg>