<svg xmlns="http://www.w3.org/2000/svg" width="24" height="28" viewBox="0 0 24 28" fill="none">
  <mask id="path-1-inside-1_2632_9392" fill="white">
    <path d="M0 6.5354C0 3.5577 0 2.06886 0.97719 1.1438C1.95438 0.21875 3.52714 0.21875 6.67267 0.21875H16.6817C19.8272 0.21875 21.4 0.21875 22.3772 1.1438C23.3543 2.06886 23.3543 3.55771 23.3543 6.5354V20.7479C23.3543 23.7256 23.3543 25.2144 22.3772 26.1395C21.4 27.0645 19.8272 27.0645 16.6817 27.0645H6.67267C3.52714 27.0645 1.95438 27.0645 0.97719 26.1395C0 25.2144 0 23.7256 0 20.7479V6.5354Z"/>
  </mask>
  <path d="M6.67267 6.61457C5.84424 6.61457 5.17267 7.28614 5.17267 8.11457C5.17267 8.943 5.84424 9.61457 6.67267 9.61457V6.61457ZM16.6817 9.61457C17.5101 9.61457 18.1817 8.943 18.1817 8.11457C18.1817 7.28614 17.5101 6.61457 16.6817 6.61457V9.61457ZM6.67267 12.9312C5.84424 12.9312 5.17267 13.6028 5.17267 14.4312C5.17267 15.2597 5.84424 15.9312 6.67267 15.9312V12.9312ZM16.6817 15.9312C17.5101 15.9312 18.1817 15.2597 18.1817 14.4312C18.1817 13.6028 17.5101 12.9312 16.6817 12.9312V15.9312ZM6.67267 19.2479C5.84424 19.2479 5.17267 19.9195 5.17267 20.7479C5.17267 21.5763 5.84424 22.2479 6.67267 22.2479V19.2479ZM13.3453 22.2479C14.1738 22.2479 14.8453 21.5763 14.8453 20.7479C14.8453 19.9195 14.1738 19.2479 13.3453 19.2479V22.2479ZM6.67267 9.61457H16.6817V6.61457H6.67267V9.61457ZM6.67267 15.9312H16.6817V12.9312H6.67267V15.9312ZM6.67267 22.2479H13.3453V19.2479H6.67267V22.2479ZM6.67267 3.21875H16.6817V-2.78125H6.67267V3.21875ZM20.3543 6.5354V20.7479H26.3543V6.5354H20.3543ZM16.6817 24.0645H6.67267V30.0645H16.6817V24.0645ZM3 20.7479V6.5354H-3V20.7479H3ZM6.67267 24.0645C5.01951 24.0645 4.06553 24.0588 3.39057 23.9729C2.7858 23.8959 2.87282 23.803 3.03959 23.9608L-1.08521 28.3181C0.0587491 29.4011 1.42074 29.7706 2.63304 29.9249C3.77514 30.0703 5.1803 30.0645 6.67267 30.0645V24.0645ZM-3 20.7479C-3 22.1473 -3.00709 23.5154 -2.84805 24.6353C-2.67423 25.8591 -2.25239 27.2132 -1.08521 28.3181L3.03959 23.9608C3.22958 24.1407 3.16283 24.2879 3.09234 23.7916C3.00709 23.1913 3 22.3262 3 20.7479H-3ZM20.3543 20.7479C20.3543 22.3262 20.3472 23.1913 20.262 23.7916C20.1915 24.2879 20.1248 24.1407 20.3147 23.9608L24.4396 28.3181C25.6067 27.2132 26.0286 25.8591 26.2024 24.6353C26.3614 23.5154 26.3543 22.1473 26.3543 20.7479H20.3543ZM16.6817 30.0645C18.174 30.0645 19.5792 30.0703 20.7213 29.9249C21.9336 29.7706 23.2956 29.4011 24.4396 28.3181L20.3147 23.9608C20.4815 23.803 20.5685 23.8959 19.9638 23.9729C19.2888 24.0588 18.3348 24.0645 16.6817 24.0645V30.0645ZM16.6817 3.21875C18.3348 3.21875 19.2888 3.22447 19.9638 3.31038C20.5685 3.38735 20.4815 3.48032 20.3147 3.32245L24.4396 -1.03484C23.2956 -2.11777 21.9336 -2.48732 20.7213 -2.64161C19.5792 -2.78697 18.174 -2.78125 16.6817 -2.78125V3.21875ZM26.3543 6.5354C26.3543 5.136 26.3614 3.7679 26.2024 2.64802C26.0286 1.42421 25.6067 0.0700578 24.4396 -1.03484L20.3147 3.32245C20.1248 3.1426 20.1915 2.9954 20.262 3.4917C20.3472 4.09194 20.3543 4.9571 20.3543 6.5354H26.3543ZM6.67267 -2.78125C5.1803 -2.78125 3.77514 -2.78697 2.63304 -2.64161C1.42074 -2.48732 0.0587494 -2.11777 -1.08521 -1.03484L3.03959 3.32245C2.87282 3.48032 2.7858 3.38735 3.39057 3.31038C4.06553 3.22447 5.01951 3.21875 6.67267 3.21875V-2.78125ZM3 6.5354C3 4.9571 3.00709 4.09194 3.09234 3.4917C3.16283 2.9954 3.22958 3.1426 3.03959 3.32245L-1.08521 -1.03484C-2.25239 0.070058 -2.67423 1.42421 -2.84805 2.64802C-3.00709 3.7679 -3 5.136 -3 6.5354H3Z" fill="#006494" mask="url(#path-1-inside-1_2632_9392)"/>
</svg>