<svg xmlns="http://www.w3.org/2000/svg" width="29" height="30" viewBox="0 0 29 30" fill="none">
  <path d="M14.7293 14.8697C21.4914 14.8697 28.4303 19.0831 28.8797 27.5477C28.897 27.874 28.7784 28.1935 28.5501 28.4361C28.3217 28.6787 28.0022 28.8245 27.6618 28.8415C24.0937 29.0158 7.56911 29.1226 1.79846 28.8415C1.4577 28.8249 1.13778 28.6793 0.909048 28.4367C0.680321 28.1941 0.561528 27.8743 0.578799 27.5477C1.02824 19.0847 7.96709 14.8697 14.7293 14.8697ZM14.7293 0.0742188C13.0232 0.0742188 11.387 0.72372 10.1806 1.87984C8.97419 3.03596 8.29645 4.60399 8.29645 6.23899C8.29645 7.87399 8.97419 9.44203 10.1806 10.5981C11.387 11.7543 13.0232 12.4038 14.7293 12.4038C16.4353 12.4038 18.0716 11.7543 19.2779 10.5981C20.4843 9.44203 21.1621 7.87399 21.1621 6.23899C21.1621 4.60399 20.4843 3.03596 19.2779 1.87984C18.0716 0.72372 16.4353 0.0742188 14.7293 0.0742188Z" fill="#006494"/>
</svg>