<svg width="780" height="830" viewBox="0 0 780 830" fill="none" xmlns="http://www.w3.org/2000/svg">
<path d="M368.271 1.87148C364.223 2.90079 358.2 4.95941 354.942 6.4566C351.684 7.8602 342.601 12.5389 334.702 16.8433C326.804 21.1477 316.437 26.3878 311.698 29.0079C305.971 32.0958 293.629 38.9267 282.275 45.3833C268.65 53.0564 230.638 73.8298 227.084 75.7948C223.53 77.7599 200.13 90.6731 189.566 96.4746C179.001 102.276 162.118 111.54 152.048 116.967C141.977 122.488 120.256 134.372 103.669 143.355C87.0818 152.338 63.9785 164.971 52.3281 171.24C40.6777 177.603 36.4322 180.878 28.5336 186.212C24.9792 188.645 22.8071 190.797 16.9819 195.101C14.5136 196.879 9.77449 201.09 8.8859 201.932C7.00998 203.897 0 211.103 0 217.84C0 223.922 0.0987322 599.153 1.48098 604.955C2.27084 608.511 4.34421 614.219 6.02266 617.587C7.70111 620.956 10.9593 626.009 13.3288 628.816C15.5997 631.623 20.635 636.77 24.2881 640.139C28.0399 643.507 33.7664 647.905 37.0246 649.964C40.2827 652.023 49.3661 657.356 57.2647 661.754C65.1632 666.152 78.1959 673.264 86.3907 677.662C94.4867 681.966 105.15 687.768 110.086 690.575C114.924 693.289 124.501 698.435 131.314 702.085C138.126 705.64 148.789 711.629 155.01 715.185C161.23 718.834 175.645 726.788 187.097 732.964C198.452 739.14 218.494 750.181 231.527 757.574C244.56 764.873 261.245 774.136 268.552 778.067C275.858 782.09 287.409 788.453 294.222 792.103C301.034 795.846 308.538 799.869 311.006 800.992C313.475 802.115 319.004 805.297 323.348 808.104C327.692 810.817 337.269 815.964 344.575 819.52C351.882 823.169 360.965 827.006 364.815 828.035C370.443 829.719 374.294 830 385.549 830C395.817 830 401.445 829.532 407.27 828.129C411.614 827.193 417.933 825.321 421.29 824.011C424.746 822.608 432.743 818.958 439.062 815.777C445.48 812.595 461.178 804.361 473.914 797.436C486.651 790.512 504.028 781.154 512.42 776.663C520.812 772.171 531.475 766.37 536.116 763.843C540.756 761.223 551.617 755.234 560.305 750.462C568.994 745.69 577.188 741.105 578.571 740.169C579.953 739.327 586.568 735.49 593.38 731.747C600.193 728.005 615.694 719.396 627.937 712.752C640.179 706.015 658.84 695.909 669.404 690.294C679.969 684.586 692.014 678.223 696.062 676.071C700.11 673.825 707.416 669.895 712.353 667.182C717.191 664.468 728.347 658.479 737.036 653.8C745.724 649.215 755.597 643.601 758.954 641.355C762.41 639.109 767.05 634.992 769.222 632.279C771.493 629.658 774.159 625.822 775.146 623.857C776.232 621.985 777.713 617.775 778.503 614.499C779.688 609.914 779.984 601.025 779.984 570.333C779.984 539.64 779.984 530.283 779.984 525.417C779.984 520.645 779.984 502.117 779.984 496.503C779.984 490.608 779.984 474.7 779.984 471.331C779.984 465.249 779.392 463.471 779.787 426.229C780.083 393.291 779.984 385.992 779.984 380.191C779.984 376.541 779.984 353.335 779.984 352.867C779.984 352.306 779.984 330.503 779.984 325.45C779.984 318.9 779.984 314.782 779.984 279.786C779.984 247.69 779.984 238.894 779.984 234.496C779.984 231.034 779.984 223.267 779.984 217.84C779.491 210.915 776.43 207.64 774.159 204.646C771.493 201.184 768.235 198.283 763.298 193.698C759.152 189.861 751.747 184.434 746.81 181.627C741.972 178.82 733.383 174.141 727.656 171.24C721.93 168.246 712.155 163.099 705.935 159.731C699.715 156.362 693.199 152.806 691.619 151.964C689.94 151.028 684.017 147.753 678.29 144.572C672.564 141.484 659.432 134.278 649.164 128.758C638.797 123.143 623.296 114.722 614.608 110.136C605.919 105.458 593.677 98.9076 587.456 95.4453C581.236 91.9831 572.943 87.4915 569.191 85.3393C565.34 83.2807 551.123 75.5141 537.597 68.0282C523.972 60.5423 504.916 50.062 495.142 44.7283C485.367 39.301 473.322 32.6573 468.484 29.7565C463.548 26.8557 456.933 23.2999 453.674 21.7091C450.416 20.2119 444.591 17.0304 440.839 14.7847C436.989 12.4453 431.262 9.26381 428.004 7.67306C424.746 6.17587 418.921 4.02367 415.169 2.90079C409.739 1.31003 405.888 0 391.967 0C385.944 0 374.787 0.187148 368.271 1.87148Z" fill="white"/>
<path d="M36.1355 235.056C34.5558 237.208 34.4571 248.718 34.7533 416.496L35.0495 595.596C37.9127 605.609 41.862 610.007 46.9961 614.779C53.0187 620.393 59.5351 622.92 73.555 630.78C83.3295 636.207 97.9419 644.255 106.137 648.653C114.233 653.051 124.896 658.759 129.832 661.566C134.67 664.279 144.247 669.426 151.06 673.075C157.872 676.631 168.535 682.62 174.756 686.176C180.976 689.731 187.591 693.474 189.269 694.41C191.046 695.439 194.008 696.937 195.687 697.966C197.464 698.902 204.375 702.645 210.99 706.388C217.704 710.037 223.332 713.031 223.628 713.031C223.924 713.031 235.081 719.301 248.508 726.88C262.035 734.46 279.412 744.285 287.31 748.589C295.209 752.894 307.155 759.444 313.968 763.093C320.78 766.836 328.482 770.954 331.246 772.264C333.912 773.574 339.934 777.036 344.575 779.937C349.215 782.744 358.397 787.797 365.111 790.978C376.465 796.312 377.65 797.061 384.463 797.248L389.004 797.154V707.51C384.759 707.417 371.134 702.551 369.258 701.522C367.382 700.492 365.111 699.089 364.321 698.527C363.531 697.872 359.977 695.907 356.423 694.129C352.868 692.258 347.734 689.638 345.069 688.234C342.304 686.831 334.109 682.152 326.803 677.848C319.497 673.543 313.178 669.987 312.684 669.987C312.289 669.987 310.808 669.239 309.229 668.209C307.748 667.274 302.318 664.186 297.183 661.379C292.049 658.478 284.249 654.454 279.905 652.208C275.561 650.056 269.538 646.875 266.576 645.19C263.614 643.6 252.655 637.611 242.387 631.903C232.02 626.195 218.494 618.709 212.274 615.247C206.054 611.784 198.649 607.854 195.983 606.451C193.218 605.047 186.603 601.491 181.173 598.403C175.743 595.409 165.277 589.607 157.971 585.49C150.665 581.373 141.779 576.226 138.225 574.074C134.67 571.922 130.622 568.741 129.24 566.963C127.858 565.185 125.389 561.442 123.908 558.634C122.427 555.827 120.552 550.774 119.86 547.406C119.071 544.037 118.478 535.615 118.478 528.41C118.478 518.211 118.774 515.31 119.959 514.187C120.848 513.345 122.131 513.064 123.119 513.438C124.106 513.719 128.845 516.246 133.782 518.866C138.62 521.579 148.394 526.913 155.503 530.75C162.513 534.586 173.176 540.388 179.198 543.663C185.122 546.938 191.836 550.587 194.008 551.897C196.18 553.207 202.203 556.389 207.337 558.915C212.471 561.535 220.666 566.027 225.603 568.928C230.44 571.828 235.18 574.448 235.969 574.729C236.759 575.01 243.868 578.94 251.767 583.432C259.665 587.923 268.946 593.163 272.5 594.941C276.055 596.813 284.25 601.304 290.766 604.954C297.282 608.603 305.971 613.469 310.019 615.621C314.067 617.773 322.953 622.733 329.765 626.476C336.578 630.312 348.722 637.049 356.916 641.354C365.012 645.752 374.195 650.243 377.156 651.273C380.118 652.302 384.167 652.302 385.746 652.302C387.227 652.302 387.523 652.395 389.004 652.302C389.004 649.963 389.004 562.565 389.004 562.565C379.427 561.067 376.762 559.102 373.207 557.418C369.653 555.734 355.238 548.154 341.119 540.481C327.001 532.808 312.092 524.48 308.044 522.047C303.996 519.708 296.591 515.591 291.753 513.064C286.817 510.444 280.004 506.795 276.45 504.83C272.895 502.958 267.564 500.057 264.602 498.56C261.64 496.969 252.951 492.291 245.349 488.173C237.747 484.056 229.256 479.565 226.59 478.161C223.825 476.757 220.567 475.073 219.185 474.324C217.803 473.576 216.026 472.547 215.236 471.985C214.446 471.424 210.891 469.459 207.337 467.587C203.783 465.809 195.391 461.224 188.578 457.481C181.765 453.738 171.794 448.311 166.363 445.41C160.933 442.509 150.665 436.521 143.655 432.123C135.559 427.07 129.832 422.672 128.154 420.426C126.673 418.461 124.402 414.531 123.02 411.724C121.638 408.916 119.86 403.489 118.972 399.746C118.182 396.097 117.491 389.172 117.491 384.587C117.491 379.908 117.886 375.136 118.478 373.826C118.972 372.516 120.255 371.206 121.144 370.925C122.23 370.551 126.278 371.955 131.807 374.762C136.645 377.195 144.247 381.125 148.591 383.464C152.936 385.804 160.834 390.202 166.067 393.196C171.399 396.19 175.94 398.623 176.236 398.623C176.533 398.623 178.606 399.746 180.877 401.15C183.246 402.46 189.96 406.39 195.983 409.665C201.907 413.034 209.707 417.244 213.261 419.022C216.815 420.8 221.653 423.42 224.122 424.824C226.59 426.228 233.896 430.345 240.412 433.994C246.929 437.55 257.987 443.726 265.095 447.562C272.105 451.399 285.928 459.072 295.702 464.593C305.477 470.114 319.003 477.88 325.816 481.717C332.628 485.553 339.441 489.483 341.119 490.326C342.699 491.261 346.944 493.601 350.499 495.659C354.053 497.718 360.866 501.274 365.802 503.613C370.64 505.952 374.688 508.198 377.749 509.134C379.427 509.602 380.612 509.976 383.08 509.976C385.253 509.976 389.004 509.976 389.004 509.976V417.525C384.759 417.525 383.179 416.496 379.131 415.56C375.083 414.624 370.147 412.94 368.271 412.004C366.395 410.975 359.483 407.513 352.967 404.238C346.451 400.963 338.256 396.658 334.702 394.6C331.147 392.541 324.039 388.517 318.905 385.616C313.77 382.622 302.416 376.353 293.728 371.58C285.039 366.902 277.042 362.504 275.956 361.849C274.87 361.194 272.895 360.071 271.513 359.229C270.131 358.386 264.997 355.673 260.159 353.24C255.222 350.807 244.855 345.193 236.957 340.795C229.058 336.397 220.863 331.905 218.691 330.876C216.519 329.753 209.805 326.104 203.882 322.922C197.859 319.647 189.664 315.062 185.616 312.629C181.568 310.29 173.571 306.079 167.844 303.178C162.118 300.277 148.394 292.885 137.237 286.709C126.081 280.439 115.22 274.357 113.048 273.047C110.876 271.831 105.051 268.743 100.213 266.216C95.2761 263.783 88.8585 260.228 85.8966 258.356C82.8359 256.485 79.5777 254.52 78.4916 253.864C77.4056 253.209 70.988 249.654 64.1755 246.004C57.363 242.261 49.958 238.051 47.5885 236.553C45.3176 235.15 42.1582 233.653 40.6772 233.372C38.4064 232.904 37.5178 233.278 36.1355 235.056Z" fill="#1B98E0"/>
<path d="M379.329 34.2472C376.564 34.9958 372.714 36.2122 370.937 37.0544C369.258 37.9901 361.557 42.0138 353.955 46.1311C346.352 50.3419 336.38 55.582 331.74 57.8278C327.099 60.0736 322.558 62.6001 321.57 63.4422C320.583 64.2844 319.793 65.5944 319.892 66.1559C319.892 66.8109 321.373 68.4952 323.051 69.8052C324.829 71.1153 328.975 73.5482 332.233 75.2325C335.492 77.0104 345.266 82.2506 353.955 87.0228C362.643 91.7951 371.726 96.7545 374.195 98.0646C376.663 99.3746 382.883 102.743 388.017 105.55C393.151 108.358 399.174 111.633 401.346 112.849C403.518 113.972 409.738 117.341 415.169 120.242C420.599 123.236 426.621 126.417 428.497 127.447C430.373 128.476 434.816 130.909 438.371 132.874C441.925 134.745 455.254 142.044 467.99 148.969C480.727 155.893 493.661 162.911 496.623 164.408C499.585 165.999 507.187 170.116 513.407 173.485C519.627 176.947 524.86 179.661 524.959 179.661C525.156 179.661 526.933 180.69 528.908 181.813C530.981 183.03 534.634 185.088 537.103 186.398C539.571 187.708 546.68 191.451 552.9 194.82C559.12 198.095 569.092 203.522 575.115 206.704C581.039 209.979 590.122 214.845 595.059 217.652C600.094 220.459 600.785 220.74 600.785 222.237C600.785 223.36 598.218 224.951 595.75 226.167C593.084 227.477 556.059 245.069 545.89 248.251C530.192 253.023 512.124 239.829 509.754 238.612C508.273 237.864 500.276 233.653 492.18 229.162C483.985 224.764 471.545 218.026 464.535 214.096C457.426 210.26 444.097 202.961 434.915 197.908C425.634 192.855 417.242 188.27 416.156 187.708C415.07 187.147 413.095 185.93 411.713 185.182C410.331 184.34 406.776 182.375 403.814 180.877C400.852 179.287 395.916 176.667 392.954 174.982C389.992 173.298 382.587 169.274 376.663 166.093C370.64 162.911 359.78 157.016 352.474 152.992C345.167 149.062 337.17 144.664 334.702 143.354C332.233 142.044 328.58 139.986 326.507 138.769C324.532 137.646 322.656 136.617 322.36 136.617C322.064 136.617 316.634 133.623 310.216 130.067C303.897 126.417 298.566 123.517 298.368 123.517C298.27 123.517 292.247 120.335 285.04 116.405C277.931 112.475 268.847 107.609 265.096 105.644C261.245 103.679 257 101.995 255.42 101.995C253.939 101.995 251.767 102.369 250.483 102.93C249.298 103.398 243.967 106.299 238.734 109.2C233.403 112.194 220.271 119.493 209.608 125.388C198.846 131.283 181.864 140.547 171.794 145.974C161.723 151.495 138.225 164.315 119.466 174.514C100.707 184.714 84.2183 193.791 82.6385 194.726C81.1576 195.756 79.7753 196.504 79.4791 196.504C79.1829 196.504 72.6666 199.966 64.8668 204.177C57.1656 208.295 50.0569 212.412 49.0696 213.254C48.0823 214.096 47.2924 215.687 47.3912 216.81C47.3912 218.12 48.5759 219.804 50.5506 221.021C52.229 222.237 54.8948 223.828 56.3758 224.576C57.8568 225.325 61.2137 227.103 63.8794 228.413C66.4465 229.723 73.9501 233.653 80.4664 237.209C86.9828 240.671 93.5978 244.414 95.2763 245.631C96.856 246.753 104.853 251.245 113.048 255.643C121.144 260.041 130.03 264.813 132.795 266.31C135.46 267.714 141.977 271.176 147.111 273.983C152.245 276.884 157.379 279.598 158.465 280.159C159.551 280.721 166.66 284.557 174.262 288.581C181.864 292.698 191.935 298.219 196.674 301.026C201.512 303.74 208.818 307.764 212.965 309.822C217.211 311.974 221.357 314.22 222.147 314.782C222.937 315.343 224.714 316.372 226.096 317.121C227.479 317.87 235.673 322.267 244.362 327.04C253.05 331.718 266.182 338.924 273.488 342.947C280.794 346.971 289.285 351.556 292.247 353.053C295.209 354.644 314.56 365.405 335.195 377.102C355.83 388.798 376.663 400.495 381.6 403.115C386.437 405.829 391.275 407.981 392.164 407.981C393.151 407.981 394.928 407.513 396.113 406.952C397.397 406.297 402.827 403.115 408.257 399.747C413.688 396.472 419.71 392.729 421.586 391.606C423.462 390.389 429.287 387.021 434.421 384.026C439.555 380.938 444.591 378.038 445.479 377.57C446.368 377.008 449.231 375.417 451.897 373.92C454.464 372.423 458.117 370.084 459.894 368.774C461.671 367.464 463.152 365.873 463.054 365.405C463.054 364.844 461.77 363.346 460.289 361.849C458.808 360.446 457.327 359.323 456.834 359.323C456.439 359.323 453.378 357.732 449.922 355.673C446.565 353.708 438.272 349.123 431.459 345.567C424.647 341.918 417.538 338.175 415.662 337.052C413.786 336.023 407.961 332.935 402.827 330.128C397.693 327.32 387.425 321.706 380.119 317.682C372.812 313.659 364.815 309.354 362.347 308.044C359.879 306.734 356.225 304.676 354.152 303.459C352.177 302.336 350.301 301.307 350.005 301.307C349.709 301.307 346.648 299.623 343.094 297.564C339.54 295.505 336.479 293.821 336.183 293.821C335.887 293.821 334.011 292.792 331.937 291.669C329.963 290.452 326.31 288.394 323.841 287.084C321.373 285.774 315.35 282.499 310.512 279.785C305.576 277.071 299.849 273.89 297.677 272.767C295.505 271.55 289.285 268.182 283.855 265.281C278.424 262.287 271.316 258.544 268.058 256.859C264.799 255.175 258.579 251.806 254.235 249.373C249.891 246.847 243.473 243.385 239.919 241.607C236.365 239.735 227.084 234.589 219.185 230.097C211.287 225.699 204.77 221.582 204.573 221.208C204.474 220.74 206.054 219.523 208.028 218.494C210.102 217.558 212.866 215.968 214.249 215.125C215.631 214.283 221.259 211.289 226.886 208.575C232.514 205.768 239.129 202.493 241.696 201.183C245.942 199.031 253.84 195.475 260.06 195.569L270.723 197.346C285.237 204.458 294.617 209.698 298.171 211.757C301.725 213.815 306.168 216.342 308.044 217.371C309.92 218.401 312.685 219.898 314.166 220.74C315.647 221.582 327.198 227.851 339.836 234.776C352.474 241.7 367.283 249.841 372.714 252.929C378.144 256.017 384.167 259.386 386.043 260.415C387.918 261.444 392.361 263.877 395.916 265.749C399.47 267.62 403.913 270.053 405.789 271.083C407.665 272.112 419.414 278.569 431.953 285.399C444.393 292.23 461.77 301.681 470.459 306.454C479.147 311.226 491.094 317.495 497.116 320.49C504.225 324.045 510.346 326.385 514.888 327.227C518.64 327.975 523.576 328.256 525.749 327.975C527.921 327.695 531.672 326.946 534.141 326.385C536.609 325.823 539.67 324.607 541.052 323.858C542.336 323.016 544.705 321.706 546.285 320.957C547.766 320.209 554.875 316.279 562.082 312.255C569.289 308.138 576.201 304.114 577.583 303.178C578.965 302.336 583.606 299.903 587.95 297.845C592.294 295.786 598.021 292.979 600.785 291.482C603.451 289.985 606.413 288.3 607.203 287.739C607.992 287.084 611.152 285.306 614.114 283.809C617.076 282.218 625.764 277.539 633.367 273.328C640.969 269.118 647.88 265.281 648.67 264.813C649.46 264.345 655.483 261.07 661.999 257.608C668.515 254.052 679.376 248.157 686.188 244.508C693.001 240.858 701.196 236.46 704.454 234.776C707.712 233.092 713.833 230.097 717.98 228.132C723.509 225.606 726.471 224.576 729.334 223.266C731.408 222.237 735.851 220.459 735.851 217.839C735.752 214.751 731.309 213.16 726.669 210.54C722.028 207.827 714.031 203.522 708.897 200.902C703.763 198.376 698.431 195.569 697.049 194.726C695.667 193.884 693.692 192.668 692.606 192.106C691.52 191.451 689.052 190.141 687.176 189.205C685.3 188.27 681.054 186.024 677.796 184.34C674.538 182.655 671.181 180.784 670.391 180.129C669.601 179.474 665.356 177.134 661.012 174.795C656.667 172.456 644.425 165.906 633.86 160.104C623.296 154.396 614.509 149.717 614.311 149.717C614.213 149.717 608.881 146.817 602.464 143.261C596.145 139.798 584.79 133.529 577.188 129.505C569.684 125.482 562.378 121.458 560.897 120.709C559.515 119.961 554.875 117.434 550.629 115.095C546.384 112.756 541.447 110.042 539.571 109.013C537.794 107.983 526.538 101.808 514.691 95.3509C502.843 88.8007 485.17 79.0691 475.395 73.7354C465.621 68.4016 454.069 61.8515 449.725 59.325C445.381 56.7985 438.667 53.1491 434.915 51.2776C431.064 49.4062 423.956 45.4761 419.118 42.5753C414.181 39.768 407.961 36.5865 405.295 35.6508C402.531 34.7151 396.804 33.6858 392.46 33.4986C387.326 33.1243 382.686 33.405 379.329 34.2472Z" fill="#006494"/>
<path d="M721.733 242.731C715.513 245.912 706.331 250.872 701.493 253.585C696.557 256.299 691.423 259.293 689.843 260.229C688.362 261.259 686.98 262.007 686.683 262.007C686.387 262.007 685.005 262.849 683.425 263.785C681.944 264.721 673.848 269.306 665.456 273.891C657.064 278.476 645.907 284.371 640.773 286.991C635.639 289.518 624.087 295.787 615.103 300.84C606.118 305.893 593.48 313.005 586.964 316.748C580.448 320.397 570.673 325.918 565.243 328.912C559.813 331.907 553.395 335.463 550.927 336.866C548.458 338.27 536.512 344.914 524.269 351.651C512.026 358.295 497.513 366.155 491.885 369.056C486.356 371.956 481.617 374.296 481.32 374.296C481.024 374.296 477.569 376.074 473.619 378.319C469.769 380.565 464.536 383.466 462.068 384.776C459.599 386.086 455.65 388.238 453.182 389.455C450.713 390.765 446.271 393.104 443.309 394.601C440.347 396.192 434.719 398.999 430.967 400.964C427.116 402.929 420.304 406.672 415.664 409.199C411.023 411.819 403.816 414.813 401.249 415.749C398.682 416.685 395.029 417.34 393.449 417.34L389.006 417.433V509.884C395.917 509.791 401.94 507.732 405 506.422C408.061 505.018 415.861 500.995 422.871 497.252C429.98 493.509 436.99 489.392 438.372 488.549C439.754 487.614 448.146 482.935 457.131 478.163C466.116 473.39 481.419 465.062 491.194 459.635C500.968 454.208 513.803 447.096 519.826 443.728C525.75 440.359 533.155 436.335 536.117 434.838C539.079 433.247 545.99 429.504 551.42 426.416C556.851 423.328 565.045 418.93 569.686 416.591C574.326 414.252 583.41 409.386 589.926 405.83C596.442 402.274 609.771 394.788 619.546 389.268C629.32 383.747 647.98 373.36 661.013 366.342C674.046 359.23 692.904 349.031 702.974 343.604C713.045 338.176 724.597 331.813 728.645 329.474C732.693 327.135 737.728 323.766 739.801 321.894C742.566 319.461 743.751 317.403 744.442 314.128C745.034 311.695 745.429 296.162 745.429 279.505C745.429 262.943 744.935 247.69 744.442 245.632C743.948 243.573 743.454 240.204 741.875 238.894C740.394 237.584 736.938 236.742 735.556 236.742C734.174 236.742 727.953 239.456 721.733 242.731ZM729.138 383.934C726.966 384.589 721.437 387.115 716.797 389.455C712.156 391.794 704.85 395.631 700.506 397.876C696.162 400.216 689.942 403.584 686.683 405.362C683.425 407.14 673.157 412.848 663.975 417.995C654.694 423.141 640.773 430.814 632.874 435.119C624.976 439.423 612.733 446.16 605.723 450.091C598.614 454.021 588.642 459.541 583.508 462.255C578.374 465.062 567.415 470.957 559.319 475.449C551.124 479.941 532.957 489.953 518.839 497.813C504.72 505.673 490.305 513.908 486.751 516.06C483.196 518.212 478.753 520.739 476.878 521.581C475.002 522.517 469.176 525.605 464.042 528.412C458.908 531.313 450.615 535.804 445.777 538.611C440.84 541.325 430.868 546.659 423.562 550.402C416.256 554.145 407.765 558.262 404.803 559.385C401.841 560.601 397.694 561.818 395.621 562.192L389.006 562.379C389.006 630.969 389.006 651.274 389.006 652.116C396.115 652.116 397.793 651.368 401.249 649.964C404.803 648.373 412.8 644.537 419.613 640.981C426.425 637.519 434.126 633.495 436.891 632.092C439.557 630.688 446.073 627.039 451.207 624.138C456.341 621.143 470.164 613.564 481.814 607.295C493.465 600.932 510.348 591.668 519.332 586.708C528.317 581.655 543.127 573.421 552.408 568.461C561.59 563.408 571.068 558.262 573.339 557.045C575.708 555.923 579.46 553.864 581.731 552.647C584.101 551.431 591.308 547.501 597.824 543.945C604.341 540.296 612.141 535.991 615.103 534.307C618.065 532.623 621.816 530.47 623.495 529.628C625.075 528.693 630.307 525.792 635.046 523.172C639.884 520.552 643.932 518.399 644.229 518.399C644.525 518.399 652.818 514.001 662.691 508.668C672.663 503.24 685.202 496.503 690.633 493.509C696.063 490.608 705.936 485.181 712.551 481.531C719.265 477.882 728.151 472.735 732.298 470.209C736.444 467.589 740.69 464.501 741.677 463.191C742.763 461.881 743.948 457.764 744.54 453.833C745.133 449.716 745.429 434.744 745.232 418.088L744.935 389.268C740.295 384.963 737.629 383.466 736.049 383.279C734.371 382.998 731.31 383.279 729.138 383.934ZM727.164 530.003C724.992 530.751 721.042 532.435 718.278 533.839C715.612 535.243 707.121 539.828 699.519 543.945C691.916 548.062 681.451 553.864 676.317 556.765C671.182 559.665 661.605 564.999 655.089 568.649C648.573 572.298 635.244 579.503 625.469 584.837C615.695 590.077 604.143 596.44 599.799 598.873C595.455 601.306 585.187 607.014 577.091 611.505C568.896 615.997 558.035 622.173 552.901 625.167C547.767 628.068 537.993 633.589 531.18 637.238C524.368 640.981 516.568 645.192 513.902 646.689C511.138 648.093 504.72 651.555 499.586 654.456C494.452 657.263 479.938 664.936 467.498 671.486C454.959 677.943 444.296 683.651 443.802 684.119C443.21 684.493 436.99 687.862 429.98 691.605C422.871 695.254 414.281 699.652 410.727 701.43C407.173 703.114 398.385 706.109 394.93 707.044L389.006 707.512C389.006 795.284 389.006 793.974 389.006 797.062C397.497 797.249 399.077 796.033 401.545 795.097C403.52 794.349 410.628 790.793 417.145 787.705C423.661 784.617 438.767 776.757 450.713 770.3C462.66 763.937 475.693 756.826 479.543 754.58C483.493 752.334 486.948 750.463 487.244 750.463C487.541 750.463 496.032 745.877 506.201 740.357C516.469 734.742 531.871 726.227 540.56 721.455C549.248 716.682 557.443 712.097 558.825 711.162C560.207 710.319 566.823 706.483 573.635 702.74C580.448 698.997 595.949 690.388 608.191 683.744C620.434 677.007 635.046 669.053 640.773 665.965C646.499 662.877 652.917 659.509 655.089 658.386C657.261 657.263 663.284 654.081 668.418 651.274C673.552 648.467 683.129 643.32 689.645 639.671C696.162 636.115 708.602 629.472 717.29 624.793C725.979 620.208 734.766 615.248 736.938 613.938C739.012 612.628 741.677 610.008 742.862 608.23C744.837 605.049 744.935 603.739 745.232 574.544C745.429 557.794 745.232 541.793 744.837 538.986C744.343 535.056 743.553 533.278 741.381 531.219C739.209 529.348 737.531 528.693 734.766 528.786C732.791 528.786 729.336 529.348 727.164 530.003Z" fill="#247BA0"/>
</svg>
