<svg width="32" height="32" viewBox="0 0 32 32" fill="none" xmlns="http://www.w3.org/2000/svg">
<g clip-path="url(#clip0_7738_14456)">
<path d="M31.4182 8.87278L23.1273 0.581871C22.5455 5.32717e-05 21.6728 5.32717e-05 21.091 0.581871L0.581871 21.091C5.32866e-05 21.6728 5.32866e-05 22.5455 0.581871 23.1273L8.87278 31.4182C9.4546 32.0001 10.3273 32.0001 10.9091 31.4182L13.9637 28.3637L8.87278 23.2728C8.29096 22.691 8.29096 21.8182 8.87278 21.2364C9.4546 20.6546 10.3273 20.6546 10.9091 21.2364L16.0001 26.3273L18.0364 24.291L14.9819 21.2364C14.4001 20.6546 14.4001 19.7819 14.9819 19.2001C15.5637 18.6182 16.4364 18.6182 17.0182 19.2001L20.0728 22.2546L22.1091 20.2182L17.0182 15.1273C16.4364 14.5455 16.4364 13.6728 17.0182 13.091C17.6001 12.5091 18.4728 12.5091 19.0546 13.091L24.1455 18.1819L26.1819 16.1455L23.1273 13.091C22.5455 12.5091 22.5455 11.6364 23.1273 11.0546C23.7091 10.4728 24.5819 10.4728 25.1637 11.0546L28.2182 14.1091L31.2728 11.0546C32.0001 10.3273 32.0001 9.30914 31.4182 8.87278Z" fill="#247BA0"/>
</g>
<defs>
<clipPath id="clip0_7738_14456">
<rect width="32" height="32" fill="white"/>
</clipPath>
</defs>
</svg>
