<svg xmlns="http://www.w3.org/2000/svg" width="18" height="18" viewBox="0 0 18 18" fill="none">
  <path d="M9 0C11.3869 0 13.6761 0.948212 15.364 2.63604C17.0518 4.32387 18 6.61305 18 9C18 11.3869 17.0518 13.6761 15.364 15.364C13.6761 17.0518 11.3869 18 9 18C6.61305 18 4.32387 17.0518 2.63604 15.364C0.948212 13.6761 0 11.3869 0 9C0 6.61305 0.948212 4.32387 2.63604 2.63604C4.32387 0.948212 6.61305 0 9 0ZM10.1947 4.851C10.1947 4.55263 10.0762 4.26648 9.86524 4.0555C9.65427 3.84453 9.36812 3.726 9.06975 3.726C8.77138 3.726 8.48523 3.84453 8.27425 4.0555C8.06328 4.26648 7.94475 4.55263 7.94475 4.851V7.94475H4.851C4.55263 7.94475 4.26648 8.06328 4.0555 8.27425C3.84453 8.48523 3.726 8.77138 3.726 9.06975C3.726 9.36812 3.84453 9.65427 4.0555 9.86524C4.26648 10.0762 4.55263 10.1947 4.851 10.1947H7.94475V13.2885C7.94475 13.5869 8.06328 13.873 8.27425 14.084C8.48523 14.295 8.77138 14.4135 9.06975 14.4135C9.36812 14.4135 9.65427 14.295 9.86524 14.084C10.0762 13.873 10.1947 13.5869 10.1947 13.2885V10.1947H13.2885C13.5869 10.1947 13.873 10.0762 14.084 9.86524C14.295 9.65427 14.4135 9.36812 14.4135 9.06975C14.4135 8.77138 14.295 8.48523 14.084 8.27425C13.873 8.06328 13.5869 7.94475 13.2885 7.94475H10.1947V4.851Z" fill="#1B98E0"/>
</svg>