<svg xmlns="http://www.w3.org/2000/svg" width="18" height="18" viewBox="0 0 18 18" fill="none">
  <path d="M7.91563 2.09682C8.10625 1.72807 7.9625 1.27494 7.59688 1.08432C7.23125 0.893693 6.775 1.03744 6.58437 1.40307L3.675 6.99997H1C0.446875 6.99997 0 7.44684 0 7.99997C0 8.5531 0.446875 8.99997 1 8.99997L2.62188 15.4844C2.84375 16.375 3.64375 17 4.5625 17H13.4375C14.3562 17 15.1562 16.375 15.3781 15.4844L17 8.99997C17.5531 8.99997 18 8.5531 18 7.99997C18 7.44684 17.5531 6.99997 17 6.99997H14.325L11.4156 1.40307C11.225 1.03744 10.7719 0.893693 10.4031 1.08432C10.0344 1.27494 9.89375 1.72807 10.0844 2.09682L12.6344 6.99997H5.36562L7.91563 2.09682ZM6 10.5V13.5C6 13.775 5.775 14 5.5 14C5.225 14 5 13.775 5 13.5V10.5C5 10.225 5.225 9.99998 5.5 9.99998C5.775 9.99998 6 10.225 6 10.5ZM9 9.99998C9.275 9.99998 9.5 10.225 9.5 10.5V13.5C9.5 13.775 9.275 14 9 14C8.725 14 8.5 13.775 8.5 13.5V10.5C8.5 10.225 8.725 9.99998 9 9.99998ZM13 10.5V13.5C13 13.775 12.775 14 12.5 14C12.225 14 12 13.775 12 13.5V10.5C12 10.225 12.225 9.99998 12.5 9.99998C12.775 9.99998 13 10.225 13 10.5Z" fill="white"/>
</svg>