<svg width="20" height="20" viewBox="0 0 20 20" fill="none" xmlns="http://www.w3.org/2000/svg">
<path d="M10.4486 0.25C10.1724 0.250306 9.90687 0.356036 9.70609 0.545586C9.50531 0.735136 9.38448 0.994199 9.3683 1.26984C9.35212 1.54549 9.4418 1.81691 9.61902 2.02865C9.79624 2.24039 10.0476 2.37647 10.3218 2.40908L10.4486 2.41667H15.8652C16.1306 2.4167 16.3867 2.51412 16.585 2.69044C16.7833 2.86676 16.9099 3.10973 16.941 3.37325L16.9486 3.5V16.5C16.9485 16.7653 16.8511 17.0214 16.6748 17.2197C16.4985 17.418 16.2555 17.5447 15.992 17.5758L15.8652 17.5833H10.9902C10.7141 17.5836 10.4485 17.6894 10.2478 17.8789C10.047 18.0685 9.92615 18.3275 9.90996 18.6032C9.89378 18.8788 9.98347 19.1502 10.1607 19.362C10.3379 19.5737 10.5893 19.7098 10.8635 19.7424L10.9902 19.75H15.8652C16.6942 19.75 17.4919 19.4333 18.095 18.8646C18.6982 18.2959 19.0612 17.5182 19.1098 16.6907L19.1152 16.5V3.5C19.1153 2.67102 18.7985 1.87336 18.2298 1.27022C17.6611 0.667076 16.8835 0.30405 16.0559 0.255417L15.8652 0.25H10.4486ZM4.26598 6.16933L1.20232 9.23408C0.999226 9.43724 0.885132 9.71274 0.885132 10C0.885132 10.2873 0.999226 10.5628 1.20232 10.7659L4.26598 13.8307C4.46926 14.0338 4.74491 14.1479 5.03228 14.1478C5.31966 14.1477 5.59523 14.0334 5.79836 13.8301C6.00149 13.6268 6.11556 13.3512 6.11545 13.0638C6.11535 12.7764 6.0011 12.5009 5.79782 12.2978L4.5834 11.0833H10.4486C10.7359 11.0833 11.0114 10.9692 11.2146 10.766C11.4178 10.5629 11.5319 10.2873 11.5319 10C11.5319 9.71268 11.4178 9.43713 11.2146 9.23397C11.0114 9.0308 10.7359 8.91667 10.4486 8.91667H4.5834L5.79782 7.70225C6.0011 7.49912 6.11535 7.22355 6.11545 6.93618C6.11556 6.6488 6.00149 6.37315 5.79836 6.16988C5.59523 5.9666 5.31966 5.85234 5.03228 5.85224C4.74491 5.85214 4.46926 5.9662 4.26598 6.16933Z" fill="#D73232"/>
</svg>
