<svg width="18" height="18" viewBox="0 0 18 18" fill="none" xmlns="http://www.w3.org/2000/svg">
<path d="M0 8.9375C0 13.8733 4.00168 17.875 8.9375 17.875C13.8733 17.875 17.875 13.8733 17.875 8.9375C17.875 4.00168 13.8733 0 8.9375 0C4.00168 0 0 4.00168 0 8.9375ZM9.1373 5.01188C9.20142 5.07546 9.25237 5.15106 9.28726 5.23434C9.32216 5.31763 9.3403 5.40697 9.34066 5.49727C9.34102 5.58756 9.32359 5.67705 9.28936 5.7606C9.25513 5.84416 9.20477 5.92016 9.14117 5.98426L6.89305 8.25H12.6328C12.8151 8.25 12.99 8.32243 13.1189 8.45136C13.2479 8.5803 13.3203 8.75516 13.3203 8.9375C13.3203 9.11984 13.2479 9.29471 13.1189 9.42364C12.99 9.55257 12.8151 9.625 12.6328 9.625H6.89305L9.14117 11.8907C9.20477 11.9549 9.2551 12.031 9.2893 12.1146C9.3235 12.1982 9.3409 12.2877 9.3405 12.378C9.3401 12.4684 9.32191 12.5577 9.28697 12.641C9.25204 12.7244 9.20103 12.8 9.13688 12.8636C9.07272 12.9271 8.99666 12.9775 8.91305 13.0117C8.82944 13.0459 8.73991 13.0633 8.64958 13.0629C8.55925 13.0625 8.46987 13.0443 8.38657 13.0094C8.30326 12.9744 8.22766 12.9234 8.16406 12.8593L4.75277 9.42176C4.62499 9.29298 4.55328 9.11892 4.55328 8.9375C4.55328 8.75608 4.62499 8.58202 4.75277 8.45324L8.16406 5.01574C8.22767 4.9515 8.30331 4.90044 8.38668 4.86547C8.47004 4.8305 8.55948 4.81232 8.64988 4.81196C8.74028 4.8116 8.82986 4.82907 8.9135 4.86337C8.99714 4.89768 9.07319 4.94814 9.1373 5.01188Z" fill="white"/>
</svg>
