<svg width="1920" height="192" viewBox="0 0 1920 192" fill="none" xmlns="http://www.w3.org/2000/svg">
<path d="M0 0H1920V188C1170.19 184.887 749.807 185.043 0 188V0Z" fill="#0F3B62"/>
<rect x="125" y="183" width="1702" height="9" rx="4.5" fill="#2888B1"/>
<path d="M796.152 164.488V161.288H806.936C806.979 162.931 806.765 164.488 806.296 165.96C805.827 167.411 805.123 168.701 804.184 169.832C803.245 170.963 802.072 171.859 800.664 172.52C799.277 173.16 797.699 173.48 795.928 173.48C794.243 173.48 792.685 173.203 791.256 172.648C789.827 172.072 788.579 171.261 787.512 170.216C786.467 169.171 785.656 167.933 785.08 166.504C784.504 165.075 784.216 163.507 784.216 161.8C784.216 160.093 784.504 158.536 785.08 157.128C785.677 155.699 786.499 154.472 787.544 153.448C788.611 152.403 789.859 151.603 791.288 151.048C792.739 150.493 794.307 150.216 795.992 150.216C797.464 150.216 798.797 150.419 799.992 150.824C801.187 151.208 802.253 151.773 803.192 152.52C804.152 153.245 804.963 154.131 805.624 155.176L802.552 157.224C801.933 156.157 801.069 155.304 799.96 154.664C798.872 154.024 797.549 153.704 795.992 153.704C794.541 153.704 793.229 154.045 792.056 154.728C790.883 155.389 789.944 156.328 789.24 157.544C788.536 158.739 788.184 160.157 788.184 161.8C788.184 163.421 788.525 164.851 789.208 166.088C789.912 167.304 790.851 168.253 792.024 168.936C793.197 169.619 794.52 169.96 795.992 169.96C796.995 169.96 797.891 169.821 798.68 169.544C799.469 169.267 800.152 168.872 800.728 168.36C801.304 167.848 801.784 167.261 802.168 166.6C802.552 165.939 802.84 165.235 803.032 164.488H796.152ZM813.145 173V169.672H824.441V173H813.145ZM813.145 153.928V150.6H824.441V153.928H813.145ZM813.145 162.632V159.368H823.801V162.632H813.145ZM810.809 150.6H814.521V173H810.809V150.6ZM833.698 162.312H837.794L845.378 173H840.834L833.698 162.312ZM829.09 150.6H832.866V173H829.09V150.6ZM831.33 153.864V150.6H836.002C837.623 150.6 839.031 150.888 840.226 151.464C841.442 152.04 842.38 152.851 843.042 153.896C843.703 154.92 844.034 156.136 844.034 157.544C844.034 158.952 843.703 160.179 843.042 161.224C842.38 162.269 841.442 163.08 840.226 163.656C839.031 164.232 837.623 164.52 836.002 164.52H831.33V161.416H835.842C836.695 161.416 837.442 161.267 838.082 160.968C838.743 160.669 839.255 160.243 839.618 159.688C839.98 159.112 840.162 158.429 840.162 157.64C840.162 156.829 839.98 156.147 839.618 155.592C839.255 155.037 838.743 154.611 838.082 154.312C837.442 154.013 836.695 153.864 835.842 153.864H831.33ZM850.457 173V169.672H861.753V173H850.457ZM850.457 153.928V150.6H861.753V153.928H850.457ZM850.457 162.632V159.368H861.113V162.632H850.457ZM848.121 150.6H851.833V173H848.121V150.6ZM882.754 150.6H886.466V174.12L870.114 157.96V173H866.402V149.48L882.754 165.64V150.6ZM894.218 161.8C894.218 163.379 894.57 164.765 895.274 165.96C895.999 167.155 896.938 168.083 898.09 168.744C899.263 169.384 900.532 169.704 901.898 169.704C902.964 169.704 903.924 169.565 904.778 169.288C905.631 169.011 906.399 168.637 907.082 168.168C907.786 167.677 908.394 167.133 908.906 166.536V171.016C907.967 171.784 906.954 172.371 905.866 172.776C904.778 173.181 903.412 173.384 901.77 173.384C900.127 173.384 898.591 173.107 897.161 172.552C895.754 171.997 894.527 171.197 893.482 170.152C892.436 169.107 891.615 167.88 891.018 166.472C890.442 165.043 890.154 163.485 890.154 161.8C890.154 160.115 890.442 158.568 891.018 157.16C891.615 155.731 892.436 154.493 893.482 153.448C894.527 152.403 895.754 151.603 897.161 151.048C898.591 150.493 900.127 150.216 901.77 150.216C903.412 150.216 904.778 150.419 905.866 150.824C906.954 151.229 907.967 151.816 908.906 152.584V157.064C908.394 156.467 907.786 155.933 907.082 155.464C906.399 154.973 905.631 154.589 904.778 154.312C903.924 154.035 902.964 153.896 901.898 153.896C900.532 153.896 899.263 154.227 898.09 154.888C896.938 155.528 895.999 156.445 895.274 157.64C894.57 158.813 894.218 160.2 894.218 161.8ZM913.559 150.6H917.367V173H913.559V150.6ZM925.059 167.24L925.763 164.04H936.163L936.899 167.24H925.059ZM930.915 156.936L927.395 165.16L927.331 165.992L924.227 173H919.971L930.915 149.352L941.859 173H937.603L934.563 166.184L934.467 165.256L930.915 156.936ZM949.073 162.312H953.169L960.753 173H956.209L949.073 162.312ZM944.465 150.6H948.241V173H944.465V150.6ZM946.705 153.864V150.6H951.377C952.998 150.6 954.406 150.888 955.601 151.464C956.817 152.04 957.755 152.851 958.417 153.896C959.078 154.92 959.409 156.136 959.409 157.544C959.409 158.952 959.078 160.179 958.417 161.224C957.755 162.269 956.817 163.08 955.601 163.656C954.406 164.232 952.998 164.52 951.377 164.52H946.705V161.416H951.217C952.07 161.416 952.817 161.267 953.457 160.968C954.118 160.669 954.63 160.243 954.993 159.688C955.355 159.112 955.537 158.429 955.537 157.64C955.537 156.829 955.355 156.147 954.993 155.592C954.63 155.037 954.118 154.611 953.457 154.312C952.817 154.013 952.07 153.864 951.217 153.864H946.705ZM975.874 161.8C975.874 163.379 976.226 164.765 976.93 165.96C977.655 167.155 978.594 168.083 979.746 168.744C980.919 169.384 982.188 169.704 983.554 169.704C984.62 169.704 985.58 169.565 986.434 169.288C987.287 169.011 988.055 168.637 988.738 168.168C989.442 167.677 990.05 167.133 990.562 166.536V171.016C989.623 171.784 988.61 172.371 987.522 172.776C986.434 173.181 985.068 173.384 983.426 173.384C981.783 173.384 980.247 173.107 978.818 172.552C977.41 171.997 976.183 171.197 975.138 170.152C974.092 169.107 973.271 167.88 972.674 166.472C972.098 165.043 971.81 163.485 971.81 161.8C971.81 160.115 972.098 158.568 972.674 157.16C973.271 155.731 974.092 154.493 975.138 153.448C976.183 152.403 977.41 151.603 978.818 151.048C980.247 150.493 981.783 150.216 983.426 150.216C985.068 150.216 986.434 150.419 987.522 150.824C988.61 151.229 989.623 151.816 990.562 152.584V157.064C990.05 156.467 989.442 155.933 988.738 155.464C988.055 154.973 987.287 154.589 986.434 154.312C985.58 154.035 984.62 153.896 983.554 153.896C982.188 153.896 980.919 154.227 979.746 154.888C978.594 155.528 977.655 156.445 976.93 157.64C976.226 158.813 975.874 160.2 975.874 161.8ZM997.434 167.24L998.138 164.04H1008.54L1009.27 167.24H997.434ZM1003.29 156.936L999.77 165.16L999.706 165.992L996.602 173H992.346L1003.29 149.352L1014.23 173H1009.98L1006.94 166.184L1006.84 165.256L1003.29 156.936ZM1021.45 162.312H1025.54L1033.13 173H1028.58L1021.45 162.312ZM1016.84 150.6H1020.62V173H1016.84V150.6ZM1019.08 153.864V150.6H1023.75C1025.37 150.6 1026.78 150.888 1027.98 151.464C1029.19 152.04 1030.13 152.851 1030.79 153.896C1031.45 154.92 1031.78 156.136 1031.78 157.544C1031.78 158.952 1031.45 160.179 1030.79 161.224C1030.13 162.269 1029.19 163.08 1027.98 163.656C1026.78 164.232 1025.37 164.52 1023.75 164.52H1019.08V161.416H1023.59C1024.45 161.416 1025.19 161.267 1025.83 160.968C1026.49 160.669 1027.01 160.243 1027.37 159.688C1027.73 159.112 1027.91 158.429 1027.91 157.64C1027.91 156.829 1027.73 156.147 1027.37 155.592C1027.01 155.037 1026.49 154.611 1025.83 154.312C1025.19 154.013 1024.45 153.864 1023.59 153.864H1019.08ZM1040.48 162.312H1044.58L1052.16 173H1047.62L1040.48 162.312ZM1035.87 150.6H1039.65V173H1035.87V150.6ZM1038.11 153.864V150.6H1042.78C1044.4 150.6 1045.81 150.888 1047.01 151.464C1048.22 152.04 1049.16 152.851 1049.82 153.896C1050.48 154.92 1050.82 156.136 1050.82 157.544C1050.82 158.952 1050.48 160.179 1049.82 161.224C1049.16 162.269 1048.22 163.08 1047.01 163.656C1045.81 164.232 1044.4 164.52 1042.78 164.52H1038.11V161.416H1042.62C1043.48 161.416 1044.22 161.267 1044.86 160.968C1045.52 160.669 1046.04 160.243 1046.4 159.688C1046.76 159.112 1046.94 158.429 1046.94 157.64C1046.94 156.829 1046.76 156.147 1046.4 155.592C1046.04 155.037 1045.52 154.611 1044.86 154.312C1044.22 154.013 1043.48 153.864 1042.62 153.864H1038.11ZM1057.62 161.8C1057.62 163.336 1057.94 164.712 1058.58 165.928C1059.24 167.123 1060.15 168.061 1061.3 168.744C1062.45 169.427 1063.77 169.768 1065.24 169.768C1066.73 169.768 1068.04 169.427 1069.17 168.744C1070.33 168.061 1071.22 167.123 1071.86 165.928C1072.52 164.712 1072.85 163.336 1072.85 161.8C1072.85 160.264 1072.53 158.899 1071.89 157.704C1071.25 156.488 1070.36 155.539 1069.21 154.856C1068.08 154.173 1066.75 153.832 1065.24 153.832C1063.77 153.832 1062.45 154.173 1061.3 154.856C1060.15 155.539 1059.24 156.488 1058.58 157.704C1057.94 158.899 1057.62 160.264 1057.62 161.8ZM1053.62 161.8C1053.62 160.115 1053.91 158.568 1054.49 157.16C1055.06 155.752 1055.87 154.536 1056.92 153.512C1057.98 152.467 1059.22 151.656 1060.63 151.08C1062.06 150.504 1063.6 150.216 1065.24 150.216C1066.92 150.216 1068.47 150.504 1069.88 151.08C1071.29 151.656 1072.51 152.467 1073.56 153.512C1074.62 154.536 1075.45 155.752 1076.02 157.16C1076.6 158.568 1076.89 160.115 1076.89 161.8C1076.89 163.464 1076.6 165.011 1076.02 166.44C1075.45 167.869 1074.64 169.107 1073.59 170.152C1072.54 171.197 1071.31 172.019 1069.88 172.616C1068.47 173.192 1066.92 173.48 1065.24 173.48C1063.57 173.48 1062.03 173.192 1060.6 172.616C1059.17 172.019 1057.93 171.197 1056.89 170.152C1055.86 169.107 1055.06 167.869 1054.49 166.44C1053.91 165.011 1053.62 163.464 1053.62 161.8ZM1082.03 165.8C1082.52 166.653 1083.04 167.411 1083.6 168.072C1084.17 168.712 1084.8 169.213 1085.49 169.576C1086.17 169.917 1086.94 170.088 1087.79 170.088C1088.81 170.088 1089.65 169.811 1090.29 169.256C1090.93 168.701 1091.25 167.987 1091.25 167.112C1091.25 166.28 1091.04 165.619 1090.64 165.128C1090.23 164.616 1089.67 164.189 1088.94 163.848C1088.24 163.485 1087.42 163.133 1086.48 162.792C1085.92 162.6 1085.31 162.344 1084.62 162.024C1083.94 161.683 1083.29 161.267 1082.67 160.776C1082.05 160.264 1081.54 159.645 1081.13 158.92C1080.73 158.173 1080.53 157.277 1080.53 156.232C1080.53 155.037 1080.84 153.992 1081.45 153.096C1082.07 152.179 1082.91 151.475 1083.95 150.984C1085.02 150.472 1086.22 150.216 1087.57 150.216C1088.89 150.216 1090.04 150.451 1091.02 150.92C1092 151.389 1092.83 151.987 1093.49 152.712C1094.17 153.437 1094.7 154.195 1095.09 154.984L1092.01 156.712C1091.74 156.157 1091.39 155.645 1090.96 155.176C1090.53 154.685 1090.03 154.301 1089.45 154.024C1088.9 153.725 1088.25 153.576 1087.5 153.576C1086.46 153.576 1085.69 153.821 1085.2 154.312C1084.71 154.781 1084.46 155.336 1084.46 155.976C1084.46 156.552 1084.63 157.075 1084.97 157.544C1085.34 157.992 1085.89 158.419 1086.64 158.824C1087.39 159.229 1088.36 159.645 1089.55 160.072C1090.21 160.307 1090.87 160.605 1091.53 160.968C1092.22 161.331 1092.84 161.789 1093.39 162.344C1093.95 162.877 1094.38 163.507 1094.7 164.232C1095.04 164.957 1095.21 165.811 1095.21 166.792C1095.21 167.837 1095.01 168.776 1094.61 169.608C1094.2 170.44 1093.65 171.144 1092.94 171.72C1092.24 172.275 1091.44 172.701 1090.54 173C1089.67 173.32 1088.75 173.48 1087.79 173.48C1086.47 173.48 1085.24 173.224 1084.11 172.712C1083 172.179 1082.03 171.475 1081.2 170.6C1080.37 169.725 1079.71 168.776 1079.21 167.752L1082.03 165.8ZM1100.56 165.8C1101.05 166.653 1101.58 167.411 1102.13 168.072C1102.71 168.712 1103.34 169.213 1104.02 169.576C1104.7 169.917 1105.47 170.088 1106.32 170.088C1107.35 170.088 1108.18 169.811 1108.82 169.256C1109.46 168.701 1109.78 167.987 1109.78 167.112C1109.78 166.28 1109.58 165.619 1109.17 165.128C1108.76 164.616 1108.2 164.189 1107.47 163.848C1106.77 163.485 1105.95 163.133 1105.01 162.792C1104.46 162.6 1103.84 162.344 1103.15 162.024C1102.47 161.683 1101.82 161.267 1101.2 160.776C1100.58 160.264 1100.07 159.645 1099.67 158.92C1099.26 158.173 1099.06 157.277 1099.06 156.232C1099.06 155.037 1099.37 153.992 1099.99 153.096C1100.6 152.179 1101.44 151.475 1102.48 150.984C1103.55 150.472 1104.75 150.216 1106.1 150.216C1107.42 150.216 1108.57 150.451 1109.55 150.92C1110.54 151.389 1111.36 151.987 1112.02 152.712C1112.7 153.437 1113.23 154.195 1113.62 154.984L1110.55 156.712C1110.27 156.157 1109.92 155.645 1109.49 155.176C1109.06 154.685 1108.56 154.301 1107.99 154.024C1107.43 153.725 1106.78 153.576 1106.03 153.576C1104.99 153.576 1104.22 153.821 1103.73 154.312C1103.24 154.781 1102.99 155.336 1102.99 155.976C1102.99 156.552 1103.16 157.075 1103.51 157.544C1103.87 157.992 1104.42 158.419 1105.17 158.824C1105.92 159.229 1106.89 159.645 1108.08 160.072C1108.74 160.307 1109.4 160.605 1110.07 160.968C1110.75 161.331 1111.37 161.789 1111.92 162.344C1112.48 162.877 1112.91 163.507 1113.23 164.232C1113.58 164.957 1113.75 165.811 1113.75 166.792C1113.75 167.837 1113.54 168.776 1113.14 169.608C1112.73 170.44 1112.18 171.144 1111.47 171.72C1110.77 172.275 1109.97 172.701 1109.07 173C1108.2 173.32 1107.28 173.48 1106.32 173.48C1105 173.48 1103.77 173.224 1102.64 172.712C1101.53 172.179 1100.56 171.475 1099.73 170.6C1098.9 169.725 1098.24 168.776 1097.75 167.752L1100.56 165.8ZM1119.96 173V169.672H1131.25V173H1119.96ZM1119.96 153.928V150.6H1131.25V153.928H1119.96ZM1119.96 162.632V159.368H1130.61V162.632H1119.96ZM1117.62 150.6H1121.33V173H1117.62V150.6ZM1135.9 150.6H1139.68V169.608H1148.57V173H1135.9V150.6Z" fill="white"/>
</svg>
