<svg width="800" height="800" viewBox="0 0 1000 1000" fill="none" xmlns="http://www.w3.org/2000/svg">
<path d="M479.33 29.8715C475.479 30.9008 469.75 32.9594 466.65 34.4566C463.551 35.8602 454.91 40.5389 447.396 44.8433C439.882 49.1477 430.021 54.3878 425.512 57.0079C420.065 60.0958 408.324 66.9267 397.523 73.3833C384.562 81.0564 348.402 101.83 345.021 103.795C341.64 105.76 319.38 118.673 309.331 124.475C299.281 130.276 283.22 139.54 273.64 144.967C264.06 150.488 243.397 162.372 227.618 171.355C211.839 180.338 189.862 192.971 178.779 199.24C167.696 205.603 163.657 208.878 156.143 214.212C152.762 216.645 150.696 218.797 145.155 223.101C142.807 224.879 138.298 229.09 137.453 229.932C135.668 231.897 129 239.103 129 245.84C129 251.922 129.094 627.153 130.409 632.955C131.16 636.511 133.133 642.219 134.729 645.587C136.326 648.956 139.425 654.009 141.679 656.816C143.84 659.623 148.63 664.77 152.105 668.139C155.674 671.507 161.121 675.905 164.221 677.964C167.32 680.023 175.961 685.356 183.475 689.754C190.989 694.152 203.386 701.264 211.182 705.662C218.883 709.966 229.027 715.768 233.723 718.575C238.325 721.289 247.436 726.435 253.916 730.085C260.397 733.64 270.541 739.629 276.458 743.185C282.375 746.834 296.088 754.788 306.982 760.964C317.784 767.14 336.85 778.181 349.247 785.574C361.645 792.873 377.518 802.136 384.468 806.067C391.418 810.09 402.407 816.453 408.888 820.103C415.369 823.846 422.507 827.869 424.855 828.992C427.203 830.115 432.462 833.296 436.595 836.104C440.728 838.817 449.838 843.964 456.788 847.52C463.739 851.169 472.379 855.006 476.042 856.035C481.396 857.719 485.059 858 495.766 858C505.534 858 510.887 857.532 516.429 856.129C520.561 855.193 526.572 853.321 529.766 852.011C533.053 850.608 540.661 846.958 546.672 843.777C552.777 840.595 567.71 832.361 579.826 825.436C591.942 818.512 608.473 809.154 616.456 804.663C624.439 800.171 634.583 794.37 638.997 791.843C643.412 789.223 653.743 783.234 662.008 778.462C670.273 773.69 678.069 769.105 679.384 768.169C680.699 767.327 686.991 763.49 693.472 759.747C699.953 756.005 714.699 747.396 726.345 740.752C737.991 734.015 755.743 723.909 765.792 718.294C775.842 712.586 787.3 706.223 791.151 704.071C795.002 701.825 801.952 697.895 806.648 695.182C811.25 692.468 821.864 686.479 830.129 681.8C838.394 677.215 847.786 671.601 850.98 669.355C854.267 667.109 858.681 662.992 860.747 660.278C862.908 657.658 865.444 653.822 866.383 651.857C867.416 649.985 868.825 645.775 869.576 642.499C870.703 637.914 870.985 629.025 870.985 598.333C870.985 567.64 870.985 558.283 870.985 553.417C870.985 548.645 870.985 530.117 870.985 524.503C870.985 518.608 870.985 502.7 870.985 499.331C870.985 493.249 870.421 491.471 870.797 454.229C871.079 421.291 870.985 413.992 870.985 408.191C870.985 404.541 870.985 381.335 870.985 380.867C870.985 380.306 870.985 358.503 870.985 353.45C870.985 346.9 870.985 342.782 870.985 307.786C870.985 275.69 870.985 266.894 870.985 262.496C870.985 259.034 870.985 251.267 870.985 245.84C870.515 238.915 867.604 235.64 865.444 232.646C862.908 229.184 859.808 226.283 855.112 221.698C851.167 217.861 844.123 212.434 839.427 209.627C834.825 206.82 826.654 202.141 821.206 199.24C815.759 196.246 806.46 191.099 800.543 187.731C794.626 184.362 788.427 180.806 786.925 179.964C785.328 179.028 779.693 175.753 774.245 172.572C768.798 169.484 756.306 162.278 746.538 156.758C736.676 151.143 721.931 142.722 713.665 138.136C705.4 133.458 693.754 126.908 687.837 123.445C681.92 119.983 674.03 115.492 670.461 113.339C666.798 111.281 653.273 103.514 640.406 96.0282C627.445 88.5423 609.318 78.062 600.02 72.7283C590.721 67.301 579.263 60.6573 574.661 57.7565C569.964 54.8557 563.672 51.2999 560.572 49.7091C557.473 48.2119 551.931 45.0304 548.362 42.7847C544.699 40.4453 539.252 37.2638 536.153 35.6731C533.053 34.1759 527.512 32.0237 523.943 30.9008C518.777 29.31 515.114 28 501.871 28C496.142 28 485.528 28.1871 479.33 29.8715Z" fill="white"/>
<path d="M163.376 263.056C161.873 265.208 161.78 276.718 162.061 444.496L162.343 623.596C165.067 633.609 168.824 638.007 173.708 642.779C179.437 648.393 185.636 650.92 198.973 658.78C208.271 664.207 222.171 672.255 229.967 676.653C237.669 681.051 247.812 686.759 252.508 689.566C257.111 692.279 266.221 697.426 272.702 701.075C279.182 704.631 289.326 710.62 295.243 714.176C301.16 717.731 307.453 721.474 309.049 722.41C310.74 723.439 313.558 724.937 315.154 725.966C316.845 726.902 323.42 730.645 329.712 734.388C336.099 738.037 341.453 741.031 341.734 741.031C342.016 741.031 352.629 747.301 365.403 754.88C378.27 762.46 394.8 772.285 402.314 776.589C409.828 780.894 421.193 787.444 427.673 791.093C434.154 794.836 441.48 798.954 444.11 800.264C446.645 801.574 452.375 805.036 456.789 807.937C461.203 810.744 469.938 815.797 476.325 818.978C487.126 824.312 488.253 825.061 494.734 825.248L499.054 825.154V735.51C495.015 735.417 482.054 730.551 480.27 729.522C478.485 728.492 476.325 727.089 475.573 726.527C474.822 725.872 471.441 723.907 468.06 722.129C464.678 720.258 459.795 717.638 457.259 716.234C454.629 714.831 446.833 710.152 439.883 705.848C432.933 701.543 426.922 697.987 426.452 697.987C426.076 697.987 424.668 697.239 423.165 696.209C421.756 695.274 416.59 692.186 411.706 689.379C406.822 686.478 399.403 682.454 395.27 680.208C391.137 678.056 385.408 674.875 382.591 673.19C379.773 671.6 369.347 665.611 359.58 659.903C349.718 654.195 336.85 646.709 330.933 643.247C325.016 639.784 317.972 635.854 315.436 634.451C312.806 633.047 306.514 629.491 301.348 626.403C296.182 623.409 286.226 617.607 279.276 613.49C272.326 609.373 263.873 604.226 260.492 602.074C257.111 599.922 253.26 596.74 251.945 594.963C250.63 593.185 248.282 589.442 246.873 586.635C245.464 583.827 243.68 578.774 243.022 575.406C242.271 572.037 241.707 563.615 241.707 556.41C241.707 546.211 241.989 543.31 243.116 542.187C243.961 541.345 245.182 541.064 246.122 541.438C247.061 541.719 251.569 544.246 256.265 546.866C260.867 549.579 270.166 554.913 276.928 558.75C283.597 562.586 293.74 568.388 299.469 571.663C305.105 574.938 311.491 578.587 313.558 579.897C315.624 581.207 321.353 584.389 326.237 586.915C331.121 589.535 338.917 594.027 343.613 596.928C348.215 599.828 352.723 602.448 353.475 602.729C354.226 603.01 360.988 606.94 368.502 611.432C376.016 615.923 384.845 621.163 388.226 622.941C391.607 624.813 399.403 629.304 405.601 632.954C411.8 636.603 420.065 641.469 423.916 643.621C427.767 645.773 436.22 650.733 442.701 654.476C449.181 658.312 460.734 665.049 468.529 669.354C476.231 673.752 484.966 678.243 487.783 679.273C490.601 680.302 494.452 680.302 495.955 680.302C497.363 680.302 497.645 680.395 499.054 680.302C499.054 677.963 499.054 590.565 499.054 590.565C489.944 589.067 487.408 587.102 484.026 585.418C480.645 583.734 466.933 576.154 453.502 568.481C440.071 560.808 425.889 552.48 422.038 550.047C418.187 547.708 411.143 543.591 406.541 541.064C401.845 538.444 395.364 534.795 391.983 532.83C388.602 530.958 383.53 528.057 380.712 526.56C377.894 524.969 369.629 520.291 362.397 516.173C355.165 512.056 347.088 507.565 344.552 506.161C341.922 504.757 338.823 503.073 337.508 502.324C336.193 501.576 334.502 500.547 333.751 499.985C333 499.424 329.618 497.459 326.237 495.587C322.856 493.809 314.873 489.224 308.392 485.481C301.911 481.738 292.425 476.311 287.26 473.41C282.094 470.509 272.326 464.521 265.657 460.123C257.956 455.07 252.508 450.672 250.912 448.426C249.503 446.461 247.343 442.531 246.028 439.724C244.713 436.916 243.022 431.489 242.177 427.746C241.426 424.097 240.768 417.172 240.768 412.587C240.768 407.908 241.144 403.136 241.707 401.826C242.177 400.516 243.398 399.206 244.243 398.925C245.276 398.551 249.127 399.955 254.387 402.762C258.989 405.195 266.221 409.125 270.354 411.464C274.486 413.804 282 418.202 286.978 421.196C292.05 424.19 296.37 426.623 296.652 426.623C296.934 426.623 298.906 427.746 301.066 429.15C303.32 430.46 309.707 434.39 315.436 437.665C321.071 441.034 328.491 445.244 331.873 447.022C335.254 448.8 339.856 451.42 342.204 452.824C344.552 454.228 351.502 458.345 357.701 461.994C363.9 465.55 374.419 471.726 381.182 475.562C387.85 479.399 400.999 487.072 410.298 492.593C419.596 498.114 432.463 505.88 438.944 509.717C445.424 513.553 451.905 517.483 453.502 518.326C455.004 519.261 459.043 521.601 462.424 523.659C465.806 525.718 472.286 529.274 476.982 531.613C481.584 533.952 485.435 536.198 488.347 537.134C489.944 537.602 491.071 537.976 493.419 537.976C495.485 537.976 499.054 537.976 499.054 537.976V445.525C495.015 445.525 493.513 444.496 489.662 443.56C485.811 442.624 481.115 440.94 479.33 440.004C477.546 438.975 470.971 435.513 464.772 432.238C458.574 428.963 450.778 424.658 447.397 422.6C444.016 420.541 437.253 416.517 432.369 413.616C427.485 410.622 416.684 404.353 408.419 399.58C400.154 394.902 392.546 390.504 391.513 389.849C390.48 389.194 388.602 388.071 387.287 387.229C385.972 386.386 381.088 383.673 376.486 381.24C371.789 378.807 361.928 373.193 354.414 368.795C346.9 364.397 339.105 359.905 337.038 358.876C334.972 357.753 328.585 354.104 322.95 350.922C317.221 347.647 309.425 343.062 305.574 340.629C301.724 338.29 294.116 334.079 288.668 331.178C283.221 328.277 270.166 320.885 259.552 314.709C248.939 308.439 238.608 302.357 236.542 301.047C234.475 299.831 228.934 296.743 224.332 294.216C219.636 291.783 213.531 288.228 210.713 286.356C207.801 284.485 204.702 282.52 203.669 281.864C202.636 281.209 196.531 277.654 190.05 274.004C183.569 270.261 176.525 266.051 174.271 264.553C172.111 263.15 169.105 261.653 167.697 261.372C165.536 260.904 164.691 261.278 163.376 263.056Z" fill="#1B98E0"/>
<path d="M489.849 62.2472C487.22 62.9958 483.557 64.2122 481.866 65.0544C480.269 65.9901 472.943 70.0138 465.711 74.1311C458.479 78.3419 448.993 83.582 444.579 85.8278C440.165 88.0736 435.844 90.6001 434.905 91.4422C433.966 92.2844 433.214 93.5944 433.308 94.1559C433.308 94.8109 434.717 96.4952 436.314 97.8052C438.004 99.1153 441.949 101.548 445.049 103.233C448.148 105.01 457.446 110.251 465.711 115.023C473.977 119.795 482.617 124.755 484.965 126.065C487.313 127.375 493.231 130.743 498.115 133.55C502.998 136.358 508.728 139.633 510.794 140.849C512.86 141.972 518.777 145.341 523.943 148.242C529.109 151.236 534.838 154.417 536.623 155.447C538.407 156.476 542.634 158.909 546.015 160.874C549.396 162.745 562.076 170.044 574.191 176.969C586.307 183.893 598.611 190.911 601.429 192.408C604.247 193.999 611.479 198.116 617.396 201.485C623.313 204.947 628.291 207.661 628.385 207.661C628.572 207.661 630.263 208.69 632.141 209.813C634.114 211.03 637.589 213.088 639.937 214.398C642.285 215.708 649.047 219.451 654.965 222.82C660.882 226.095 670.368 231.522 676.097 234.704C681.732 237.979 690.373 242.845 695.069 245.652C699.859 248.459 700.517 248.74 700.517 250.237C700.517 251.36 698.075 252.951 695.727 254.167C693.191 255.477 657.97 273.069 648.296 276.251C633.362 281.023 616.175 267.829 613.921 266.612C612.512 265.864 604.904 261.653 597.202 257.162C589.407 252.764 577.573 246.026 570.904 242.096C564.142 238.26 551.462 230.961 542.728 225.908C533.899 220.855 525.915 216.27 524.882 215.708C523.849 215.147 521.971 213.93 520.656 213.182C519.341 212.34 515.96 210.375 513.142 208.877C510.324 207.287 505.628 204.667 502.811 202.982C499.993 201.298 492.949 197.274 487.313 194.093C481.584 190.911 471.253 185.016 464.303 180.992C457.352 177.062 449.745 172.664 447.397 171.354C445.049 170.044 441.573 167.986 439.601 166.769C437.723 165.646 435.938 164.617 435.656 164.617C435.375 164.617 430.209 161.623 424.104 158.067C418.093 154.417 413.021 151.517 412.833 151.517C412.739 151.517 407.01 148.335 400.154 144.405C393.391 140.475 384.751 135.609 381.181 133.644C377.518 131.679 373.48 129.995 371.977 129.995C370.568 129.995 368.502 130.369 367.281 130.93C366.154 131.398 361.082 134.299 356.104 137.2C351.032 140.194 338.541 147.493 328.397 153.388C318.16 159.283 302.005 168.547 292.425 173.974C282.845 179.495 260.492 192.315 242.646 202.514C224.801 212.714 209.116 221.791 207.613 222.726C206.205 223.756 204.89 224.504 204.608 224.504C204.326 224.504 198.127 227.966 190.707 232.177C183.381 236.295 176.619 240.412 175.68 241.254C174.741 242.096 173.989 243.687 174.083 244.81C174.083 246.12 175.21 247.804 177.089 249.021C178.685 250.237 181.221 251.828 182.63 252.576C184.039 253.325 187.232 255.103 189.768 256.413C192.21 257.723 199.348 261.653 205.547 265.209C211.746 268.671 218.039 272.414 219.635 273.631C221.138 274.753 228.746 279.245 236.541 283.643C244.243 288.041 252.696 292.813 255.326 294.31C257.862 295.714 264.061 299.176 268.945 301.983C273.828 304.884 278.712 307.598 279.746 308.159C280.779 308.721 287.541 312.557 294.773 316.581C302.005 320.698 311.585 326.219 316.093 329.026C320.696 331.74 327.646 335.764 331.591 337.822C335.629 339.974 339.574 342.22 340.325 342.782C341.077 343.343 342.767 344.372 344.082 345.121C345.397 345.87 353.193 350.267 361.458 355.04C369.723 359.718 382.215 366.924 389.165 370.947C396.115 374.971 404.192 379.556 407.01 381.053C409.828 382.644 428.236 393.405 447.866 405.102C467.496 416.798 487.313 428.495 492.01 431.115C496.612 433.829 501.214 435.981 502.059 435.981C502.998 435.981 504.689 435.513 505.816 434.952C507.037 434.297 512.203 431.115 517.369 427.747C522.534 424.472 528.264 420.729 530.048 419.606C531.833 418.389 537.374 415.021 542.258 412.026C547.142 408.938 551.932 406.038 552.777 405.57C553.623 405.008 556.346 403.417 558.882 401.92C561.324 400.423 564.799 398.084 566.49 396.774C568.18 395.464 569.589 393.873 569.495 393.405C569.495 392.844 568.274 391.346 566.866 389.849C565.457 388.446 564.048 387.323 563.578 387.323C563.203 387.323 560.291 385.732 557.004 383.673C553.81 381.708 545.921 377.123 539.44 373.567C532.96 369.918 526.197 366.175 524.413 365.052C522.628 364.023 517.087 360.935 512.203 358.128C507.319 355.32 497.551 349.706 490.601 345.682C483.651 341.659 476.043 337.354 473.695 336.044C471.347 334.734 467.872 332.676 465.899 331.459C464.021 330.336 462.236 329.307 461.955 329.307C461.673 329.307 458.761 327.623 455.38 325.564C451.999 323.505 449.087 321.821 448.805 321.821C448.524 321.821 446.739 320.792 444.767 319.669C442.888 318.452 439.413 316.394 437.065 315.084C434.717 313.774 428.988 310.499 424.386 307.785C419.69 305.071 414.242 301.89 412.176 300.767C410.109 299.55 404.192 296.182 399.027 293.281C393.861 290.287 387.099 286.544 383.999 284.859C380.9 283.175 374.983 279.806 370.85 277.373C366.717 274.847 360.613 271.385 357.231 269.607C353.85 267.735 345.021 262.589 337.508 258.097C329.994 253.699 323.795 249.582 323.607 249.208C323.513 248.74 325.016 247.523 326.894 246.494C328.867 245.558 331.497 243.968 332.812 243.125C334.126 242.283 339.48 239.289 344.834 236.575C350.187 233.768 356.48 230.493 358.922 229.183C362.961 227.031 370.474 223.475 376.391 223.569L386.535 225.346C400.342 232.458 409.264 237.698 412.645 239.757C416.027 241.815 420.253 244.342 422.038 245.371C423.822 246.401 426.452 247.898 427.861 248.74C429.27 249.582 440.259 255.851 452.281 262.776C464.303 269.7 478.391 277.841 483.557 280.929C488.722 284.017 494.452 287.386 496.236 288.415C498.021 289.444 502.247 291.877 505.628 293.749C509.01 295.62 513.236 298.053 515.021 299.083C516.805 300.112 527.982 306.569 539.91 313.399C551.744 320.23 568.274 329.681 576.54 334.454C584.805 339.226 596.169 345.495 601.899 348.49C608.661 352.045 614.484 354.385 618.804 355.227C622.374 355.976 627.07 356.256 629.136 355.975C631.202 355.695 634.771 354.946 637.119 354.385C639.467 353.823 642.379 352.607 643.694 351.858C644.915 351.016 647.169 349.706 648.672 348.957C650.081 348.209 656.843 344.279 663.699 340.255C670.556 336.138 677.13 332.114 678.445 331.178C679.76 330.336 684.174 327.903 688.307 325.845C692.439 323.786 697.887 320.979 700.517 319.482C703.053 317.985 705.87 316.3 706.622 315.739C707.373 315.084 710.379 313.306 713.196 311.809C716.014 310.218 724.279 305.539 731.511 301.328C738.743 297.118 745.318 293.281 746.069 292.813C746.82 292.345 752.55 289.07 758.749 285.608C764.947 282.052 775.279 276.157 781.759 272.508C788.24 268.858 796.036 264.46 799.135 262.776C802.234 261.092 808.058 258.097 812.002 256.132C817.262 253.606 820.08 252.576 822.803 251.266C824.776 250.237 829.002 248.459 829.002 245.839C828.908 242.751 824.682 241.16 820.268 238.54C815.853 235.827 808.245 231.522 803.362 228.902C798.478 226.376 793.406 223.569 792.091 222.726C790.776 221.884 788.898 220.668 787.864 220.106C786.831 219.451 784.483 218.141 782.699 217.205C780.914 216.27 776.875 214.024 773.776 212.34C770.677 210.655 767.483 208.784 766.732 208.129C765.981 207.474 761.942 205.134 757.809 202.795C753.677 200.456 742.03 193.906 731.981 188.104C721.931 182.396 713.572 177.717 713.384 177.717C713.29 177.717 708.218 174.817 702.113 171.261C696.102 167.798 685.301 161.529 678.069 157.505C670.931 153.482 663.981 149.458 662.572 148.709C661.257 147.961 656.843 145.434 652.804 143.095C648.766 140.756 644.07 138.042 642.285 137.013C640.594 135.983 629.887 129.808 618.617 123.351C607.346 116.801 590.534 107.069 581.236 101.735C571.937 96.4016 560.948 89.8515 556.816 87.325C552.683 84.7985 546.297 81.1491 542.728 79.2776C539.065 77.4062 532.302 73.4761 527.7 70.5753C523.004 67.768 517.087 64.5865 514.551 63.6508C511.921 62.7151 506.474 61.6858 502.341 61.4986C497.457 61.1243 493.043 61.405 489.849 62.2472Z" fill="#006494"/>
<path d="M815.571 270.731C809.654 273.912 800.92 278.872 796.317 281.585C791.621 284.299 786.737 287.293 785.235 288.229C783.826 289.259 782.511 290.007 782.229 290.007C781.947 290.007 780.632 290.849 779.13 291.785C777.721 292.721 770.019 297.306 762.036 301.891C754.052 306.476 743.439 312.371 738.555 314.991C733.671 317.518 722.682 323.787 714.135 328.84C705.589 333.893 693.567 341.005 687.368 344.748C681.169 348.397 671.871 353.918 666.705 356.912C661.539 359.907 655.434 363.463 653.086 364.866C650.738 366.27 639.373 372.914 627.727 379.651C616.081 386.295 602.274 394.155 596.921 397.056C591.661 399.956 587.153 402.296 586.871 402.296C586.589 402.296 583.302 404.074 579.545 406.319C575.882 408.565 570.904 411.466 568.556 412.776C566.208 414.086 562.451 416.238 560.103 417.455C557.755 418.765 553.529 421.104 550.711 422.601C547.893 424.192 542.54 426.999 538.971 428.964C535.308 430.929 528.827 434.672 524.413 437.199C519.998 439.819 513.142 442.813 510.7 443.749C508.258 444.685 504.783 445.34 503.28 445.34L499.054 445.433V537.884C505.628 537.791 511.358 535.732 514.269 534.422C517.181 533.018 524.601 528.995 531.269 525.252C538.031 521.509 544.7 517.392 546.015 516.549C547.33 515.614 555.313 510.935 563.86 506.163C572.407 501.39 586.965 493.062 596.263 487.635C605.561 482.208 617.771 475.096 623.501 471.728C629.136 468.359 636.18 464.335 638.998 462.838C641.815 461.247 648.39 457.504 653.556 454.416C658.721 451.328 666.517 446.93 670.931 444.591C675.346 442.252 683.986 437.386 690.185 433.83C696.384 430.274 709.064 422.788 718.362 417.268C727.66 411.747 745.412 401.36 757.809 394.342C770.207 387.23 788.146 377.031 797.726 371.604C807.306 366.176 818.295 359.813 822.146 357.474C825.997 355.135 830.787 351.766 832.759 349.894C835.389 347.461 836.516 345.403 837.174 342.128C837.737 339.695 838.113 324.162 838.113 307.505C838.113 290.943 837.643 275.69 837.174 273.632C836.704 271.573 836.234 268.204 834.732 266.894C833.323 265.584 830.035 264.742 828.721 264.742C827.406 264.742 821.489 267.456 815.571 270.731ZM822.616 411.934C820.549 412.589 815.29 415.115 810.875 417.455C806.461 419.794 799.511 423.631 795.378 425.876C791.246 428.216 785.328 431.584 782.229 433.362C779.13 435.14 769.362 440.848 760.627 445.995C751.798 451.141 738.555 458.814 731.041 463.119C723.528 467.423 711.881 474.16 705.213 478.091C698.45 482.021 688.964 487.541 684.08 490.255C679.196 493.062 668.771 498.957 661.069 503.449C653.274 507.941 635.992 517.953 622.561 525.813C609.13 533.673 595.418 541.908 592.037 544.06C588.655 546.212 584.429 548.739 582.644 549.581C580.86 550.517 575.319 553.605 570.435 556.412C565.551 559.313 557.661 563.804 553.059 566.611C548.363 569.325 538.877 574.659 531.926 578.402C524.976 582.145 516.899 586.262 514.081 587.385C511.264 588.601 507.319 589.818 505.347 590.192L499.054 590.379C499.054 658.969 499.054 679.274 499.054 680.116C505.816 680.116 507.413 679.368 510.7 677.964C514.081 676.373 521.689 672.537 528.17 668.981C534.65 665.519 541.976 661.495 544.606 660.092C547.142 658.688 553.341 655.039 558.225 652.138C563.109 649.143 576.258 641.564 587.341 635.295C598.423 628.932 614.484 619.668 623.031 614.708C631.578 609.655 645.666 601.421 654.495 596.461C663.23 591.408 672.246 586.262 674.406 585.045C676.661 583.923 680.23 581.864 682.39 580.647C684.644 579.431 691.5 575.501 697.699 571.945C703.898 568.296 711.318 563.991 714.135 562.307C716.953 560.623 720.522 558.47 722.119 557.628C723.622 556.693 728.6 553.792 733.108 551.172C737.71 548.552 741.561 546.399 741.843 546.399C742.124 546.399 750.014 542.001 759.406 536.668C768.892 531.24 780.82 524.503 785.986 521.509C791.152 518.608 800.544 513.181 806.837 509.531C813.223 505.882 821.676 500.735 825.621 498.209C829.566 495.589 833.604 492.501 834.544 491.191C835.577 489.881 836.704 485.764 837.267 481.833C837.831 477.716 838.113 462.744 837.925 446.088L837.643 417.268C833.229 412.963 830.693 411.466 829.19 411.279C827.593 410.998 824.682 411.279 822.616 411.934ZM820.737 558.003C818.671 558.751 814.914 560.435 812.284 561.839C809.748 563.243 801.671 567.828 794.439 571.945C787.207 576.062 777.251 581.864 772.367 584.765C767.483 587.665 758.373 592.999 752.174 596.649C745.975 600.298 733.296 607.503 723.997 612.837C714.699 618.077 703.71 624.44 699.578 626.873C695.445 629.306 685.677 635.014 677.975 639.505C670.18 643.997 659.848 650.173 654.965 653.167C650.081 656.068 640.782 661.589 634.302 665.238C627.821 668.981 620.401 673.192 617.865 674.689C615.235 676.093 609.13 679.555 604.247 682.456C599.363 685.263 585.556 692.936 573.722 699.486C561.794 705.943 551.65 711.651 551.181 712.119C550.617 712.493 544.7 715.862 538.031 719.605C531.269 723.254 523.098 727.652 519.717 729.43C516.335 731.114 507.976 734.109 504.689 735.044L499.054 735.512C499.054 823.284 499.054 821.974 499.054 825.062C507.131 825.249 508.634 824.033 510.982 823.097C512.86 822.349 519.623 818.793 525.822 815.705C532.02 812.617 546.39 804.757 557.755 798.3C569.12 791.937 581.517 784.826 585.18 782.58C588.937 780.334 592.225 778.463 592.506 778.463C592.788 778.463 600.865 773.877 610.539 768.357C620.307 762.742 634.959 754.227 643.224 749.455C651.489 744.682 659.285 740.097 660.6 739.162C661.915 738.319 668.208 734.483 674.688 730.74C681.169 726.997 695.915 718.388 707.561 711.744C719.207 705.007 733.108 697.053 738.555 693.965C744.003 690.877 750.108 687.509 752.174 686.386C754.24 685.263 759.969 682.081 764.853 679.274C769.737 676.467 778.848 671.32 785.047 667.671C791.246 664.115 803.08 657.472 811.345 652.793C819.61 648.208 827.969 643.248 830.035 641.938C832.008 640.628 834.544 638.008 835.671 636.23C837.549 633.049 837.643 631.739 837.925 602.544C838.113 585.794 837.925 569.793 837.549 566.986C837.08 563.056 836.328 561.278 834.262 559.219C832.196 557.348 830.599 556.693 827.969 556.786C826.091 556.786 822.803 557.348 820.737 558.003Z" fill="#247BA0"/>
<path d="M583.035 890.405C581.457 891.194 581.457 891.172 581.457 902.374V912.381L579.429 910.42C574.943 906.093 571.382 904.763 565.68 905.304C559.278 905.935 554.703 908.031 550.33 912.313C545.89 916.686 543.388 921.51 542.351 927.843C541.765 931.269 541.968 937.039 542.757 940.082C545.236 949.594 551.412 956.536 559.797 959.263C562.93 960.277 565.229 960.615 568.542 960.525C571.067 960.435 571.292 960.39 572.982 959.578C575.552 958.361 577.242 957.167 579.451 954.98L581.39 953.087L582.471 955.814C584.072 959.849 583.666 959.646 590.09 959.646C595.995 959.646 596.558 959.511 597.302 958.068C597.663 957.325 597.685 955.364 597.64 924.665L597.573 892.051L596.897 891.329C595.702 890.067 595.319 890 589.301 890C584.545 890 583.711 890.045 583.035 890.405ZM571.878 919.639C576.431 920.585 580.353 924.034 581.93 928.474C582.607 930.322 582.764 934.019 582.269 935.98C581.029 940.983 577.175 944.77 572.329 945.784C565.409 947.227 559.481 943.643 557.633 936.859C557.002 934.56 557.115 930.525 557.858 928.181C559.278 923.876 562.637 920.653 566.761 919.661C568.452 919.233 569.962 919.233 571.878 919.639Z" fill="#1B98E0"/>
<path d="M758.458 890.344C758.053 890.502 757.512 890.998 757.264 891.403C756.836 892.125 756.813 892.508 756.813 902.222C756.813 907.79 756.745 912.32 756.678 912.32C756.61 912.32 755.709 911.486 754.694 910.449C750.412 906.144 746.648 904.747 740.923 905.333C734.657 905.964 730.081 908.015 725.844 912.072C719.623 918.045 716.625 926.294 717.369 935.423C717.73 939.683 718.519 942.568 720.344 946.219C721.787 949.104 723.117 950.975 725.371 953.251C728.504 956.407 732.606 958.728 737.091 959.9C738.804 960.351 739.683 960.419 742.839 960.441H746.558L748.316 959.607C750.84 958.39 752.35 957.331 754.694 955.1L756.745 953.116L757.715 955.663C758.391 957.399 758.909 958.413 759.428 958.931L760.171 959.675L765.694 959.607C770.878 959.54 771.238 959.517 771.847 959.067C772.185 958.819 772.613 958.21 772.771 957.737C772.996 957.083 773.041 950.096 772.996 924.604C772.929 892.373 772.929 892.282 772.455 891.674C772.207 891.336 771.712 890.84 771.373 890.592C770.787 890.141 770.427 890.119 764.972 890.074C760.352 890.029 759.022 890.074 758.458 890.344ZM747.234 919.645C749.781 920.186 751.922 921.381 753.905 923.342C762.11 931.523 757.038 945.34 745.566 946.061C741.802 946.287 738.714 945.16 736.167 942.635C730.51 936.955 731.501 925.821 738.06 921.493C741.058 919.51 743.875 918.946 747.234 919.645Z" fill="#1B98E0"/>
<path d="M370.602 896.447C363.593 897.732 358.431 900.459 353.45 905.417C349.596 909.272 347.094 913.261 345.493 918.062C344.231 921.849 344.006 923.494 344.006 928.43C344.006 932.329 344.073 933.254 344.524 935.282C345.922 941.48 348.469 946.326 352.684 950.722C356.65 954.869 361.789 957.957 366.726 959.219L367.785 959.467V965.665V971.841L368.348 972.382L368.889 972.945H375.764C380.497 972.945 382.819 972.855 383.202 972.675C383.585 972.517 383.878 972.134 384.013 971.615C384.126 971.165 384.239 968.28 384.239 965.214C384.239 960.932 384.306 959.625 384.532 959.557C390.144 958.047 394.426 955.658 398.483 951.781C401.211 949.189 403.127 946.574 404.862 943.081C406.417 939.948 407.161 937.897 407.815 934.831C408.401 932.149 408.423 924.734 407.837 922.051C407.206 919.099 406.169 916.259 404.727 913.419C400.309 904.877 392.533 898.881 382.999 896.717C380.272 896.109 373.262 895.951 370.602 896.447ZM380.272 912.089C382.976 912.765 384.96 913.937 387.191 916.146C389.378 918.31 390.617 920.429 391.496 923.494C392.218 926.041 392.218 930.594 391.496 933.118C390.144 937.874 387.259 941.368 382.999 943.396C380.587 944.568 379.19 944.861 376.124 944.884C373.082 944.884 371.707 944.591 369.25 943.396C365.013 941.368 362.105 937.852 360.753 933.163C360.031 930.594 360.031 926.041 360.753 923.494C361.609 920.474 362.894 918.332 365.08 916.146C368.303 912.923 371.369 911.683 376.034 911.661C377.815 911.638 379.032 911.774 380.272 912.089Z" fill="#1B98E0"/>
<path d="M163.465 896.921C163.217 896.989 162.789 897.237 162.518 897.507L162 897.958V928.364C162 958.454 162 958.747 162.451 959.198C162.902 959.648 163.195 959.648 185.17 959.648C197.409 959.648 207.529 959.558 207.665 959.468C207.8 959.378 208.093 958.995 208.296 958.589C208.611 957.981 208.656 957.011 208.656 952.233C208.656 946.508 208.544 945.674 207.777 945.291C207.575 945.201 200.903 945.088 192.947 945.043L178.454 944.975V939.701V934.427L189.385 934.359L200.294 934.292L200.813 933.773C201.331 933.277 201.331 933.165 201.331 928.093C201.331 923.022 201.331 922.909 200.813 922.413L200.294 921.895L189.385 921.827L178.454 921.76V916.598V911.414H192.496H206.56L207.101 910.828L207.642 910.242V904.066C207.642 897.958 207.642 897.891 207.124 897.395L206.605 896.876L185.261 896.854C173.518 896.831 163.713 896.854 163.465 896.921Z" fill="#1B98E0"/>
<path d="M239.987 905.355C233.833 906.031 228.131 908.781 223.848 913.131C219.836 917.188 217.244 922.057 216.185 927.534C215.644 930.329 215.644 935.896 216.185 938.353C217.425 943.965 219.611 948.203 223.33 952.102C226.26 955.167 229.1 957.106 232.977 958.661C236.628 960.148 238.093 960.419 242.353 960.441H246.185L248.168 959.495C250.67 958.278 251.775 957.534 254.322 955.235L256.373 953.364L257.342 955.888C257.928 957.399 258.559 958.661 258.942 959.044L259.573 959.675L265.253 959.607L270.911 959.54L271.677 958.706L272.443 957.849V932.808C272.443 907.812 272.443 907.767 271.97 907.113C271.113 905.896 270.618 905.784 266.042 905.784C263.473 905.784 261.669 905.874 261.331 906.031C260.655 906.347 260.092 907.519 258.852 911.283L257.883 914.168L257.297 913.312C256.373 911.914 254.051 909.503 252.541 908.353C251.008 907.181 248.574 905.986 246.929 905.581C245.373 905.22 242.195 905.107 239.987 905.355ZM245.689 919.645C250.805 920.727 255.043 924.942 256.102 930.013C257.162 935.085 255.494 939.976 251.594 943.131C246.455 947.324 239.13 947.098 234.645 942.613C232.999 940.99 231.85 938.826 231.286 936.257C230.836 934.251 230.948 930.216 231.512 928.481C233.608 921.922 239.401 918.315 245.689 919.645Z" fill="#006494"/>
<path d="M305.463 905.355C301.496 905.829 296.717 907.542 293.517 909.66C285.628 914.889 281.165 923.229 281.143 932.718C281.12 936.257 281.413 938.285 282.405 941.396C285.29 950.502 292.322 957.151 301.947 959.833C303.975 960.396 304.403 960.441 308.844 960.441C313.013 960.441 313.802 960.374 315.403 959.946C320.744 958.48 325.094 955.979 328.701 952.305C332.758 948.203 335.327 942.928 336.342 936.617C336.59 935.04 336.477 930.013 336.116 928.052C334.741 920.186 330.076 913.289 323.382 909.232C318.017 906.009 311.639 904.611 305.463 905.355ZM312.45 920.006C316.304 921.426 318.986 924.514 320.181 928.841C320.699 930.757 320.677 935.107 320.136 937.113C318.085 944.641 310.421 948.225 303.434 944.912C298.814 942.748 296.334 938.037 296.627 932.064C296.808 928.075 297.957 925.325 300.482 922.778C301.992 921.268 304.381 919.961 306.364 919.555C308.055 919.217 310.895 919.42 312.45 920.006Z" fill="#006494"/>
<path d="M500.834 905.352C498.354 905.6 494.162 906.817 491.908 907.944C484.064 911.866 478.384 919.552 476.987 928.094C475.274 938.755 479.556 949.439 487.964 955.434C491.097 957.666 495.357 959.514 498.963 960.19C501.825 960.731 505.927 960.663 507.776 960.032C510.03 959.266 512.734 957.508 515.101 955.299L517.22 953.293L517.468 953.947C517.603 954.285 517.963 955.231 518.279 956.043C518.572 956.854 519 957.846 519.181 958.252C519.812 959.559 520.24 959.649 525.942 959.649C531.735 959.649 532.299 959.514 533.065 958.049C533.425 957.328 533.448 955.75 533.403 932.444L533.335 907.583L532.479 906.749L531.645 905.893L527.295 905.825C524.703 905.78 522.697 905.848 522.359 905.983C521.57 906.276 520.871 907.673 519.812 911.077C519.338 912.564 518.91 913.827 518.865 913.894C518.797 913.962 518.617 913.804 518.437 913.556C516.318 910.603 512.96 907.628 510.503 906.546C507.731 905.329 504.71 904.946 500.834 905.352ZM506.559 919.664C511.63 920.701 515.71 924.668 516.972 929.762C517.445 931.723 517.31 934.991 516.656 937.042C514.695 943.24 508.317 947.05 501.758 945.923C497.295 945.134 493.576 941.595 492.291 936.884C491.75 934.923 491.75 930.979 492.269 929.041C493.553 924.262 497.16 920.588 501.51 919.642C503.403 919.236 504.53 919.236 506.559 919.664Z" fill="#1B98E0"/>
<path d="M633.163 905.419C630.841 906.005 629.016 907.447 626.018 911.144C624.327 913.217 623.719 913.849 623.584 913.601C623.471 913.42 623.088 912.474 622.727 911.504C621.668 908.619 620.924 907.199 620.203 906.568C619.526 906.005 619.481 906.005 615.537 906.005C612.134 906.005 611.412 906.072 610.623 906.433C608.843 907.244 608.956 905.374 608.956 932.939C608.956 960.099 608.865 958.567 610.421 959.288C611.029 959.581 612.156 959.648 617.137 959.648C622.952 959.648 623.11 959.648 623.854 959.13C624.282 958.837 624.733 958.274 624.891 957.845C625.094 957.259 625.161 952.909 625.161 941.414L625.184 925.749L626.108 924.352C627.167 922.706 629.016 920.881 630.3 920.25C633.433 918.627 637.513 919.303 640.916 921.985C642.697 923.405 643.914 923.698 645.199 923.045C646.123 922.571 646.596 921.94 648.444 918.74C651.329 913.736 651.6 912.992 650.811 911.775C650.157 910.783 645.221 907.515 642.832 906.501C640.33 905.441 635.304 904.878 633.163 905.419Z" fill="#1B98E0"/>
<path d="M676.28 905.352C672.9 905.69 669.992 906.592 666.611 908.305C659.759 911.798 654.643 918.38 652.659 926.291C651.983 929.041 651.803 935.081 652.344 937.899C654.214 947.951 660.931 955.817 670.533 959.176C673.621 960.258 675.987 960.596 679.368 960.506C682.096 960.415 682.456 960.37 683.989 959.694C686.265 958.702 688.294 957.305 690.593 955.164L692.531 953.338L693.591 956.065C695.078 959.875 694.65 959.672 701.479 959.604C706.483 959.536 706.934 959.514 707.497 959.086C708.76 958.116 708.692 959.694 708.76 933.053C708.805 915.63 708.737 908.192 708.557 907.786C708.422 907.448 708.016 906.885 707.655 906.546L706.979 905.893H702.223H697.49L696.972 906.501C696.679 906.839 695.98 908.552 695.394 910.333C694.808 912.114 694.244 913.646 694.154 913.737C694.064 913.827 693.568 913.353 693.027 912.655C690.458 909.319 686.558 906.501 683.425 905.69C681.645 905.217 678.737 905.081 676.28 905.352ZM683.11 919.957C687.054 921.175 690.323 924.307 691.833 928.274C692.599 930.303 692.779 933.819 692.261 936.073C691.81 937.944 690.593 940.355 689.376 941.73C688.204 943.06 685.522 944.818 683.764 945.427C681.893 946.058 678.85 946.283 676.979 945.923C673.846 945.314 670.578 943.06 669.068 940.468C668.076 938.778 667.332 936.163 667.175 933.887C666.746 927.102 670.691 921.175 676.709 919.642C678.399 919.214 681.149 919.349 683.11 919.957Z" fill="#1B98E0"/>
<path d="M806.963 905.353C804.552 905.668 801.306 906.547 799.007 907.539C793.237 910.063 788.03 915.09 785.303 920.815C782.148 927.464 781.764 935.646 784.311 942.497C787.534 951.288 794.274 957.328 803.74 959.92C806.107 960.574 812.463 960.732 815.371 960.236C822.335 959.019 829.277 954.533 833.222 948.718C836.49 943.895 838 938.846 838 932.941C838 926.9 836.603 922.257 833.289 917.186C831.847 914.999 828.128 911.326 825.739 909.748C820.329 906.187 813.387 904.564 806.963 905.353ZM813.928 919.981C819.225 921.806 822.47 927.306 822.11 933.842C821.907 937.697 820.712 940.627 818.413 942.881C813.928 947.298 806.31 947.186 801.757 942.655C796.257 937.156 797.023 926.269 803.267 921.671C804.597 920.679 806.4 919.891 808.09 919.53C809.465 919.214 812.44 919.462 813.928 919.981Z" fill="#1B98E0"/>
<path d="M418.566 906.341C417.056 906.995 417.123 906.228 417.214 924.778L417.281 941.502L417.89 943.644C420.301 952.344 425.463 957.844 433.171 959.917C435.651 960.571 440.361 960.638 442.615 960.03C446.92 958.88 450.707 955.95 453.051 952.006L453.637 950.992L453.795 951.668C454.719 955.545 455.282 957.528 455.688 958.204C456.545 959.579 456.973 959.692 461.887 959.602C466.169 959.534 466.259 959.534 466.868 958.97C468.13 957.776 468.085 958.97 468.085 932.847C468.085 911.345 468.04 908.618 467.724 907.829C467.071 906.161 466.935 906.116 460.219 906.048C453.885 905.981 453.457 906.026 452.488 907.062L451.969 907.626L451.857 922.975L451.744 938.347L450.955 939.812C449.4 942.742 446.132 945.064 443.179 945.357C439.482 945.74 435.515 943.396 433.757 939.812L433.036 938.347L432.923 922.908C432.833 911.074 432.743 907.355 432.518 906.972C432.067 906.161 430.895 906.003 424.922 906.003C420.64 906.026 419.107 906.093 418.566 906.341Z" fill="#1B98E0"/>
</svg>
