<svg xmlns="http://www.w3.org/2000/svg" width="24" height="32" viewBox="0 0 24 32" fill="none">
<path d="M3 31.75C2.175 31.75 1.469 31.4565 0.882 30.8695C0.295 30.2825 0.001 29.576 0 28.75V13.75C0 12.925 0.294 12.219 0.882 11.632C1.47 11.045 2.176 10.751 3 10.75H4.5V7.75C4.5 5.675 5.2315 3.9065 6.6945 2.4445C8.1575 0.982501 9.926 0.251001 12 0.250001C14.074 0.249001 15.843 0.980501 17.307 2.4445C18.771 3.9085 19.502 5.677 19.5 7.75V10.75H21C21.825 10.75 22.5315 11.044 23.1195 11.632C23.7075 12.22 24.001 12.926 24 13.75V28.75C24 29.575 23.7065 30.2815 23.1195 30.8695C22.5325 31.4575 21.826 31.751 21 31.75H3ZM12 24.25C12.825 24.25 13.5315 23.9565 14.1195 23.3695C14.7075 22.7825 15.001 22.076 15 21.25C14.999 20.424 14.7055 19.718 14.1195 19.132C13.5335 18.546 12.827 18.252 12 18.25C11.173 18.248 10.467 18.542 9.882 19.132C9.297 19.722 9.003 20.428 9 21.25C8.997 22.072 9.291 22.7785 9.882 23.3695C10.473 23.9605 11.179 24.254 12 24.25ZM7.5 10.75H16.5V7.75C16.5 6.5 16.0625 5.4375 15.1875 4.5625C14.3125 3.6875 13.25 3.25 12 3.25C10.75 3.25 9.6875 3.6875 8.8125 4.5625C7.9375 5.4375 7.5 6.5 7.5 7.75V10.75Z" fill="#fff"/>
</svg>