<?xml version="1.0" standalone="no"?>
<!DOCTYPE svg PUBLIC "-//W3C//DTD SVG 20010904//EN"
 "http://www.w3.org/TR/2001/REC-SVG-20010904/DTD/svg10.dtd">
<svg version="1.0" xmlns="http://www.w3.org/2000/svg"
 width="512.000000pt" height="512.000000pt" viewBox="0 0 512.000000 512.000000"
 preserveAspectRatio="xMidYMid meet">

<g transform="translate(0.000000,512.000000) scale(0.100000,-0.100000)"
fill="#006494" stroke="none">
<path d="M660 4864 c-234 -50 -436 -254 -485 -489 -22 -105 -22 -2885 0 -2990
38 -182 169 -351 336 -433 145 -72 146 -72 844 -72 l621 0 204 -297 c113 -163
218 -306 233 -317 37 -27 131 -29 169 -4 15 10 136 152 270 318 l243 300 645
0 c725 0 726 0 870 71 164 81 298 255 335 434 22 105 22 2885 0 2990 -37 179
-171 353 -335 434 -154 76 -14 71 -2055 70 -1527 0 -1841 -3 -1895 -15z m1625
-1054 c91 -29 129 -49 210 -110 l67 -51 42 34 c158 130 365 183 552 142 386
-84 609 -473 489 -852 -44 -139 -85 -188 -567 -675 -394 -398 -447 -448 -480
-454 -95 -16 -75 -32 -556 454 -483 487 -523 534 -568 676 -116 369 95 752
469 847 95 25 243 20 342 -11z"/>
</g>
</svg>
