<svg xmlns="http://www.w3.org/2000/svg" width="24" height="24" viewBox="0 0 16 16">
                            <path fill="#2888B1" fill-rule="evenodd" d="M9.744 2.072L7.818.917L5.892 2.072l-2.237.198l-.88 2.066l-1.693 1.475L1.585 8l-.503 2.189l1.693 1.475l.88 2.066l2.237.198l1.926 1.155l1.926-1.155l2.237-.198l.88-2.066l1.694-1.475L14.05 8l.504-2.189l-1.694-1.475l-.88-2.066zM5.5 6.5a.5.5 0 1 1 1 0a.5.5 0 0 1-1 0M6 5a1.5 1.5 0 1 0 0 3a1.5 1.5 0 0 0 0-3m-.146 5.854l5-5l-.708-.708l-5 5zM9.5 10a.5.5 0 1 1 1 0a.5.5 0 0 1-1 0m.5-1.5a1.5 1.5 0 1 0 0 3a1.5 1.5 0 0 0 0-3" clip-rule="evenodd" />
                        </svg>