                <svg xmlns="http://www.w3.org/2000/svg" width="28" height="28" viewBox="0 0 24 24" fill="none">
                  <path d="M0 3.81814C0 2.01302 1.34531 0.54541 3 0.54541H21C22.6547 0.54541 24 2.01302 24 3.81814V20.1818C24 21.9869 22.6547 23.4545 21 23.4545H3C1.34531 23.4545 0 21.9869 0 20.1818V3.81814ZM15.1781 9.26416C14.9672 8.92666 14.6203 8.72723 14.25 8.72723C13.8797 8.72723 13.5281 8.92666 13.3219 9.26416L9.24375 15.7892L8.00156 14.0965C7.78594 13.8051 7.4625 13.6363 7.125 13.6363C6.7875 13.6363 6.45938 13.8051 6.24844 14.0965L3.24844 18.1875C2.97656 18.5556 2.925 19.0619 3.1125 19.4863C3.3 19.9108 3.69375 20.1818 4.125 20.1818H19.875C20.2922 20.1818 20.6766 19.9312 20.8688 19.5272C21.0609 19.1233 21.0375 18.6375 20.8031 18.2642L15.1781 9.26416ZM5.25 8.72723C5.84674 8.72723 6.41903 8.46863 6.84099 8.00831C7.26295 7.54799 7.5 6.92367 7.5 6.27268C7.5 5.6217 7.26295 4.99737 6.84099 4.53706C6.41903 4.07674 5.84674 3.81814 5.25 3.81814C4.65326 3.81814 4.08097 4.07674 3.65901 4.53706C3.23705 4.99737 3 5.6217 3 6.27268C3 6.92367 3.23705 7.54799 3.65901 8.00831C4.08097 8.46863 4.65326 8.72723 5.25 8.72723Z" fill="#247BA0" />
                </svg>