<svg xmlns="http://www.w3.org/2000/svg" width="28" height="28" viewBox="0 0 24 24" fill="none">
                  <path
                    d="M10.3998 7.1998H5.5998V10.3998H10.3998V7.1998ZM0.799805 5.5998C0.799805 4.32677 1.30552 3.10587 2.20569 2.20569C3.10587 1.30552 4.32677 0.799805 5.5998 0.799805H15.1998V23.1998H5.5998C4.32677 23.1998 3.10587 22.6941 2.20569 21.7939C1.30552 20.8937 0.799805 19.6728 0.799805 18.3998V5.5998ZM3.9998 7.1998V10.3998C3.9998 10.8242 4.16838 11.2311 4.46843 11.5312C4.76849 11.8312 5.17546 11.9998 5.5998 11.9998H10.3998C10.8242 11.9998 11.2311 11.8312 11.5312 11.5312C11.8312 11.2311 11.9998 10.8242 11.9998 10.3998V7.1998C11.9998 6.77546 11.8312 6.36849 11.5312 6.06843C11.2311 5.76838 10.8242 5.5998 10.3998 5.5998H5.5998C5.17546 5.5998 4.76849 5.76838 4.46843 6.06843C4.16838 6.36849 3.9998 6.77546 3.9998 7.1998ZM4.7998 13.5998C4.58763 13.5998 4.38415 13.6841 4.23412 13.8341C4.08409 13.9841 3.9998 14.1876 3.9998 14.3998C3.9998 14.612 4.08409 14.8155 4.23412 14.9655C4.38415 15.1155 4.58763 15.1998 4.7998 15.1998H11.1998C11.412 15.1998 11.6155 15.1155 11.7655 14.9655C11.9155 14.8155 11.9998 14.612 11.9998 14.3998C11.9998 14.1876 11.9155 13.9841 11.7655 13.8341C11.6155 13.6841 11.412 13.5998 11.1998 13.5998H4.7998ZM3.9998 17.5998C3.9998 17.812 4.08409 18.0155 4.23412 18.1655C4.38415 18.3155 4.58763 18.3998 4.7998 18.3998H11.1998C11.412 18.3998 11.6155 18.3155 11.7655 18.1655C11.9155 18.0155 11.9998 17.812 11.9998 17.5998C11.9998 17.3876 11.9155 17.1841 11.7655 17.0341C11.6155 16.8841 11.412 16.7998 11.1998 16.7998H4.7998C4.58763 16.7998 4.38415 16.8841 4.23412 17.0341C4.08409 17.1841 3.9998 17.3876 3.9998 17.5998ZM16.7998 23.1998H18.3998C19.6728 23.1998 20.8937 22.6941 21.7939 21.7939C22.6941 20.8937 23.1998 19.6728 23.1998 18.3998V16.7998H16.7998V23.1998ZM23.1998 15.1998V8.7998H16.7998V15.1998H23.1998ZM23.1998 7.1998V5.5998C23.1998 4.32677 22.6941 3.10587 21.7939 2.20569C20.8937 1.30552 19.6728 0.799805 18.3998 0.799805H16.7998V7.1998H23.1998Z"
                    fill="#247BA0" />
                </svg>