<svg xmlns="http://www.w3.org/2000/svg" width="29" height="28" viewBox="0 0 29 28" fill="none">
  <path d="M21.7353 5.04C20.7723 5.04 20.05 5.76 20.05 6.72C20.05 7.68 20.7723 8.4 21.7353 8.4C22.6983 8.4 23.4205 7.68 23.4205 6.72C23.4205 5.76 22.6983 5.04 21.7353 5.04Z" fill="#006494"/>
  <path d="M14.4325 7.28C10.6621 7.28 7.69146 10.4834 7.69146 14.28C7.69146 18.0766 10.7763 21.28 14.4325 21.28C18.0886 21.28 21.1735 18.0766 21.1735 14.28C21.1735 10.4834 18.2029 7.28 14.4325 7.28ZM14.4325 18.7885C12.0331 18.7885 10.0908 16.7715 10.0908 14.28C10.0908 11.7885 12.0331 9.77153 14.4325 9.77153C16.8318 9.77153 18.7742 11.7885 18.7742 14.28C18.7742 16.7715 16.8318 18.7885 14.4325 18.7885Z" fill="#006494"/>
  <path d="M20.1304 0H8.96692C4.149 0 0.388672 3.74895 0.388672 8.43515V19.5649C0.388672 24.251 4.149 28 8.84941 28H20.0129C24.7133 28 28.4736 24.251 28.4736 19.5649V8.43515C28.5911 3.74895 24.8308 0 20.1304 0ZM25.8884 19.682C25.8884 22.8452 23.3032 25.5397 20.0129 25.5397H8.84941C5.67663 25.5397 2.9739 22.9623 2.9739 19.682V8.5523C2.9739 5.38912 5.55912 2.69456 8.84941 2.69456H20.0129C23.1857 2.69456 25.8884 5.27197 25.8884 8.5523V19.682Z" fill="#006494"/>
</svg>