<svg width="28" height="24" viewBox="0 0 28 24" fill="none" xmlns="http://www.w3.org/2000/svg">
<g clip-path="url(#clip0_7758_13658)">
<path d="M8.1845 7.875L9.371 0H3.2L0.6215 6.75C0.5415 6.99 0.501 7.24 0.5 7.5C0.5 9.156 2.225 10.5 4.3565 10.5C6.3215 10.5 7.946 9.354 8.1845 7.875ZM14 10.5C16.13 10.5 17.8565 9.156 17.8565 7.5C17.8555 7.438 17.853 7.3775 17.849 7.3185L17.0855 0H10.9145L10.1495 7.3125L10.1435 7.5C10.1435 9.156 11.87 10.5 14 10.5ZM21.5 12.069V18H6.5V12.078C5.843 12.315 5.12 12.45 4.3565 12.45C4.064 12.45 3.7805 12.4155 3.5 12.3765V21.9C3.5 23.055 4.4435 24 5.597 24H22.4C23.555 24 24.5 23.0535 24.5 21.9V12.378C24.2166 12.4229 23.9304 12.4475 23.6435 12.4515C22.9122 12.4494 22.1869 12.3199 21.5 12.069ZM27.38 6.75L24.7985 0H18.629L19.814 7.863C20.045 9.348 21.6695 10.5 23.6435 10.5C25.7735 10.5 27.5 9.156 27.5 7.5C27.499 7.24 27.459 6.99 27.38 6.75Z" fill="#F9F9FC"/>
</g>
<defs>
<clipPath id="clip0_7758_13658">
<rect width="28" height="24" fill="white"/>
</clipPath>
</defs>
</svg>
