<svg width="34" height="30" viewBox="0 0 34 30" fill="none" xmlns="http://www.w3.org/2000/svg">
<path d="M17.0348 25.6029C14.8932 25.6029 12.9381 25.2212 11.1803 24.6042L14.8105 20.9718C15.4933 21.2263 16.2312 21.362 16.9967 21.362C20.4954 21.362 23.358 18.4994 23.358 15.0007C23.358 14.2331 23.2223 13.4952 22.9699 12.8145L27.8152 7.9693C30.0523 9.56903 32.0078 11.5296 33.6018 13.7708C33.8606 14.1287 33.9998 14.5591 33.9998 15.0007C33.9998 15.4423 33.8606 15.8727 33.6018 16.2305C32.056 18.4358 26.3012 25.6029 17.0348 25.6029ZM19.238 9.0486L22.8894 5.3972C21.0085 4.73504 19.0288 4.39733 17.0348 4.39847C7.76849 4.39847 2.01361 11.5656 0.467812 13.7708C0.209091 14.1287 0.0698242 14.5591 0.0698242 15.0007C0.0698242 15.4423 0.209091 15.8727 0.467812 16.2305C1.27782 17.3841 3.23923 19.8989 6.2545 22.0321L11.0467 17.2399C10.776 16.5243 10.6367 15.7657 10.6353 15.0007C10.6353 11.502 13.4979 8.63936 16.9967 8.63936C17.7855 8.63936 18.5403 8.78355 19.238 9.0486ZM4.00259 29.5342C3.90401 29.6328 3.78699 29.711 3.65819 29.7643C3.5294 29.8177 3.39136 29.8451 3.25195 29.8451C3.11255 29.8451 2.97451 29.8177 2.84571 29.7643C2.71692 29.711 2.59989 29.6328 2.50132 29.5342C2.40274 29.4356 2.32455 29.3186 2.2712 29.1898C2.21785 29.061 2.19039 28.923 2.19039 28.7836C2.19039 28.6441 2.21785 28.5061 2.2712 28.3773C2.32455 28.2485 2.40274 28.1315 2.50132 28.0329L30.0671 0.467174C30.2661 0.268093 30.5362 0.15625 30.8177 0.15625C31.0992 0.15625 31.3693 0.268093 31.5683 0.467174C31.7674 0.666255 31.8793 0.936267 31.8793 1.21781C31.8793 1.49935 31.7674 1.76937 31.5683 1.96845L4.00259 29.5342ZM16.5683 19.2161C17.2002 19.2861 17.8398 19.2131 18.4396 19.0026C19.0395 18.792 19.5844 18.4493 20.0339 17.9998C20.4835 17.5502 20.8262 17.0054 21.0367 16.4055C21.2473 15.8056 21.3202 15.1661 21.2503 14.5342L16.5683 19.2161ZM17.5013 10.7852C16.8694 10.7153 16.2299 10.7882 15.63 10.9988C15.0301 11.2093 14.4853 11.5521 14.0357 12.0016C13.5862 12.4511 13.2435 12.996 13.0329 13.5959C12.8224 14.1958 12.7494 14.8353 12.8194 15.4672L17.5013 10.7852Z" fill="#1B98E0"/>
</svg>
