<svg xmlns="http://www.w3.org/2000/svg" width="64" height="44" viewBox="0 0 64 44" fill="none">
<path d="M58.6667 35.3385H48V16.6719H58.6667M61.3333 11.3385H45.3333C44.6261 11.3385 43.9478 11.6195 43.4477 12.1196C42.9476 12.6197 42.6667 13.298 42.6667 14.0052V40.6719C42.6667 41.3791 42.9476 42.0574 43.4477 42.5575C43.9478 43.0576 44.6261 43.3385 45.3333 43.3385H61.3333C62.0406 43.3385 62.7189 43.0576 63.219 42.5575C63.7191 42.0574 64 41.3791 64 40.6719V14.0052C64 13.298 63.7191 12.6197 63.219 12.1196C62.7189 11.6195 62.0406 11.3385 61.3333 11.3385ZM10.6667 6.00521H58.6667V0.671875H10.6667C9.25218 0.671875 7.89562 1.23378 6.89543 2.23397C5.89524 3.23417 5.33333 4.59072 5.33333 6.00521V35.3385H0V43.3385H37.3333V35.3385H10.6667V6.00521Z" fill="#006494"/>
</svg>