<?xml version="1.0" standalone="no"?>
<!DOCTYPE svg PUBLIC "-//W3C//DTD SVG 20010904//EN"
 "http://www.w3.org/TR/2001/REC-SVG-20010904/DTD/svg10.dtd">
<svg version="1.0" xmlns="http://www.w3.org/2000/svg"
 width="512.000000pt" height="512.000000pt" viewBox="0 0 512.000000 512.000000"
 preserveAspectRatio="xMidYMid meet">

<g transform="translate(0.000000,512.000000) scale(0.100000,-0.100000)"
fill="#006494" stroke="none">
<path d="M1155 5110 c-198 -44 -352 -180 -417 -368 -32 -95 -32 -249 0 -344
56 -164 180 -288 348 -350 85 -31 263 -31 348 0 168 62 292 186 348 350 32 95
32 249 0 344 -57 164 -183 291 -348 349 -67 23 -215 33 -279 19z"/>
<path d="M3112 5100 c-109 -29 -187 -74 -272 -160 -87 -86 -131 -163 -160
-276 -36 -141 -18 -294 52 -427 42 -81 164 -203 245 -245 133 -70 286 -88 427
-52 113 29 190 73 276 160 87 86 131 163 160 276 36 141 18 294 -52 427 -42
81 -164 203 -245 245 -132 69 -291 88 -431 52z"/>
<path d="M4722 5106 c-93 -31 -170 -109 -198 -204 -10 -31 -14 -104 -14 -238
0 -214 -8 -269 -53 -364 -72 -153 -264 -280 -425 -280 -20 0 -33 -8 -44 -28
-28 -47 -149 -165 -216 -211 -85 -58 -190 -106 -287 -132 -115 -32 -335 -32
-450 0 -125 34 -308 129 -354 185 -21 25 -41 19 -113 -35 -180 -135 -316 -344
-379 -584 -24 -90 -24 -92 -24 -660 l0 -570 33 -67 c38 -77 92 -130 171 -166
48 -23 73 -27 174 -30 l117 -4 0 -799 c0 -782 0 -801 20 -839 37 -72 67 -80
305 -80 l205 0 0 809 0 808 23 34 c59 89 185 89 244 0 l23 -34 0 -808 0 -809
205 0 c238 0 268 8 305 80 20 39 20 55 20 1688 l0 1649 81 7 c271 22 499 127
690 316 128 126 208 253 266 420 51 145 58 202 58 480 0 238 -1 258 -21 301
-31 65 -78 114 -140 145 -66 32 -159 40 -222 20z"/>
<path d="M1850 3963 c-97 -99 -210 -165 -357 -210 -78 -23 -104 -26 -233 -26
-129 0 -155 3 -233 26 -125 39 -226 93 -315 169 l-32 28 -55 -24 c-30 -14 -87
-46 -127 -72 -234 -150 -386 -362 -460 -641 -23 -87 -23 -93 -23 -658 l0 -570
33 -67 c38 -77 92 -130 171 -166 48 -23 73 -27 174 -30 l117 -4 0 -799 c0
-782 0 -801 20 -839 37 -72 67 -80 305 -80 l205 0 0 809 0 808 23 34 c59 89
185 89 244 0 l23 -34 0 -808 0 -809 205 0 c186 0 210 2 245 20 81 42 74 -102
81 1610 6 1667 2 1552 64 1749 65 204 173 380 330 539 l102 102 -226 -1 -226
0 -55 -56z"/>
</g>
</svg>
