<svg width="187" height="50" viewBox="0 0 187 50" fill="none" xmlns="http://www.w3.org/2000/svg">
<rect width="187" height="50" rx="5" fill="#2182BA"/>
<rect width="187" height="50" rx="5" fill="#1B98E0"/>
<path d="M72.158 27.3C72.4513 27.82 72.7713 28.2733 73.118 28.66C73.478 29.0467 73.8713 29.3467 74.298 29.56C74.7246 29.7733 75.1846 29.88 75.678 29.88C76.2513 29.88 76.718 29.7333 77.078 29.44C77.438 29.1467 77.618 28.7467 77.618 28.24C77.618 27.8 77.5046 27.4467 77.278 27.18C77.0646 26.9133 76.738 26.68 76.298 26.48C75.8713 26.2667 75.3446 26.04 74.718 25.8C74.3846 25.68 73.998 25.52 73.558 25.32C73.1313 25.1067 72.7246 24.84 72.338 24.52C71.9513 24.1867 71.6313 23.7867 71.378 23.32C71.1246 22.84 70.998 22.2667 70.998 21.6C70.998 20.8 71.198 20.1133 71.598 19.54C72.0113 18.9533 72.5646 18.5067 73.258 18.2C73.9646 17.88 74.7513 17.72 75.618 17.72C76.5113 17.72 77.278 17.8733 77.918 18.18C78.5713 18.4733 79.1113 18.8533 79.538 19.32C79.978 19.7733 80.318 20.2467 80.558 20.74L78.318 21.98C78.1313 21.6467 77.9046 21.3467 77.638 21.08C77.3846 20.8 77.0913 20.58 76.758 20.42C76.4246 20.2467 76.0446 20.16 75.618 20.16C75.058 20.16 74.638 20.2933 74.358 20.56C74.078 20.8133 73.938 21.1133 73.938 21.46C73.938 21.8067 74.0513 22.1133 74.278 22.38C74.5046 22.6333 74.8513 22.88 75.318 23.12C75.7846 23.3467 76.3713 23.58 77.078 23.82C77.5313 23.98 77.9646 24.18 78.378 24.42C78.8046 24.66 79.1846 24.9533 79.518 25.3C79.8646 25.6333 80.1313 26.0333 80.318 26.5C80.518 26.9533 80.618 27.48 80.618 28.08C80.618 28.76 80.4846 29.3667 80.218 29.9C79.9513 30.4333 79.5846 30.8867 79.118 31.26C78.6513 31.62 78.1246 31.8933 77.538 32.08C76.9646 32.28 76.358 32.38 75.718 32.38C74.8646 32.38 74.0646 32.22 73.318 31.9C72.5846 31.5667 71.9446 31.12 71.398 30.56C70.8513 30 70.4246 29.3933 70.118 28.74L72.158 27.3ZM84.8897 28.82L85.2297 26.56H91.9497L92.2897 28.82H84.8897ZM88.5497 22.54L86.4497 27.36L86.5097 28L84.6697 32H81.4497L88.5497 17.18L95.6497 32H92.4097L90.6097 28.12L90.6497 27.4L88.5497 22.54ZM97.1684 18H100.028V29.5H105.608V32H97.1684V18ZM110.854 27.12L114.634 18H117.954L110.854 32.82L103.754 18H107.054L110.854 27.12ZM119.421 28.82L119.761 26.56H126.481L126.821 28.82H119.421ZM123.081 22.54L120.981 27.36L121.041 28L119.201 32H115.981L123.081 17.18L130.181 32H126.941L125.141 28.12L125.181 27.4L123.081 22.54ZM134.88 25.48H137.9L142.46 32H139.08L134.88 25.48ZM131.7 18H134.56V32H131.7V18ZM133.44 20.44V18H136.4C137.506 18 138.446 18.1867 139.22 18.56C139.993 18.9333 140.586 19.4533 141 20.12C141.413 20.7867 141.62 21.5667 141.62 22.46C141.62 23.34 141.413 24.12 141 24.8C140.586 25.4667 139.993 25.9867 139.22 26.36C138.446 26.7333 137.506 26.92 136.4 26.92H133.44V24.64H136.22C136.726 24.64 137.16 24.56 137.52 24.4C137.893 24.2267 138.18 23.9867 138.38 23.68C138.58 23.36 138.68 22.98 138.68 22.54C138.68 22.1 138.58 21.7267 138.38 21.42C138.18 21.1 137.893 20.86 137.52 20.7C137.16 20.5267 136.726 20.44 136.22 20.44H133.44Z" fill="white"/>
<path fill-rule="evenodd" clip-rule="evenodd" d="M63.1663 25.0007C63.1663 30.0634 59.0624 34.1673 53.9997 34.1673C48.9369 34.1673 44.833 30.0634 44.833 25.0007C44.833 19.9379 48.9369 15.834 53.9997 15.834C59.0624 15.834 63.1663 19.9379 63.1663 25.0007ZM58.4125 22.7832C58.4824 22.6852 58.5324 22.5744 58.5595 22.4571C58.5866 22.3399 58.5904 22.2184 58.5706 22.0996C58.5507 21.9809 58.5077 21.8672 58.4439 21.7651C58.3802 21.663 58.2969 21.5744 58.1989 21.5045C58.1009 21.4345 57.9901 21.3846 57.8728 21.3575C57.7555 21.3304 57.6341 21.3266 57.5153 21.3464C57.3966 21.3663 57.2829 21.4093 57.1808 21.4731C57.0787 21.5368 56.9901 21.6201 56.9202 21.7181L52.9657 27.2547L50.9811 25.2692C50.8082 25.1023 50.5767 25.0099 50.3363 25.012C50.096 25.014 49.866 25.1104 49.6961 25.2804C49.5261 25.4504 49.4297 25.6803 49.4276 25.9206C49.4256 26.161 49.5179 26.3925 49.6849 26.5654L52.4349 29.3154C52.5291 29.4094 52.6425 29.4818 52.7675 29.5275C52.8924 29.5732 53.0258 29.5912 53.1583 29.5803C53.2909 29.5693 53.4195 29.5296 53.5352 29.4639C53.6509 29.3982 53.7509 29.3081 53.8283 29.1999L58.4125 22.7832Z" fill="white"/>
</svg>
