<svg width="260" height="264" viewBox="0 0 260 264" fill="none" xmlns="http://www.w3.org/2000/svg">
<path d="M0 10C0 4.47716 4.47715 0 10 0H250C255.523 0 260 4.47715 260 10V254C260 259.523 255.523 264 250 264H10C4.47716 264 0 259.523 0 254V10Z" fill="white"/>
<path d="M204.724 205.615C205.384 205.615 205.863 204.987 205.678 204.354C201.039 188.457 191.314 174.427 177.92 164.347C164.172 154.001 147.328 148.393 130 148.393C112.672 148.393 95.8276 154 82.0802 164.347C68.6857 174.427 58.9603 188.456 54.3214 204.354C54.1367 204.987 54.6156 205.615 55.2752 205.615L130 205.615H204.724Z" fill="#0F3B62"/>
<ellipse cx="130" cy="98.3333" rx="43.75" ry="42.0833" fill="#0F3B62"/>
</svg>
