<svg width="24" height="24" viewBox="0 0 24 24" fill="none" xmlns="http://www.w3.org/2000/svg">
<path d="M10.4008 7.20078H5.60078V10.4008H10.4008V7.20078ZM0.800781 5.60078C0.800781 4.32774 1.30649 3.10684 2.20667 2.20667C3.10684 1.30649 4.32774 0.800781 5.60078 0.800781H15.2008V23.2008H5.60078C4.32774 23.2008 3.10684 22.6951 2.20667 21.7949C1.30649 20.8947 0.800781 19.6738 0.800781 18.4008V5.60078ZM4.00078 7.20078V10.4008C4.00078 10.8251 4.16935 11.2321 4.46941 11.5322C4.76947 11.8322 5.17643 12.0008 5.60078 12.0008H10.4008C10.8251 12.0008 11.2321 11.8322 11.5322 11.5322C11.8322 11.2321 12.0008 10.8251 12.0008 10.4008V7.20078C12.0008 6.77643 11.8322 6.36947 11.5322 6.06941C11.2321 5.76935 10.8251 5.60078 10.4008 5.60078H5.60078C5.17643 5.60078 4.76947 5.76935 4.46941 6.06941C4.16935 6.36947 4.00078 6.77643 4.00078 7.20078ZM4.80078 13.6008C4.58861 13.6008 4.38513 13.6851 4.2351 13.8351C4.08507 13.9851 4.00078 14.1886 4.00078 14.4008C4.00078 14.613 4.08507 14.8164 4.2351 14.9665C4.38513 15.1165 4.58861 15.2008 4.80078 15.2008H11.2008C11.413 15.2008 11.6164 15.1165 11.7665 14.9665C11.9165 14.8164 12.0008 14.613 12.0008 14.4008C12.0008 14.1886 11.9165 13.9851 11.7665 13.8351C11.6164 13.6851 11.413 13.6008 11.2008 13.6008H4.80078ZM4.00078 17.6008C4.00078 17.813 4.08507 18.0164 4.2351 18.1665C4.38513 18.3165 4.58861 18.4008 4.80078 18.4008H11.2008C11.413 18.4008 11.6164 18.3165 11.7665 18.1665C11.9165 18.0164 12.0008 17.813 12.0008 17.6008C12.0008 17.3886 11.9165 17.1851 11.7665 17.0351C11.6164 16.8851 11.413 16.8008 11.2008 16.8008H4.80078C4.58861 16.8008 4.38513 16.8851 4.2351 17.0351C4.08507 17.1851 4.00078 17.3886 4.00078 17.6008ZM16.8008 23.2008H18.4008C19.6738 23.2008 20.8947 22.6951 21.7949 21.7949C22.6951 20.8947 23.2008 19.6738 23.2008 18.4008V16.8008H16.8008V23.2008ZM23.2008 15.2008V8.80078H16.8008V15.2008H23.2008ZM23.2008 7.20078V5.60078C23.2008 4.32774 22.6951 3.10684 21.7949 2.20667C20.8947 1.30649 19.6738 0.800781 18.4008 0.800781H16.8008V7.20078H23.2008Z" fill="#247BA0"/>
</svg>
