<svg xmlns="http://www.w3.org/2000/svg" width="16" height="18" viewBox="0 0 16 18" fill="none">
  <path fill-rule="evenodd" clip-rule="evenodd" d="M8.39804 16.901C9.88097 16.1271 12.6667 12.8095 15 8.04299C15 4.15326 11.866 1 8 1C4.13401 1 1 4.15326 1 8.04299C2.86667 12.8095 6.11903 16.1271 7.60196 16.901C7.85483 17.033 8.14517 17.033 8.39804 16.901ZM8 11.0614C9.65685 11.0614 11 9.71002 11 8.04299C11 6.37596 9.65685 5.02457 8 5.02457C6.34315 5.02457 5 6.37596 5 8.04299C5 9.71002 6.34315 11.0614 8 11.0614Z" stroke="#006494" stroke-width="2"/>
</svg>