<svg xmlns="http://www.w3.org/2000/svg" width="17" height="15" viewBox="0 0 17 15" fill="none">
  <path d="M12.3339 3.65906C12.7721 3.54008 13.239 3.60237 13.6319 3.83222C14.0248 4.06208 14.3115 4.44067 14.429 4.88471C14.5464 5.32876 14.4849 5.80188 14.2581 6.2C14.0312 6.59812 13.6576 6.88862 13.2194 7.0076C12.7811 7.12659 12.3142 7.0643 11.9213 6.83444M5.07871 3.83222C4.6858 3.60237 4.21887 3.54008 3.78064 3.65906C3.3424 3.77804 2.96877 4.06855 2.74192 4.46667C2.51507 4.86479 2.4536 5.33791 2.57103 5.78195C2.68845 6.226 2.97515 6.60459 3.36806 6.83444C3.76097 7.0643 4.2279 7.12659 4.66613 7.0076C5.10436 6.88862 5.44297 6.8132 5.66981 6.41508M11.9213 4.46667C11.9213 6.38125 10.3895 7.93333 8.5 7.93333C6.61047 7.93333 5.07871 6.38125 5.07871 4.46667C5.07871 2.55208 6.61047 1 8.5 1C10.3895 1 11.9213 2.55208 11.9213 4.46667ZM15.229 13.1333H12.6754C12.5076 12.2895 12.0621 11.0284 10.8785 10.2825C11.3538 9.9167 11.9727 9.66667 12.7766 9.66667C14.7396 9.66667 15.5993 11.1573 15.9586 12.1836C16.1306 12.6749 15.7435 13.1333 15.229 13.1333ZM4.2234 9.66667C5.02736 9.66667 5.64625 9.91669 6.1215 10.2824C4.93788 11.0283 4.49233 12.2895 4.32461 13.1333H1.77099C1.25651 13.1333 0.869425 12.6749 1.04141 12.1836C1.40069 11.1573 2.26039 9.66667 4.2234 9.66667ZM8.5 9.66667C5.44518 9.66667 4.57244 11.8777 4.32311 13.141C4.23047 13.6104 4.60632 14 5.07871 14H11.9213C12.3937 14 12.7695 13.6104 12.6769 13.141C12.4276 11.8777 11.5548 9.66667 8.5 9.66667Z" stroke="#006494" stroke-width="2" stroke-linecap="round"/>
</svg>