<svg xmlns="http://www.w3.org/2000/svg" width="17" height="17" viewBox="0 0 17 17" fill="none">
  <path d="M6.88599 3.64133C7.56995 1.88044 7.91193 1 8.5 1C9.08807 1 9.43005 1.88044 10.114 3.64133L10.1459 3.72333C10.5323 4.71814 10.7255 5.21555 11.1192 5.51788C11.513 5.82021 12.0299 5.86802 13.0636 5.96363L13.2505 5.98092C14.9424 6.1374 15.7884 6.21564 15.9694 6.77145C16.1504 7.32727 15.5222 7.91754 14.2657 9.09807L13.8463 9.49207C13.2103 10.0897 12.8923 10.3885 12.744 10.7801C12.7164 10.8532 12.6934 10.928 12.6752 11.0042C12.5778 11.4124 12.6709 11.8459 12.8572 12.7128L12.9151 12.9827C13.2574 14.576 13.4286 15.3726 13.1298 15.7162C13.0181 15.8446 12.873 15.9371 12.7117 15.9825C12.2803 16.1041 11.6677 15.5886 10.4427 14.5577C9.63821 13.8807 9.23599 13.5422 8.77419 13.4661C8.59255 13.4361 8.40745 13.4361 8.22581 13.4661C7.76401 13.5422 7.36179 13.8807 6.55734 14.5577C5.33225 15.5886 4.7197 16.1041 4.28825 15.9825C4.12703 15.9371 3.9819 15.8446 3.87024 15.7162C3.57141 15.3726 3.74256 14.576 4.08486 12.9827L4.14283 12.7128C4.32909 11.8459 4.42222 11.4124 4.32479 11.0042C4.30661 10.928 4.28362 10.8532 4.25597 10.7801C4.10775 10.3885 3.78972 10.0897 3.15367 9.49207L2.73432 9.09807C1.47785 7.91754 0.849612 7.32727 1.03062 6.77145C1.21164 6.21564 2.05759 6.1374 3.74948 5.98092L3.93637 5.96363C4.97014 5.86802 5.48703 5.82021 5.88079 5.51788C6.27454 5.21555 6.46774 4.71814 6.85414 3.72333L6.88599 3.64133Z" stroke="#006494" stroke-width="2"/>
</svg>