<svg width="49" height="48" viewBox="0 0 65 64" fill="none" xmlns="http://www.w3.org/2000/svg">
<path d="M45.3 0H19.7C16.1704 0 13.3 3.18933 13.3 7.11111V56.8889C13.3 60.8107 16.1704 64 19.7 64H45.3C48.8296 64 51.7 60.8107 51.7 56.8889V7.11111C51.7 3.18933 48.8296 0 45.3 0ZM0.5 14.2222V49.7778C0.5 53.6996 3.3704 56.8889 6.9 56.8889V7.11111C3.3704 7.11111 0.5 10.3004 0.5 14.2222ZM58.1 7.11111V56.8889C61.6296 56.8889 64.5 53.6996 64.5 49.7778V14.2222C64.5 10.3004 61.6296 7.11111 58.1 7.11111Z" fill="#1B98E0"/>
</svg>
