<svg width="43" height="48" viewBox="0 0 49 54" fill="none" xmlns="http://www.w3.org/2000/svg">
<g clip-path="url(#clip0_5545_15077)">
<path fill-rule="evenodd" clip-rule="evenodd" d="M18.3853 1.42384C16.5 3.09584 16.5 6.15451 16.5 12.2692V41.7305C16.5 47.8452 16.5 50.9038 18.3853 52.5758C20.2707 54.2478 23.1533 53.7465 28.9187 52.7412L35.132 51.6585C41.516 50.5438 44.708 49.9865 46.604 47.6452C48.5 45.3012 48.5 41.9145 48.5 35.1385V18.8612C48.5 12.0878 48.5 8.70117 46.6067 6.35717C44.708 4.01584 41.5133 3.45851 35.1293 2.34651L28.9213 1.26117C23.156 0.255841 20.2733 -0.245493 18.388 1.42651M24.5 22.1172C25.604 22.1172 26.5 23.0532 26.5 24.2078V29.7918C26.5 30.9465 25.604 31.8825 24.5 31.8825C23.396 31.8825 22.5 30.9465 22.5 29.7918V24.2078C22.5 23.0532 23.396 22.1172 24.5 22.1172Z" fill="#D73232"/>
<path d="M12.6253 7C7.13733 7.008 4.276 7.128 2.452 8.952C0.5 10.904 0.5 14.0453 0.5 20.3333V33.6667C0.5 39.952 0.5 43.0933 2.452 45.048C4.276 46.8693 7.13733 46.992 12.6253 47C12.5 45.336 12.5 43.416 12.5 41.3387V12.6613C12.5 10.5813 12.5 8.66133 12.6253 7Z" fill="#D73232"/>
</g>
<defs>
<clipPath id="clip0_5545_15077">
<rect width="49" height="54" fill="white"/>
</clipPath>
</defs>
</svg>
