<svg width="29" height="32" viewBox="0 0 29 32" fill="none" xmlns="http://www.w3.org/2000/svg">
<path d="M17.4 8.4387V0H8.7C7.93087 0 7.19325 0.296359 6.64939 0.82388C6.10553 1.3514 5.8 2.06687 5.8 2.8129V13.4457C6.89441 13.8209 7.84758 14.5059 8.53623 15.4123C9.22488 16.3186 9.61732 17.4045 9.6628 18.5295L12.4487 15.8254C12.9928 15.2977 13.7306 15.0012 14.5 15.0012C15.2694 15.0012 16.0072 15.2977 16.5513 15.8254C17.0953 16.3531 17.4009 17.0688 17.4009 17.815C17.4009 18.5613 17.0953 19.277 16.5513 19.8047L13.7634 22.507C14.6713 22.5417 15.5581 22.7829 16.3523 23.211C17.1465 23.6392 17.8259 24.2423 18.3357 24.9718C18.8455 25.7014 19.1714 26.5368 19.2873 27.411C19.4032 28.2851 19.3057 29.1734 19.0027 30.0043H26.1C26.8691 30.0043 27.6068 29.7079 28.1506 29.1804C28.6945 28.6529 29 27.9374 29 27.1914V11.2516H20.3C19.5309 11.2516 18.7932 10.9552 18.2494 10.4277C17.7055 9.90021 17.4 9.18473 17.4 8.4387ZM7.73333 18.7527C7.73333 19.7474 7.32595 20.7013 6.60081 21.4047C5.87567 22.1081 4.89217 22.5032 3.86667 22.5032C2.84116 22.5032 1.85766 22.1081 1.13252 21.4047C0.40738 20.7013 0 19.7474 0 18.7527C0 17.758 0.40738 16.804 1.13252 16.1006C1.85766 15.3973 2.84116 15.0021 3.86667 15.0021C4.89217 15.0021 5.87567 15.3973 6.60081 16.1006C7.32595 16.804 7.73333 17.758 7.73333 18.7527ZM5.8 18.7527C5.8 18.2553 5.59631 17.7783 5.23374 17.4267C4.87117 17.075 4.37942 16.8774 3.86667 16.8774C3.35391 16.8774 2.86216 17.075 2.49959 17.4267C2.13702 17.7783 1.93333 18.2553 1.93333 18.7527C1.93333 19.25 2.13702 19.727 2.49959 20.0787C2.86216 20.4304 3.35391 20.6279 3.86667 20.6279C4.37942 20.6279 4.87117 20.4304 5.23374 20.0787C5.59631 19.727 5.8 19.25 5.8 18.7527ZM3.5844 29.7305C3.40289 29.9066 3.1567 30.0055 2.9 30.0055C2.6433 30.0055 2.39711 29.9066 2.2156 29.7305C2.03409 29.5544 1.93211 29.3156 1.93211 29.0667C1.93211 28.8177 2.03409 28.5789 2.2156 28.4028L13.8156 17.1512C13.9971 16.9751 14.2433 16.8762 14.5 16.8762C14.7567 16.8762 15.0029 16.9751 15.1844 17.1512C15.3659 17.3273 15.4679 17.5661 15.4679 17.815C15.4679 18.064 15.3659 18.3028 15.1844 18.4789L3.5844 29.7305ZM9.66667 28.129C9.65003 28.6313 9.73761 29.1316 9.92422 29.6004C10.1108 30.0692 10.3927 30.4968 10.753 30.8579C11.1133 31.219 11.5447 31.5061 12.0217 31.7023C12.4986 31.8985 13.0113 31.9997 13.5294 32C14.0475 32.0003 14.5603 31.8995 15.0375 31.7038C15.5146 31.5081 15.9463 31.2213 16.307 30.8606C16.6677 30.4999 16.95 30.0725 17.1371 29.6039C17.3242 29.1353 17.4123 28.635 17.3961 28.1328C17.3649 27.1591 16.9443 26.2354 16.2233 25.5571C15.5023 24.8789 14.5376 24.4994 13.5333 24.4989C12.5289 24.4984 11.5638 24.877 10.8421 25.5545C10.1205 26.2321 9.69892 27.1553 9.66667 28.129ZM13.5333 30.0043C13.0206 30.0043 12.5288 29.8067 12.1663 29.455C11.8037 29.1034 11.6 28.6264 11.6 28.129C11.6 27.6317 11.8037 27.1547 12.1663 26.803C12.5288 26.4513 13.0206 26.2537 13.5333 26.2537C14.0461 26.2537 14.5378 26.4513 14.9004 26.803C15.263 27.1547 15.4667 27.6317 15.4667 28.129C15.4667 28.6264 15.263 29.1034 14.9004 29.455C14.5378 29.8067 14.0461 30.0043 13.5333 30.0043ZM19.3333 8.4387V0.468817L28.5167 9.37634H20.3C20.0436 9.37634 19.7977 9.27755 19.6165 9.10171C19.4352 8.92587 19.3333 8.68738 19.3333 8.4387Z" fill="#1B98E0"/>
</svg>
