<svg width="31" height="32" viewBox="0 0 35 36" fill="none" xmlns="http://www.w3.org/2000/svg">
<path d="M15 10.5H7.5V15.5H15V10.5ZM0 8C0 6.01088 0.790177 4.10322 2.1967 2.6967C3.60322 1.29018 5.51088 0.5 7.5 0.5H22.5V35.5H7.5C5.51088 35.5 3.60322 34.7098 2.1967 33.3033C0.790177 31.8968 0 29.9891 0 28V8ZM5 10.5V15.5C5 16.163 5.26339 16.7989 5.73223 17.2678C6.20107 17.7366 6.83696 18 7.5 18H15C15.663 18 16.2989 17.7366 16.7678 17.2678C17.2366 16.7989 17.5 16.163 17.5 15.5V10.5C17.5 9.83696 17.2366 9.20107 16.7678 8.73223C16.2989 8.26339 15.663 8 15 8H7.5C6.83696 8 6.20107 8.26339 5.73223 8.73223C5.26339 9.20107 5 9.83696 5 10.5ZM6.25 20.5C5.91848 20.5 5.60054 20.6317 5.36612 20.8661C5.1317 21.1005 5 21.4185 5 21.75C5 22.0815 5.1317 22.3995 5.36612 22.6339C5.60054 22.8683 5.91848 23 6.25 23H16.25C16.5815 23 16.8995 22.8683 17.1339 22.6339C17.3683 22.3995 17.5 22.0815 17.5 21.75C17.5 21.4185 17.3683 21.1005 17.1339 20.8661C16.8995 20.6317 16.5815 20.5 16.25 20.5H6.25ZM5 26.75C5 27.0815 5.1317 27.3995 5.36612 27.6339C5.60054 27.8683 5.91848 28 6.25 28H16.25C16.5815 28 16.8995 27.8683 17.1339 27.6339C17.3683 27.3995 17.5 27.0815 17.5 26.75C17.5 26.4185 17.3683 26.1005 17.1339 25.8661C16.8995 25.6317 16.5815 25.5 16.25 25.5H6.25C5.91848 25.5 5.60054 25.6317 5.36612 25.8661C5.1317 26.1005 5 26.4185 5 26.75ZM25 35.5H27.5C29.4891 35.5 31.3968 34.7098 32.8033 33.3033C34.2098 31.8968 35 29.9891 35 28V25.5H25V35.5ZM35 23V13H25V23H35ZM35 10.5V8C35 6.01088 34.2098 4.10322 32.8033 2.6967C31.3968 1.29018 29.4891 0.5 27.5 0.5H25V10.5H35Z" fill="#1B98E0"/>
</svg>
