<svg width="19" height="19" viewBox="0 0 19 19" fill="none" xmlns="http://www.w3.org/2000/svg">
<path fill-rule="evenodd" clip-rule="evenodd" d="M18.8333 9.16667C18.8333 14.2294 14.7294 18.3333 9.66667 18.3333C4.60392 18.3333 0.5 14.2294 0.5 9.16667C0.5 4.10392 4.60392 0 9.66667 0C14.7294 0 18.8333 4.10392 18.8333 9.16667ZM14.0795 6.94925C14.1494 6.85126 14.1994 6.74046 14.2265 6.62316C14.2536 6.50587 14.2574 6.38438 14.2375 6.26564C14.2177 6.1469 14.1747 6.03322 14.1109 5.93111C14.0472 5.82899 13.9639 5.74044 13.8659 5.6705C13.7679 5.60056 13.6571 5.55061 13.5398 5.52349C13.4225 5.49637 13.3011 5.49262 13.1823 5.51245C13.0636 5.53229 12.9499 5.57531 12.8478 5.63908C12.7457 5.70284 12.6571 5.7861 12.5872 5.88408L8.63267 11.4207L6.64808 9.43525C6.4752 9.26827 6.24365 9.17588 6.0033 9.17797C5.76295 9.18005 5.53304 9.27646 5.36308 9.44642C5.19313 9.61637 5.09672 9.84629 5.09463 10.0866C5.09254 10.327 5.18494 10.5585 5.35192 10.7314L8.10192 13.4814C8.19606 13.5754 8.30953 13.6478 8.43445 13.6935C8.55937 13.7393 8.69275 13.7573 8.82533 13.7463C8.9579 13.7353 9.0865 13.6956 9.20218 13.6299C9.31787 13.5642 9.41787 13.4741 9.49525 13.3659L14.0795 6.94925Z" fill="white"/>
</svg>
