<svg width="25" height="25" viewBox="0 0 25 25" fill="none" xmlns="http://www.w3.org/2000/svg">
<path d="M12.8359 0.5C19.4635 0.5 24.8359 5.8724 24.8359 12.5C24.8359 19.1276 19.4635 24.5 12.8359 24.5C6.20834 24.5 0.835938 19.1276 0.835938 12.5C0.835938 5.8724 6.20834 0.5 12.8359 0.5ZM12.8359 5.3C12.5177 5.3 12.2125 5.42643 11.9874 5.65147C11.7624 5.87652 11.6359 6.18174 11.6359 6.5V12.5C11.636 12.8182 11.7625 13.1234 11.9875 13.3484L15.5875 16.9484C15.8139 17.167 16.117 17.2879 16.4316 17.2852C16.7463 17.2825 17.0472 17.1563 17.2697 16.9338C17.4922 16.7113 17.6184 16.4103 17.6211 16.0957C17.6239 15.781 17.5029 15.4779 17.2843 15.2516L14.0359 12.0032V6.5C14.0359 6.18174 13.9095 5.87652 13.6845 5.65147C13.4594 5.42643 13.1542 5.3 12.8359 5.3Z" fill="#247BA0"/>
</svg>
