<svg xmlns="http://www.w3.org/2000/svg" width="24" height="25" viewBox="0 0 24 25" fill="none">
  <path d="M12 24.5C9.2 24.5 6.72222 23.6502 4.56667 21.9507C2.41111 20.2511 1.01111 18.0787 0.366667 15.4333C0.277778 15.1 0.344444 14.7947 0.566667 14.5173C0.788889 14.24 1.08889 14.0787 1.46667 14.0333C1.82222 13.9889 2.14444 14.0556 2.43333 14.2333C2.72222 14.4111 2.92222 14.6778 3.03333 15.0333C3.56667 17.0333 4.66667 18.6667 6.33333 19.9333C8 21.2 9.88889 21.8333 12 21.8333C14.6 21.8333 16.8058 20.928 18.6173 19.1173C20.4289 17.3067 21.3342 15.1009 21.3333 12.5C21.3324 9.89911 20.4271 7.69378 18.6173 5.884C16.8076 4.07422 14.6018 3.16844 12 3.16667C10.4667 3.16667 9.03333 3.52222 7.7 4.23333C6.36667 4.94444 5.24444 5.92222 4.33333 7.16666H6.66667C7.04444 7.16666 7.36133 7.29466 7.61733 7.55066C7.87333 7.80666 8.00089 8.12311 8 8.5C7.99911 8.87689 7.87111 9.19378 7.616 9.45066C7.36089 9.70755 7.04444 9.83511 6.66667 9.83333H1.33333C0.955555 9.83333 0.639111 9.70533 0.384 9.44933C0.128889 9.19333 0.000888889 8.87689 0 8.5V3.16667C0 2.78889 0.128 2.47244 0.384 2.21733C0.64 1.96222 0.956444 1.83422 1.33333 1.83333C1.71022 1.83244 2.02711 1.96044 2.284 2.21733C2.54089 2.47422 2.66844 2.79067 2.66667 3.16667V4.96667C3.8 3.54444 5.18355 2.44444 6.81733 1.66667C8.45111 0.888889 10.1787 0.5 12 0.5C13.6667 0.5 15.228 0.816889 16.684 1.45067C18.14 2.08444 19.4067 2.93955 20.484 4.016C21.5613 5.09244 22.4169 6.35911 23.0507 7.816C23.6844 9.27289 24.0009 10.8342 24 12.5C23.9991 14.1658 23.6827 15.7271 23.0507 17.184C22.4187 18.6409 21.5631 19.9076 20.484 20.984C19.4049 22.0604 18.1382 22.916 16.684 23.5507C15.2298 24.1853 13.6684 24.5018 12 24.5ZM13.3333 11.9667L16.6667 15.3C16.9111 15.5444 17.0333 15.8556 17.0333 16.2333C17.0333 16.6111 16.9111 16.9222 16.6667 17.1667C16.4222 17.4111 16.1111 17.5333 15.7333 17.5333C15.3556 17.5333 15.0444 17.4111 14.8 17.1667L11.0667 13.4333C10.9333 13.3 10.8333 13.1502 10.7667 12.984C10.7 12.8178 10.6667 12.6453 10.6667 12.4667V7.16666C10.6667 6.78889 10.7947 6.47244 11.0507 6.21733C11.3067 5.96222 11.6231 5.83422 12 5.83333C12.3769 5.83244 12.6938 5.96044 12.9507 6.21733C13.2076 6.47422 13.3351 6.79066 13.3333 7.16666V11.9667Z" fill="#006494"/>
</svg>