<svg xmlns="http://www.w3.org/2000/svg" width="14" height="16" viewBox="0 0 14 16" fill="none">
  <g clip-path="url(#clip0_5547_14967)">
    <path d="M6.85701 0C5.19054 0.00196598 3.59288 0.66484 2.41451 1.84321C1.23613 3.02159 0.573259 4.61924 0.571293 6.28571C0.569761 7.64748 1.01455 8.97223 1.83758 10.0571C1.83758 10.0571 2.00901 10.2829 2.03701 10.3154L6.85701 16L11.6793 10.3126C11.7044 10.2823 11.8764 10.0571 11.8764 10.0571L11.877 10.0554C12.6995 8.97091 13.144 7.64683 13.1427 6.28571C13.1408 4.61924 12.4779 3.02159 11.2995 1.84321C10.1211 0.66484 8.52348 0.00196598 6.85701 0ZM6.85701 8.57143C6.40494 8.57143 5.96302 8.43737 5.58713 8.18622C5.21125 7.93506 4.91828 7.57808 4.74528 7.16042C4.57228 6.74276 4.52702 6.28318 4.61521 5.83979C4.70341 5.39641 4.9211 4.98913 5.24076 4.66947C5.56043 4.34981 5.9677 4.13211 6.41109 4.04392C6.85447 3.95572 7.31405 4.00099 7.73171 4.17399C8.14937 4.34699 8.50635 4.63996 8.75751 5.01584C9.00867 5.39172 9.14272 5.83364 9.14272 6.28571C9.14196 6.89169 8.90091 7.47263 8.47242 7.90112C8.04392 8.32961 7.46298 8.57067 6.85701 8.57143Z" fill="#006494"/>
  </g>
  <defs>
    <clipPath id="clip0_5547_14967">
      <rect width="13.7143" height="16" fill="white"/>
    </clipPath>
  </defs>
</svg>