<svg xmlns="http://www.w3.org/2000/svg" width="19" height="18" viewBox="0 0 19 18" fill="none">
  <path d="M13.8033 4.27269C14.2708 4.12625 14.7688 4.20292 15.1879 4.48581C15.607 4.76871 15.9128 5.23467 16.0381 5.78119C16.1634 6.3277 16.0978 6.91001 15.8558 7.4C15.6138 7.88999 15.2153 8.24754 14.7479 8.39398C14.2804 8.54041 13.7823 8.46375 13.3632 8.18085M6.06449 4.48581C5.64539 4.20292 5.14733 4.12625 4.67988 4.27269C4.21243 4.41913 3.81388 4.77667 3.57192 5.26667C3.32995 5.75666 3.26438 6.33897 3.38963 6.88548C3.51488 7.432 3.8207 7.89796 4.2398 8.18085C4.6589 8.46375 5.15696 8.54041 5.62441 8.39398C6.09186 8.24754 6.45303 8.1547 6.695 7.66471M13.3632 5.26667C13.3632 7.62308 11.7294 9.53333 9.71387 9.53333C7.69837 9.53333 6.06449 7.62308 6.06449 5.26667C6.06449 2.91025 7.69837 1 9.71387 1C11.7294 1 13.3632 2.91025 13.3632 5.26667ZM16.8915 15.9333H14.1676C13.9887 14.8948 13.5134 13.3426 12.2509 12.4246C12.7579 11.9744 13.418 11.6667 14.2756 11.6667C16.3695 11.6667 17.2865 13.5012 17.6697 14.7644C17.8531 15.3691 17.4403 15.9333 16.8915 15.9333ZM5.15216 11.6667C6.00972 11.6667 6.66987 11.9744 7.1768 12.4246C5.91428 13.3426 5.43902 14.8948 5.26012 15.9333H2.53625C1.98748 15.9333 1.57459 15.3691 1.75804 14.7644C2.14127 13.5012 3.05828 11.6667 5.15216 11.6667ZM9.71387 11.6667C6.45539 11.6667 5.52447 14.3879 5.25851 15.9428C5.15971 16.5205 5.56061 17 6.06449 17H13.3632C13.8671 17 14.268 16.5205 14.1692 15.9428C13.9033 14.3879 12.9723 11.6667 9.71387 11.6667Z" stroke="#006494" stroke-width="2" stroke-linecap="round"/>
</svg>