<svg width="32" height="32" viewBox="0 0 32 32" fill="none" xmlns="http://www.w3.org/2000/svg">
<path d="M26.8952 27.9619L27.9619 26.8952L25.1428 24.0762V19.8095H23.619V24.6857L26.8952 27.9619ZM12.1905 6.09524H18.2857V3.04762H12.1905V6.09524ZM24.3809 32C22.273 32 20.4764 31.2569 18.9912 29.7707C17.506 28.2844 16.7629 26.4879 16.7619 24.3809C16.7609 22.274 17.504 20.4775 18.9912 18.9912C20.4785 17.505 22.275 16.7619 24.3809 16.7619C26.4868 16.7619 28.2839 17.505 29.7722 18.9912C31.2604 20.4775 32.003 22.274 32 24.3809C31.9969 26.4879 31.2538 28.2849 29.7707 29.7722C28.2875 31.2594 26.4909 32.002 24.3809 32ZM3.04762 28.9524C2.20952 28.9524 1.49232 28.6542 0.896 28.0579C0.299683 27.4616 0.00101587 26.7439 0 25.9048V9.14285C0 8.30476 0.298667 7.58755 0.896 6.99124C1.49333 6.39492 2.21054 6.09625 3.04762 6.09524H9.14285V3.04762C9.14285 2.20952 9.44152 1.49232 10.0389 0.896C10.6362 0.299683 11.3534 0.00101587 12.1905 0H18.2857C19.1238 0 19.8415 0.298667 20.4389 0.896C21.0362 1.49333 21.3343 2.21054 21.3333 3.04762V6.09524H27.4286C28.2667 6.09524 28.9844 6.3939 29.5817 6.99124C30.179 7.58857 30.4772 8.30578 30.4762 9.14285V15.6571C29.5873 15.0222 28.6222 14.5397 27.5809 14.2095C26.5397 13.8794 25.473 13.7143 24.3809 13.7143C21.4349 13.7143 18.9206 14.7556 16.8381 16.8381C14.7556 18.9206 13.7143 21.4349 13.7143 24.3809C13.7143 25.1682 13.7971 25.9495 13.9627 26.7246C14.1283 27.4997 14.3883 28.2423 14.7429 28.9524H3.04762Z" fill="#006494"/>
</svg>
