<svg width="20" height="24" viewBox="0 0 20 24" fill="none" xmlns="http://www.w3.org/2000/svg">
<mask id="mask0_7626_12035" style="mask-type:luminance" maskUnits="userSpaceOnUse" x="-1" y="-1" width="21" height="25">
<path d="M9.69216 21.7834C9.69216 21.7834 17.5083 16.3567 17.5083 10.0829C17.5083 5.6092 14.0091 1.98242 9.69216 1.98242C5.37522 1.98242 1.87598 5.6092 1.87598 10.0829C1.87598 16.3567 9.69216 21.7834 9.69216 21.7834Z" fill="white" stroke="white" stroke-width="4" stroke-linejoin="round"/>
<path d="M9.81869 12.4147C10.5958 12.4147 11.341 12.1214 11.8905 11.5994C12.44 11.0774 12.7487 10.3694 12.7487 9.63117C12.7487 8.89294 12.44 8.18494 11.8905 7.66293C11.341 7.14092 10.5958 6.84766 9.81869 6.84766C9.0416 6.84766 8.29634 7.14092 7.74685 7.66293C7.19737 8.18494 6.88867 8.89294 6.88867 9.63117C6.88867 10.3694 7.19737 11.0774 7.74685 11.5994C8.29634 12.1214 9.0416 12.4147 9.81869 12.4147Z" fill="black" stroke="black" stroke-width="4" stroke-linejoin="round"/>
</mask>
<g mask="url(#mask0_7626_12035)">
<path d="M-4.24609 -0.96875H23.882V27.1594H-4.24609V-0.96875Z" fill="#247BA0"/>
</g>
</svg>
