<svg width="24" height="24" viewBox="0 0 24 24" fill="none" xmlns="http://www.w3.org/2000/svg">
<path d="M10.4008 7.1998H5.60078V10.3998H10.4008V7.1998ZM0.800781 5.5998C0.800781 4.32677 1.30649 3.10587 2.20667 2.20569C3.10684 1.30552 4.32774 0.799805 5.60078 0.799805H15.2008V23.1998H5.60078C4.32774 23.1998 3.10684 22.6941 2.20667 21.7939C1.30649 20.8937 0.800781 19.6728 0.800781 18.3998V5.5998ZM4.00078 7.1998V10.3998C4.00078 10.8242 4.16935 11.2311 4.46941 11.5312C4.76947 11.8312 5.17643 11.9998 5.60078 11.9998H10.4008C10.8251 11.9998 11.2321 11.8312 11.5322 11.5312C11.8322 11.2311 12.0008 10.8242 12.0008 10.3998V7.1998C12.0008 6.77546 11.8322 6.36849 11.5322 6.06843C11.2321 5.76838 10.8251 5.5998 10.4008 5.5998H5.60078C5.17643 5.5998 4.76947 5.76838 4.46941 6.06843C4.16935 6.36849 4.00078 6.77546 4.00078 7.1998ZM4.80078 13.5998C4.58861 13.5998 4.38513 13.6841 4.2351 13.8341C4.08507 13.9841 4.00078 14.1876 4.00078 14.3998C4.00078 14.612 4.08507 14.8155 4.2351 14.9655C4.38513 15.1155 4.58861 15.1998 4.80078 15.1998H11.2008C11.413 15.1998 11.6164 15.1155 11.7665 14.9655C11.9165 14.8155 12.0008 14.612 12.0008 14.3998C12.0008 14.1876 11.9165 13.9841 11.7665 13.8341C11.6164 13.6841 11.413 13.5998 11.2008 13.5998H4.80078ZM4.00078 17.5998C4.00078 17.812 4.08507 18.0155 4.2351 18.1655C4.38513 18.3155 4.58861 18.3998 4.80078 18.3998H11.2008C11.413 18.3998 11.6164 18.3155 11.7665 18.1655C11.9165 18.0155 12.0008 17.812 12.0008 17.5998C12.0008 17.3876 11.9165 17.1841 11.7665 17.0341C11.6164 16.8841 11.413 16.7998 11.2008 16.7998H4.80078C4.58861 16.7998 4.38513 16.8841 4.2351 17.0341C4.08507 17.1841 4.00078 17.3876 4.00078 17.5998ZM16.8008 23.1998H18.4008C19.6738 23.1998 20.8947 22.6941 21.7949 21.7939C22.6951 20.8937 23.2008 19.6728 23.2008 18.3998V16.7998H16.8008V23.1998ZM23.2008 15.1998V8.7998H16.8008V15.1998H23.2008ZM23.2008 7.1998V5.5998C23.2008 4.32677 22.6951 3.10587 21.7949 2.20569C20.8947 1.30552 19.6738 0.799805 18.4008 0.799805H16.8008V7.1998H23.2008Z" fill="#247BA0"/>
</svg>
