<svg xmlns="http://www.w3.org/2000/svg" width="19" height="18" viewBox="0 0 19 18" fill="none">
  <path d="M9.5 0C11.8869 0 14.1761 0.948212 15.864 2.63604C17.5518 4.32387 18.5 6.61305 18.5 9C18.5 11.3869 17.5518 13.6761 15.864 15.364C14.1761 17.0518 11.8869 18 9.5 18C7.11305 18 4.82387 17.0518 3.13604 15.364C1.44821 13.6761 0.5 11.3869 0.5 9C0.5 6.61305 1.44821 4.32387 3.13604 2.63604C4.82387 0.948212 7.11305 0 9.5 0ZM10.6947 4.851C10.6947 4.55263 10.5762 4.26648 10.3652 4.0555C10.1543 3.84453 9.86812 3.726 9.56975 3.726C9.27138 3.726 8.98523 3.84453 8.77425 4.0555C8.56328 4.26648 8.44475 4.55263 8.44475 4.851V7.94475H5.351C5.05263 7.94475 4.76648 8.06328 4.5555 8.27425C4.34453 8.48523 4.226 8.77138 4.226 9.06975C4.226 9.36812 4.34453 9.65427 4.5555 9.86524C4.76648 10.0762 5.05263 10.1947 5.351 10.1947H8.44475V13.2885C8.44475 13.5869 8.56328 13.873 8.77425 14.084C8.98523 14.295 9.27138 14.4135 9.56975 14.4135C9.86812 14.4135 10.1543 14.295 10.3652 14.084C10.5762 13.873 10.6947 13.5869 10.6947 13.2885V10.1947H13.7885C14.0869 10.1947 14.373 10.0762 14.584 9.86524C14.795 9.65427 14.9135 9.36812 14.9135 9.06975C14.9135 8.77138 14.795 8.48523 14.584 8.27425C14.373 8.06328 14.0869 7.94475 13.7885 7.94475H10.6947V4.851Z" fill="white"/>
</svg>