<svg width="30" height="30" viewBox="0 0 30 30" fill="none" xmlns="http://www.w3.org/2000/svg">
<path d="M17.2278 28C17.2278 28.8284 17.8993 29.5 18.7278 29.5C19.5562 29.5 20.2278 28.8284 20.2278 28H17.2278ZM9.77225 28C9.77225 28.8284 10.4438 29.5 11.2722 29.5C12.1007 29.5 12.7722 28.8284 12.7722 28H9.77225ZM5.43575 27.1539L6.47942 26.0765L6.47942 26.0765L5.43575 27.1539ZM24.5643 27.1539L23.5206 26.0765L23.5206 26.0765L24.5643 27.1539ZM18.2029 13.5548L18.2365 12.0552L18.2029 13.5548ZM15.3166 11.0622L16.7948 10.8078L16.7948 10.8078L15.3166 11.0622ZM15.3424 11.2074L16.8142 10.9179L16.8142 10.9179L15.3424 11.2074ZM14.6834 11.0622L13.2052 10.8078L13.2052 10.8078L14.6834 11.0622ZM14.6576 11.2074L13.1858 10.9179L13.1858 10.9179L14.6576 11.2074ZM11.7971 13.5548L11.7635 12.0552L11.7971 13.5548ZM21.3934 11.0622L19.9151 10.8078L19.9151 10.8078L21.3934 11.0622ZM21.3676 11.2074L19.8958 10.9179L21.3676 11.2074ZM18.5071 13.5548L18.4735 12.0552L18.5071 13.5548ZM8.6066 11.0622L7.12832 11.3165L7.12832 11.3165L8.6066 11.0622ZM8.63239 11.2074L10.1042 10.9179L8.63239 11.2074ZM11.4929 13.5548L11.5265 12.0552L11.4929 13.5548ZM8.09506 10.3555L9.57334 10.6098L8.09506 10.3555ZM8.16893 10.0166L9.37383 10.91L8.16893 10.0166ZM8.48502 10.3555L9.9633 10.1011L9.9633 10.1011L8.48502 10.3555ZM8.41115 10.0166L7.20625 10.91L8.41115 10.0166ZM24.3052 13.4802L23.975 14.9434L24.3052 13.4802ZM21.9049 10.3555L23.3832 10.1011L21.9049 10.3555ZM22.2281 11.7757L23.6065 11.1841L22.2281 11.7757ZM21.8311 10.0166L20.6262 10.91L20.6262 10.91L21.8311 10.0166ZM21.515 10.3555L22.9933 10.6098L22.9933 10.6098L21.515 10.3555ZM21.5889 10.0166L22.7938 10.91L22.7938 10.91L21.5889 10.0166ZM5.69479 13.4802L6.02499 14.9434L5.69479 13.4802ZM7.77187 11.7757L6.39346 11.1841L6.39346 11.1841L7.77187 11.7757ZM14.805 10.3555L16.2833 10.6098L16.2833 10.6098L14.805 10.3555ZM14.8789 10.0166L16.0838 10.91L14.8789 10.0166ZM15.195 10.3555L13.7167 10.6098L13.7167 10.6098L15.195 10.3555ZM15.1211 10.0166L13.9162 10.91L15.1211 10.0166ZM2.20284 11.1424L0.750432 10.7676L0.750432 10.7676L2.20284 11.1424ZM2.00217 12.209L3.4985 12.1041L2.00217 12.209ZM3.03101 13.4855L3.47945 12.0541L3.47945 12.0541L3.03101 13.4855ZM27.7972 11.1424L29.2496 10.7676L29.2496 10.7676L27.7972 11.1424ZM27.9978 12.209L26.5015 12.1041L27.9978 12.209ZM26.969 13.4855L26.5206 12.0541L26.5206 12.0541L26.969 13.4855ZM26.0024 4.18823L24.55 4.56306L24.55 4.56306L26.0024 4.18823ZM3.99756 4.18823L5.44997 4.56306L5.44997 4.56306L3.99756 4.18823ZM12.7633 20.8333H17.2367V17.8333H12.7633V20.8333ZM17.2278 20.7778V28H20.2278V20.7778H17.2278ZM9.77225 20.7778V28H12.7722V20.7778H9.77225ZM17.2367 20.8333C17.2449 20.8333 17.2481 20.8347 17.2484 20.8349C17.2495 20.8353 17.2491 20.8355 17.2474 20.8338C17.2456 20.8321 17.2407 20.8267 17.2359 20.8158C17.2306 20.8037 17.2278 20.7897 17.2278 20.7778H20.2278C20.2278 19.107 18.8433 17.8333 17.2367 17.8333V20.8333ZM12.7633 17.8333C11.1567 17.8333 9.77225 19.107 9.77225 20.7778H12.7722C12.7722 20.7897 12.7694 20.8037 12.7641 20.8158C12.7593 20.8267 12.7544 20.8321 12.7526 20.8338C12.7509 20.8355 12.7505 20.8353 12.7517 20.8349C12.7519 20.8347 12.7551 20.8333 12.7633 20.8333V17.8333ZM23.9377 13.5556V22.2222H26.9377V13.5556H23.9377ZM19.4733 26.5H10.5267V29.5H19.4733V26.5ZM6.06228 22.2222V13.5556H3.06228V22.2222H6.06228ZM10.5267 26.5C9.07976 26.5 8.14079 26.497 7.44813 26.4068C6.79385 26.3216 6.58936 26.183 6.47942 26.0765L4.39208 28.2312C5.15561 28.9709 6.09076 29.2553 7.06068 29.3817C7.99221 29.503 9.16198 29.5 10.5267 29.5V26.5ZM3.06228 22.2222C3.06228 23.5403 3.05889 24.6846 3.18571 25.5983C3.31921 26.5602 3.62188 27.4851 4.39208 28.2312L6.47942 26.0765C6.37615 25.9764 6.24209 25.7974 6.15723 25.1859C6.06567 24.5263 6.06228 23.6278 6.06228 22.2222H3.06228ZM23.9377 22.2222C23.9377 23.6278 23.9343 24.5263 23.8428 25.1859C23.7579 25.7974 23.6239 25.9764 23.5206 26.0765L25.6079 28.2312C26.3781 27.4851 26.6808 26.5602 26.8143 25.5983C26.9411 24.6846 26.9377 23.5403 26.9377 22.2222H23.9377ZM19.4733 29.5C20.838 29.5 22.0078 29.503 22.9393 29.3817C23.9092 29.2553 24.8444 28.9709 25.6079 28.2312L23.5206 26.0765C23.4106 26.183 23.2061 26.3216 22.5519 26.4068C21.8592 26.497 20.9202 26.5 19.4733 26.5V29.5ZM6.89072 3.5H23.1093V0.5H6.89072V3.5ZM24.55 4.56306L26.3447 11.5173L29.2496 10.7676L27.4549 3.8134L24.55 4.56306ZM3.65526 11.5173L5.44997 4.56306L2.54514 3.8134L0.750432 10.7676L3.65526 11.5173ZM10.0849 10.8078L9.9633 10.1011L7.00674 10.6098L7.12832 11.3165L10.0849 10.8078ZM20.0367 10.1011L19.9151 10.8078L22.8717 11.3165L22.9933 10.6098L20.0367 10.1011ZM13.3267 10.1011L13.2052 10.8078L16.1617 11.3165L16.2833 10.6098L13.3267 10.1011ZM16.7948 10.8078L16.6733 10.1011L13.7167 10.6098L13.8383 11.3165L16.7948 10.8078ZM18.355 12.0556C18.2688 12.0556 18.25 12.0555 18.2365 12.0552L18.1693 15.0544C18.2247 15.0556 18.2843 15.0556 18.355 15.0556V12.0556ZM13.8383 11.3165C13.8498 11.3833 13.8598 11.4422 13.8706 11.4968L16.8142 10.9179C16.812 10.9069 16.8091 10.8909 16.7948 10.8078L13.8383 11.3165ZM18.2365 12.0552C17.5032 12.0387 16.9353 11.534 16.8142 10.9179L13.8706 11.4968C14.2756 13.5564 16.0916 15.0079 18.1693 15.0544L18.2365 12.0552ZM13.2052 10.8078C13.1909 10.8909 13.188 10.9069 13.1858 10.9179L16.1295 11.4968C16.1402 11.4422 16.1502 11.3833 16.1617 11.3165L13.2052 10.8078ZM11.645 15.0556C11.7157 15.0556 11.7753 15.0556 11.8307 15.0544L11.7635 12.0552C11.75 12.0555 11.7312 12.0556 11.645 12.0556V15.0556ZM13.1858 10.9179C13.0647 11.534 12.4968 12.0387 11.7635 12.0552L11.8307 15.0544C13.9084 15.0079 15.7244 13.5564 16.1295 11.4968L13.1858 10.9179ZM19.9151 10.8078C19.9008 10.8909 19.898 10.9069 19.8958 10.9179L22.8394 11.4968C22.8502 11.4422 22.8602 11.3833 22.8717 11.3165L19.9151 10.8078ZM18.355 15.0556C18.4257 15.0556 18.4852 15.0556 18.5407 15.0544L18.4735 12.0552C18.4599 12.0555 18.4411 12.0556 18.355 12.0556V15.0556ZM19.8958 10.9179C19.7746 11.534 19.2068 12.0387 18.4735 12.0552L18.5407 15.0544C20.6184 15.0079 22.4343 13.5564 22.8394 11.4968L19.8958 10.9179ZM7.12832 11.3165C7.13982 11.3833 7.14984 11.4422 7.16059 11.4968L10.1042 10.9179C10.102 10.9069 10.0992 10.8908 10.0849 10.8078L7.12832 11.3165ZM11.645 12.0556C11.5589 12.0556 11.5401 12.0555 11.5265 12.0552L11.4593 15.0544C11.5148 15.0556 11.5743 15.0556 11.645 15.0556V12.0556ZM7.16059 11.4968C7.56567 13.5564 9.38162 15.0079 11.4593 15.0544L11.5265 12.0552C10.7932 12.0387 10.2254 11.534 10.1042 10.9179L7.16059 11.4968ZM9.57334 10.6098C9.59326 10.4941 9.60159 10.4469 9.6066 10.4227C9.60917 10.4103 9.60386 10.439 9.58977 10.4857C9.58238 10.5101 9.56702 10.5582 9.54132 10.6185C9.51854 10.672 9.46728 10.784 9.37383 10.91L6.96403 9.12314C6.79384 9.35267 6.72947 9.57998 6.71797 9.61804C6.69371 9.69833 6.6779 9.77109 6.669 9.81405C6.65108 9.90055 6.6326 10.0092 6.61678 10.1011L9.57334 10.6098ZM9.9633 10.1011C9.94748 10.0092 9.929 9.90055 9.91108 9.81405C9.90218 9.77109 9.88637 9.69833 9.86211 9.61804C9.85061 9.57998 9.78624 9.35267 9.61605 9.12314L7.20625 10.91C7.1128 10.784 7.06154 10.672 7.03875 10.6185C7.01305 10.5582 6.9977 10.5101 6.99031 10.4857C6.97622 10.439 6.97091 10.4103 6.97348 10.4227C6.97849 10.4469 6.98682 10.4941 7.00674 10.6098L9.9633 10.1011ZM9.37383 10.91C8.83363 11.6385 7.74645 11.6385 7.20625 10.91L9.61605 9.12314C8.95686 8.23415 7.62322 8.23415 6.96403 9.12314L9.37383 10.91ZM25.8315 12.0556C24.9566 12.0556 24.7654 12.0464 24.6354 12.017L23.975 14.9434C24.5127 15.0648 25.1164 15.0556 25.8315 15.0556V12.0556ZM20.4267 10.6098C20.5406 11.2719 20.6311 11.8579 20.8497 12.3673L23.6065 11.1841C23.562 11.0803 23.5248 10.924 23.3832 10.1011L20.4267 10.6098ZM24.6354 12.017C24.1547 11.9085 23.7799 11.5881 23.6065 11.1841L20.8497 12.3673C21.4137 13.6813 22.5851 14.6298 23.975 14.9434L24.6354 12.017ZM23.3832 10.1011C23.3674 10.0092 23.3489 9.90055 23.331 9.81406C23.3221 9.7711 23.3063 9.69833 23.282 9.61804C23.2705 9.57999 23.2062 9.35268 23.036 9.12314L20.6262 10.91C20.5327 10.784 20.4815 10.672 20.4587 10.6185C20.433 10.5582 20.4176 10.5101 20.4102 10.4857C20.3961 10.439 20.3908 10.4103 20.3934 10.4227C20.3984 10.4469 20.4067 10.4941 20.4267 10.6098L23.3832 10.1011ZM22.9933 10.6098C23.0132 10.4941 23.0215 10.4469 23.0265 10.4227C23.0291 10.4103 23.0238 10.439 23.0097 10.4857C23.0023 10.5101 22.9869 10.5582 22.9612 10.6185C22.9385 10.672 22.8872 10.784 22.7938 10.91L20.384 9.12314C20.2138 9.35268 20.1494 9.57999 20.1379 9.61804C20.1136 9.69833 20.0978 9.7711 20.0889 9.81406C20.071 9.90055 20.0525 10.0092 20.0367 10.1011L22.9933 10.6098ZM23.036 9.12314C22.3768 8.23415 21.0431 8.23415 20.384 9.12314L22.7938 10.91C22.2536 11.6385 21.1664 11.6385 20.6262 10.91L23.036 9.12314ZM4.1685 15.0556C4.88355 15.0556 5.48733 15.0648 6.02499 14.9434L5.36459 12.017C5.23458 12.0464 5.04339 12.0556 4.1685 12.0556V15.0556ZM6.61678 10.1011C6.47522 10.924 6.43802 11.0803 6.39346 11.1841L9.15027 12.3673C9.3689 11.8579 9.45944 11.2719 9.57334 10.6098L6.61678 10.1011ZM6.02499 14.9434C7.41486 14.6298 8.58633 13.6813 9.15027 12.3673L6.39346 11.1841C6.22006 11.5881 5.84527 11.9085 5.36459 12.017L6.02499 14.9434ZM16.2833 10.6098C16.3032 10.4941 16.3116 10.4469 16.3166 10.4227C16.3191 10.4103 16.3138 10.439 16.2997 10.4857C16.2923 10.5101 16.277 10.5582 16.2513 10.6185C16.2285 10.672 16.1772 10.784 16.0838 10.91L13.674 9.12314C13.5038 9.35267 13.4394 9.57998 13.4279 9.61804C13.4037 9.69833 13.3879 9.77109 13.379 9.81405C13.361 9.90055 13.3426 10.0092 13.3267 10.1011L16.2833 10.6098ZM16.6733 10.1011C16.6574 10.0092 16.639 9.90055 16.621 9.81405C16.6121 9.7711 16.5963 9.69833 16.5721 9.61804C16.5606 9.57999 16.4962 9.35268 16.326 9.12314L13.9162 10.91C13.8228 10.784 13.7715 10.672 13.7487 10.6185C13.723 10.5582 13.7077 10.5101 13.7003 10.4857C13.6862 10.439 13.6809 10.4103 13.6834 10.4227C13.6885 10.4469 13.6968 10.4941 13.7167 10.6098L16.6733 10.1011ZM16.0838 10.91C15.5436 11.6385 14.4564 11.6385 13.9162 10.91L16.326 9.12314C15.6668 8.23415 14.3332 8.23415 13.674 9.12314L16.0838 10.91ZM0.750432 10.7676C0.68225 11.0318 0.616063 11.2863 0.572275 11.5024C0.527676 11.7224 0.484013 12.0025 0.505845 12.3139L3.4985 12.1041C3.5044 12.1882 3.48887 12.2148 3.51249 12.0983C3.53692 11.9778 3.57904 11.8126 3.65526 11.5173L0.750432 10.7676ZM4.1685 12.0556C3.84899 12.0556 3.66333 12.0551 3.52802 12.0486C3.3945 12.0421 3.41093 12.0326 3.47945 12.0541L2.58258 14.9169C2.87481 15.0084 3.1554 15.034 3.38239 15.045C3.6076 15.056 3.87883 15.0556 4.1685 15.0556V12.0556ZM0.505845 12.3139C0.591962 13.5422 1.43636 14.5578 2.58258 14.9169L3.47945 12.0541C3.47381 12.0523 3.4768 12.0517 3.48243 12.0587C3.48832 12.066 3.49695 12.082 3.4985 12.1041L0.505845 12.3139ZM26.3447 11.5173C26.421 11.8126 26.4631 11.9777 26.4875 12.0983C26.5111 12.2148 26.4956 12.1882 26.5015 12.1041L29.4942 12.3139C29.516 12.0025 29.4723 11.7224 29.4277 11.5024C29.3839 11.2863 29.3178 11.0318 29.2496 10.7676L26.3447 11.5173ZM25.8315 15.0556C26.1212 15.0556 26.3924 15.056 26.6176 15.045C26.8446 15.034 27.1252 15.0084 27.4174 14.9169L26.5206 12.0541C26.5891 12.0326 26.6055 12.0421 26.472 12.0486C26.3367 12.0551 26.151 12.0556 25.8315 12.0556V15.0556ZM26.5015 12.1041C26.503 12.082 26.5117 12.066 26.5176 12.0587C26.5232 12.0517 26.5262 12.0523 26.5206 12.0541L27.4174 14.9169C28.5636 14.5578 29.408 13.5422 29.4942 12.3139L26.5015 12.1041ZM23.1093 3.5C23.7038 3.5 24.0214 3.50234 24.2453 3.52828C24.4323 3.54994 24.3783 3.57187 24.2863 3.50227L26.096 1.10958C25.5995 0.734054 25.0637 0.60302 24.5905 0.548204C24.1541 0.497658 23.633 0.5 23.1093 0.5V3.5ZM27.4549 3.8134C27.3286 3.32411 27.2025 2.82507 27.0427 2.41872C26.8668 1.97147 26.597 1.48851 26.096 1.10958L24.2863 3.50227C24.1898 3.42926 24.19 3.362 24.2508 3.51669C24.3278 3.71228 24.4051 4.00143 24.55 4.56306L27.4549 3.8134ZM6.89072 0.5C6.36699 0.5 5.84588 0.497658 5.40952 0.548204C4.93631 0.60302 4.40051 0.734055 3.90401 1.10958L5.71371 3.50227C5.62169 3.57187 5.56769 3.54994 5.75472 3.52828C5.97862 3.50234 6.29619 3.5 6.89072 3.5V0.5ZM5.44997 4.56306C5.59491 4.00143 5.67224 3.71228 5.74916 3.51669C5.81 3.362 5.81024 3.42926 5.71371 3.50227L3.90401 1.10958C3.403 1.48851 3.1332 1.97147 2.9573 2.41872C2.7975 2.82507 2.67142 3.32411 2.54514 3.8134L5.44997 4.56306Z" fill="#006494"/>
</svg>
