<svg width="160" height="160" viewBox="0 0 160 160" fill="none" xmlns="http://www.w3.org/2000/svg">
<g id="Frame">
<g id="Mask group">
<mask id="mask0_7731_15619" style="mask-type:luminance" maskUnits="userSpaceOnUse" x="1" y="1" width="158" height="158">
<g id="Group">
<g id="Group_2">
<path id="Vector" d="M80.0003 154.592C89.7977 154.604 99.5008 152.681 108.552 148.931C117.604 145.182 125.825 139.681 132.744 132.744C139.681 125.825 145.182 117.604 148.931 108.552C152.681 99.5008 154.604 89.7977 154.592 80.0003C154.604 70.203 152.681 60.4998 148.931 51.4483C145.182 42.3968 139.681 34.1753 132.744 27.2563C125.825 20.3198 117.604 14.8189 108.552 11.0695C99.5008 7.3201 89.7977 5.39618 80.0003 5.40826C70.203 5.39618 60.4998 7.3201 51.4483 11.0695C42.3968 14.8189 34.1753 20.3198 27.2563 27.2563C20.3198 34.1753 14.8189 42.3968 11.0695 51.4483C7.3201 60.4998 5.39618 70.203 5.40826 80.0003C5.39618 89.7977 7.3201 99.5008 11.0695 108.552C14.8189 117.604 20.3198 125.825 27.2563 132.744C34.1753 139.681 42.3968 145.182 51.4483 148.931C60.4998 152.681 70.203 154.604 80.0003 154.592Z" fill="white" stroke="white" stroke-width="8" stroke-linejoin="round"/>
<path id="Vector_2" d="M50.1631 80.0007L72.5407 102.378L117.296 57.623" stroke="black" stroke-width="8" stroke-linecap="round" stroke-linejoin="round"/>
</g>
</g>
</mask>
<g mask="url(#mask0_7731_15619)">
<path id="Vector_3" d="M-9.50977 -9.50977H169.511V169.511H-9.50977V-9.50977Z" fill="#F9F9FC"/>
</g>
</g>
</g>
</svg>
