<svg width="1920" height="581" viewBox="0 0 1920 581" fill="none" xmlns="http://www.w3.org/2000/svg">
<g clip-path="url(#clip0_8428_13616)">
<path d="M979.938 1.1672C975.85 1.36903 965.483 1.97451 957.009 2.58C948.536 3.18548 932.087 4.59828 920.623 5.70834C909.159 6.81839 890.717 8.83668 879.751 10.2495C868.785 11.5614 846.854 14.6897 830.903 17.2126C814.953 19.7354 790.729 23.772 777.072 26.1939C763.315 28.7168 736.399 33.6616 717.259 37.2945C698.019 40.9274 663.726 47.5877 640.997 52.0279C618.268 56.5691 568.224 66.3577 529.844 73.8254C491.464 81.293 453.284 88.5589 445.109 89.9717C436.835 91.3845 424.773 93.2009 418.193 94.0082C411.614 94.8155 397.458 96.1274 386.791 96.9347C376.125 97.7421 356.386 98.4485 342.928 98.4485C329.47 98.4485 309.333 97.7421 298.069 96.9347C286.804 96.0265 269.757 94.4119 260.187 93.3018C250.617 92.1918 234.667 89.8707 224.798 88.2561C214.928 86.6415 201.271 84.2196 194.393 82.9077C187.514 81.4949 174.255 78.5684 164.984 76.4492C155.713 74.229 138.866 69.7888 127.601 66.6605C116.336 63.5322 99.2897 58.5874 89.7196 55.5599C80.1495 52.5325 63.1028 46.9822 51.838 43.0466C40.5732 39.2118 24.4237 33.5606 15.9502 30.4323C7.47664 27.304 0.0996885 24.6802 0 24.6802C0 24.882 0 29.7259 0 35.8817C0 45.6703 0 43.4502 0 46.5786C0.996885 46.7804 14.9533 51.927 28.9097 56.8718C42.866 61.9175 64.3988 69.1833 76.7601 73.119C89.1215 76.9537 106.567 82.3022 115.639 84.825C124.71 87.4488 141.956 91.9899 154.019 94.9165C166.081 97.9439 184.025 101.98 193.894 103.898C203.763 105.815 219.215 108.54 228.287 109.953C237.358 111.365 252.81 113.485 262.679 114.494C272.548 115.604 288 117.118 297.072 117.723C306.143 118.429 326.779 118.934 342.928 118.934C359.078 118.934 379.315 118.329 387.788 117.723C396.262 117.118 409.321 115.907 416.698 114.998C424.075 114.191 436.935 112.375 445.109 110.962C453.383 109.549 497.346 101.173 542.804 92.2927C588.262 83.4122 643.988 72.5135 666.417 68.1742C688.847 63.8349 721.844 57.4773 739.688 54.1471C757.533 50.716 783.95 45.9731 798.505 43.5511C813.059 41.0283 835.688 37.3954 848.847 35.478C862.006 33.5606 880.349 31.0378 889.72 29.9277C899.09 28.8177 911.153 27.4049 916.636 26.7994C922.118 26.2948 934.181 25.0839 943.551 24.2765C952.922 23.4692 973.757 22.3592 989.907 21.6528C1007.55 20.9464 1031.88 20.7445 1050.72 21.1482C1067.96 21.4509 1091.99 22.4601 1104.05 23.2674C1116.11 24.0747 1131.17 25.1848 1137.45 25.7903C1143.73 26.2948 1157.18 27.7076 1167.35 28.9186C1177.52 30.0286 1191.88 31.8451 1199.25 32.9552C1206.63 34.0652 1221.68 36.4872 1232.65 38.4045C1243.61 40.3219 1261.36 43.6521 1272.02 45.8722C1282.69 48.0923 1303.83 53.138 1318.88 56.9727C1333.93 60.8075 1357.56 67.1651 1371.21 70.9998C1384.97 74.8345 1409.1 81.6967 1425.05 86.1369C1441 90.5771 1463.63 96.7329 1475.39 99.7603C1487.15 102.788 1504.7 107.127 1514.27 109.347C1523.84 111.567 1542.98 115.503 1556.64 118.026C1570.39 120.549 1590.73 123.98 1601.99 125.594C1613.26 127.31 1633.4 129.732 1646.85 131.145C1660.31 132.557 1681.84 134.475 1694.7 135.282C1707.56 136.19 1734.48 137.199 1754.52 137.502C1776.45 137.805 1801.17 137.603 1816.82 136.897C1831.08 136.291 1849.72 135.08 1858.19 134.273C1866.67 133.365 1878.63 132.053 1884.61 131.246C1890.59 130.337 1900.76 128.824 1907.04 127.714C1913.32 126.604 1919.6 125.695 1920 125.695V115.099C1920 104.604 1920 105.714 1920 104.503C1918.8 104.806 1910.13 106.32 1903.55 107.43C1896.97 108.54 1886.6 110.154 1880.62 110.962C1874.64 111.769 1861.58 113.182 1851.71 114.09C1841.84 114.998 1818.52 116.108 1799.88 116.613C1781.13 117.017 1753.92 117.017 1739.07 116.613C1724.31 116.108 1704.07 115.2 1694.21 114.595C1684.34 113.989 1665 112.375 1651.34 110.962C1637.58 109.549 1616.15 106.824 1603.49 105.008C1590.83 103.091 1572.09 100.063 1561.62 98.0448C1551.15 96.1274 1536.4 93.1 1528.72 91.3845C1521.05 89.6689 1502.41 85.1278 1487.35 81.293C1472.3 77.4583 1446.68 70.5961 1430.53 66.1559C1414.38 61.6148 1388.16 54.349 1372.21 49.9087C1356.26 45.4685 1332.74 39.2118 1319.88 35.8817C1307.02 32.6524 1287.98 28.2122 1277.51 25.9921C1267.04 23.772 1249.6 20.3409 1238.63 18.3226C1227.66 16.4052 1210.62 13.6806 1200.75 12.2678C1190.88 10.855 1174.53 8.83668 1164.36 7.72662C1154.19 6.51565 1133.36 4.6992 1118.01 3.48823C1095.78 1.77268 1079.53 1.36903 1038.75 1.06629C1010.54 0.965372 984.025 0.965372 979.938 1.1672Z" fill="#44AAE4"/>
<path d="M983.427 21.5622C972.96 22.0497 958.206 22.8297 950.53 23.5122C942.854 24.0972 929.794 25.1697 921.62 26.0472C913.346 26.8272 899.09 28.2897 889.72 29.4597C880.349 30.5322 862.006 32.9697 848.847 34.8222C835.688 36.6747 813.059 40.1846 798.505 42.6221C783.95 44.9621 757.533 49.5446 739.688 52.8596C721.844 56.0771 688.847 62.2195 666.417 66.412C643.988 70.6045 588.262 81.1344 542.804 89.7144C497.346 98.2943 453.284 106.387 445.109 107.752C436.835 109.117 424.075 110.872 416.698 111.652C409.321 112.529 396.262 113.699 387.788 114.284C379.315 114.869 359.078 115.454 342.928 115.454C326.779 115.454 306.143 114.967 297.072 114.284C288 113.699 272.548 112.237 262.679 111.164C252.81 110.189 237.358 108.142 228.287 106.777C219.215 105.412 203.763 102.779 193.894 100.927C184.025 99.0743 166.081 95.1744 154.019 92.2494C141.956 89.4219 124.71 85.0344 115.639 82.4994C106.567 80.0619 89.1215 74.8945 76.7601 71.1895C64.3988 67.387 42.866 60.367 28.9097 55.4921C14.9533 50.7146 0.996885 45.4496 0 45.1571V581.209H1920C1920 409.415 1920 121.402 1920 121.402C1920 121.402 1913.32 122.864 1907.04 123.937C1900.76 125.009 1890.59 126.472 1884.61 127.349C1878.63 128.129 1866.67 129.397 1858.19 130.274C1849.72 131.054 1831.08 132.224 1816.82 132.809C1801.17 133.492 1776.45 133.687 1754.52 133.394C1734.48 133.102 1707.56 132.127 1694.7 131.249C1681.84 130.469 1660.31 128.617 1646.85 127.252C1633.4 125.887 1613.26 123.547 1601.99 121.889C1590.73 120.329 1570.29 117.014 1556.64 114.577C1542.88 112.139 1523.84 108.337 1514.27 106.192C1504.7 104.047 1487.15 99.8543 1475.39 96.9294C1463.63 94.0044 1441 88.0569 1425.05 83.7669C1409.1 79.4769 1384.87 72.847 1371.21 69.142C1357.46 65.437 1333.93 59.2945 1318.88 55.5896C1303.83 51.8846 1282.69 47.0096 1272.02 44.8646C1261.36 42.7196 1243.61 39.5021 1232.65 37.6497C1221.68 35.7972 1206.63 33.4572 1199.25 32.3847C1191.88 31.3122 1177.52 29.5572 1167.35 28.4847C1157.18 27.3147 1143.73 25.9497 1137.45 25.4622C1131.17 24.8772 1116.11 23.7072 1104.05 22.9272C1091.99 22.1472 1064.17 21.3672 1042.24 21.0747C1020.31 20.8797 993.894 21.0747 983.427 21.5622Z" fill="#0F3B62"/>
</g>
<defs>
<clipPath id="clip0_8428_13616">
<rect width="1920" height="581" fill="white"/>
</clipPath>
</defs>
</svg>
