<svg xmlns="http://www.w3.org/2000/svg" width="29" height="28" viewBox="0 0 29 28" fill="none">
  <path d="M21.3133 5.04C20.3518 5.04 19.6307 5.76 19.6307 6.72C19.6307 7.68 20.3518 8.4 21.3133 8.4C22.2748 8.4 22.9959 7.68 22.9959 6.72C22.9959 5.76 22.2748 5.04 21.3133 5.04Z" fill="black"/>
  <path d="M14.0219 7.28C10.2574 7.28 7.29139 10.4834 7.29139 14.28C7.29139 18.0766 10.3715 21.28 14.0219 21.28C17.6724 21.28 20.7524 18.0766 20.7524 14.28C20.7524 10.4834 17.7864 7.28 14.0219 7.28ZM14.0219 18.7885C11.6263 18.7885 9.687 16.7715 9.687 14.28C9.687 11.7885 11.6263 9.77153 14.0219 9.77153C16.4175 9.77153 18.3568 11.7885 18.3568 14.28C18.3568 16.7715 16.4175 18.7885 14.0219 18.7885Z" fill="black"/>
  <path d="M19.7109 0H8.56487C3.75446 0 0 3.74895 0 8.43515V19.5649C0 24.251 3.75446 28 8.44754 28H19.5936C24.2867 28 28.0411 24.251 28.0411 19.5649V8.43515C28.1585 3.74895 24.404 0 19.7109 0ZM25.4599 19.682C25.4599 22.8452 22.8788 25.5397 19.5936 25.5397H8.44754C5.27971 25.5397 2.58119 22.9623 2.58119 19.682V8.5523C2.58119 5.38912 5.16238 2.69456 8.44754 2.69456H19.5936C22.7614 2.69456 25.4599 5.27197 25.4599 8.5523V19.682Z" fill="black"/>
</svg>