<svg xmlns="http://www.w3.org/2000/svg" width="17" height="20" viewBox="0 0 17 20" fill="none">
  <path d="M11.5494 1.6031L1.74651 13.136C1.48127 13.448 1.34865 13.604 1.25739 13.7937C1.16612 13.9833 1.12064 14.1974 1.02966 14.6255L0.125507 18.8803C0.00251787 19.4591 -0.0589766 19.7485 0.0774091 19.9089C0.213794 20.0694 0.45978 19.997 0.951729 19.8523L4.56834 18.7886C4.93224 18.6816 5.1142 18.6281 5.27538 18.5207C5.43657 18.4134 5.56919 18.2573 5.83443 17.9453L15.6374 6.41243C16.5458 5.34369 17 4.80932 17 4.14529C17 3.48126 16.5458 2.94689 15.6374 1.87815L15.4036 1.60311C14.4951 0.534369 14.0409 0 13.4765 0C12.9121 0 12.4579 0.534368 11.5494 1.6031Z" fill="black"/>
</svg>