<svg xmlns="http://www.w3.org/2000/svg" width="19" height="18" viewBox="0 0 19 18" fill="none">
  <path d="M0.5 8.9375C0.5 13.8733 4.50168 17.875 9.4375 17.875C14.3733 17.875 18.375 13.8733 18.375 8.9375C18.375 4.00168 14.3733 0 9.4375 0C4.50168 0 0.5 4.00168 0.5 8.9375ZM9.6373 5.01188C9.70142 5.07546 9.75237 5.15106 9.78726 5.23434C9.82216 5.31763 9.8403 5.40697 9.84066 5.49727C9.84102 5.58756 9.82359 5.67705 9.78936 5.7606C9.75513 5.84416 9.70477 5.92016 9.64117 5.98426L7.39305 8.25H13.1328C13.3151 8.25 13.49 8.32243 13.6189 8.45136C13.7479 8.5803 13.8203 8.75516 13.8203 8.9375C13.8203 9.11984 13.7479 9.29471 13.6189 9.42364C13.49 9.55257 13.3151 9.625 13.1328 9.625H7.39305L9.64117 11.8907C9.70477 11.9549 9.7551 12.031 9.7893 12.1146C9.8235 12.1982 9.8409 12.2877 9.8405 12.378C9.8401 12.4684 9.82191 12.5577 9.78697 12.641C9.75204 12.7244 9.70103 12.8 9.63688 12.8636C9.57272 12.9271 9.49666 12.9775 9.41305 13.0117C9.32944 13.0459 9.23991 13.0633 9.14958 13.0629C9.05925 13.0625 8.96987 13.0443 8.88657 13.0094C8.80326 12.9744 8.72766 12.9234 8.66406 12.8593L5.25277 9.42176C5.12499 9.29298 5.05328 9.11892 5.05328 8.9375C5.05328 8.75608 5.12499 8.58202 5.25277 8.45324L8.66406 5.01574C8.72767 4.9515 8.80331 4.90044 8.88668 4.86547C8.97004 4.8305 9.05948 4.81232 9.14988 4.81196C9.24028 4.8116 9.32986 4.82907 9.4135 4.86337C9.49714 4.89768 9.57319 4.94814 9.6373 5.01188Z" fill="white"/>
</svg>