<svg viewBox="0 0 17 16" fill="none" xmlns="http://www.w3.org/2000/svg">
<g id="Frame" clip-path="url(#clip0_5363_8149)">
<path id="Vector" d="M0.457398 0.0251878C0.537954 0.00228234 0.622409 -0.00510377 0.705932 0.00345207C0.789455 0.0120079 0.870406 0.0363378 0.944157 0.07505C1.01791 0.113762 1.08301 0.166097 1.13574 0.229061C1.18846 0.292025 1.22779 0.364382 1.25145 0.441994L1.72004 1.96973H14.2059C15.7736 1.96973 16.9706 3.3785 16.519 4.84963L15.109 9.44434C14.8091 10.424 13.8557 11.0771 12.7959 11.0771H4.99508C3.93521 11.0771 2.98269 10.424 2.68193 9.44434L0.0262927 0.790699C-0.0218102 0.634241 -0.0034171 0.465789 0.0774271 0.322389C0.158271 0.178988 0.294947 0.0715593 0.457398 0.0251878ZM3.40783 14.1539C3.40783 13.6643 3.60979 13.1947 3.9693 12.8485C4.3288 12.5023 4.81639 12.3078 5.3248 12.3078C5.83321 12.3078 6.3208 12.5023 6.6803 12.8485C7.0398 13.1947 7.24177 13.6643 7.24177 14.1539C7.24177 14.6435 7.0398 15.1131 6.6803 15.4593C6.3208 15.8055 5.83321 16 5.3248 16C4.81639 16 4.3288 15.8055 3.9693 15.4593C3.60979 15.1131 3.40783 14.6435 3.40783 14.1539ZM10.2237 14.1539C10.2237 13.9115 10.2733 13.6714 10.3696 13.4474C10.466 13.2235 10.6072 13.02 10.7852 12.8485C10.9632 12.6771 11.1745 12.5411 11.4071 12.4483C11.6397 12.3556 11.8889 12.3078 12.1407 12.3078C12.3924 12.3078 12.6417 12.3556 12.8743 12.4483C13.1069 12.5411 13.3182 12.6771 13.4962 12.8485C13.6742 13.02 13.8154 13.2235 13.9117 13.4474C14.0081 13.6714 14.0577 13.9115 14.0577 14.1539C14.0577 14.6435 13.8557 15.1131 13.4962 15.4593C13.1367 15.8055 12.6491 16 12.1407 16C11.6323 16 11.1447 15.8055 10.7852 15.4593C10.4257 15.1131 10.2237 14.6435 10.2237 14.1539Z" fill="currentColor"/>
</g>
<defs>
<clipPath id="clip0_5363_8149">
<rect width="16.6155" height="16" fill="white"/>
</clipPath>
</defs>
</svg>
