<svg viewBox="0 0 16 16" fill="none" xmlns="http://www.w3.org/2000/svg">
<g id="Frame" clip-path="url(#clip0_5363_8164)">
<path id="Vector" d="M14.2222 0H1.77778C0.8 0 0 0.8 0 1.77778V14.2222C0 15.2 0.8 16 1.77778 16H14.2222C15.2 16 16 15.2 16 14.2222V1.77778C16 0.8 15.2 0 14.2222 0ZM6.85333 11.8133C6.7711 11.8957 6.67342 11.9611 6.56589 12.0057C6.45836 12.0503 6.34308 12.0733 6.22667 12.0733C6.11025 12.0733 5.99498 12.0503 5.88745 12.0057C5.77991 11.9611 5.68223 11.8957 5.6 11.8133L2.40889 8.62222C2.32659 8.53993 2.26131 8.44223 2.21678 8.33471C2.17224 8.22718 2.14931 8.11194 2.14931 7.99556C2.14931 7.87917 2.17224 7.76393 2.21678 7.65641C2.26131 7.54888 2.32659 7.45118 2.40889 7.36889C2.49118 7.28659 2.58888 7.22131 2.69641 7.17678C2.80393 7.13224 2.91917 7.10931 3.03556 7.10931C3.15194 7.10931 3.26718 7.13224 3.37471 7.17678C3.48223 7.22131 3.57993 7.28659 3.66222 7.36889L6.22222 9.92889L12.3378 3.81333C12.504 3.64713 12.7294 3.55376 12.9644 3.55376C13.1995 3.55376 13.4249 3.64713 13.5911 3.81333C13.7573 3.97954 13.8507 4.20495 13.8507 4.44C13.8507 4.67505 13.7573 4.90046 13.5911 5.06667L6.85333 11.8133Z" fill="#6F6F6F"/>
</g>
<defs>
<clipPath id="clip0_5363_8164">
<rect width="16" height="16" fill="white"/>
</clipPath>
</defs>
</svg>
