<svg xmlns="http://www.w3.org/2000/svg" width="20" height="16" viewBox="0 0 20 16" fill="none">
  <path d="M15.8277 8.96946C16.1024 8.96946 16.3329 8.87637 16.519 8.69019C16.7052 8.50401 16.798 8.27386 16.7973 7.99976C16.7967 7.72566 16.7036 7.49552 16.5181 7.30934C16.3325 7.12316 16.1024 7.03007 15.8277 7.03007H12.9186C12.6438 7.03007 12.4137 7.12316 12.2281 7.30934C12.0426 7.49552 11.9495 7.72566 11.9489 7.99976C11.9482 8.27386 12.0413 8.50433 12.2281 8.69116C12.415 8.87799 12.6451 8.97075 12.9186 8.96946H15.8277ZM15.8277 6.06037C16.1024 6.06037 16.3329 5.96728 16.519 5.7811C16.7052 5.59491 16.798 5.36477 16.7973 5.09067C16.7967 4.81657 16.7036 4.58643 16.5181 4.40025C16.3325 4.21407 16.1024 4.12098 15.8277 4.12098H12.9186C12.6438 4.12098 12.4137 4.21407 12.2281 4.40025C12.0426 4.58643 11.9495 4.81657 11.9489 5.09067C11.9482 5.36477 12.0413 5.59524 12.2281 5.78207C12.415 5.96889 12.6451 6.06166 12.9186 6.06037H15.8277ZM7.10038 8.96946C6.51856 8.96946 5.99331 9.02215 5.52462 9.12752C5.05593 9.23289 4.64381 9.39839 4.28826 9.62401C3.94886 9.83411 3.69028 10.0727 3.5125 10.3396C3.33472 10.6066 3.24583 10.8933 3.24583 11.1998C3.24583 11.3937 3.31856 11.5553 3.46402 11.6846C3.60947 11.8139 3.78725 11.8786 3.99735 11.8786H10.2034C10.4135 11.8786 10.5913 11.8097 10.7367 11.672C10.8822 11.5343 10.9549 11.3607 10.9549 11.1513C10.9549 10.8765 10.866 10.6099 10.6883 10.3513C10.5105 10.0927 10.2519 9.85027 9.9125 9.62401C9.55694 9.39774 9.14482 9.23192 8.67614 9.12655C8.20745 9.02118 7.6822 8.96881 7.10038 8.96946ZM7.10038 7.99976C7.63371 7.99976 8.09012 7.81003 8.46959 7.43055C8.84907 7.05108 9.03913 6.59435 9.03977 6.06037C9.04042 5.52639 8.85068 5.06999 8.47056 4.69116C8.09044 4.31233 7.63371 4.12227 7.10038 4.12098C6.56705 4.11968 6.11064 4.30974 5.73117 4.69116C5.35169 5.07257 5.16163 5.52898 5.16098 6.06037C5.16034 6.59176 5.3504 7.04849 5.73117 7.43055C6.11193 7.81261 6.56834 8.00235 7.10038 7.99976ZM2.25189 15.7573C1.71856 15.7573 1.26216 15.5676 0.882682 15.1881C0.503207 14.8087 0.313146 14.3519 0.3125 13.8179V2.18158C0.3125 1.64825 0.502561 1.19184 0.882682 0.812369C1.2628 0.432894 1.71921 0.242834 2.25189 0.242188H17.767C18.3004 0.242188 18.7571 0.432248 19.1372 0.812369C19.5173 1.19249 19.7071 1.64889 19.7064 2.18158V13.8179C19.7064 14.3513 19.5167 14.808 19.1372 15.1881C18.7578 15.5682 18.301 15.758 17.767 15.7573H2.25189Z" fill="currentcolor/>
</svg>