<svg viewBox="0 0 22 16" fill="none" xmlns="http://www.w3.org/2000/svg">
<g id="Frame">
<path id="Vector" d="M16.9556 8.96946C17.2303 8.96946 17.4608 8.87637 17.647 8.69019C17.8332 8.50401 17.9259 8.27386 17.9253 7.99976C17.9246 7.72566 17.8315 7.49552 17.646 7.30934C17.4605 7.12316 17.2303 7.03007 16.9556 7.03007H14.0465C13.7717 7.03007 13.5416 7.12316 13.3561 7.30934C13.1705 7.49552 13.0774 7.72566 13.0768 7.99976C13.0761 8.27386 13.1692 8.50433 13.3561 8.69116C13.5429 8.87799 13.773 8.97075 14.0465 8.96946H16.9556ZM16.9556 6.06037C17.2303 6.06037 17.4608 5.96728 17.647 5.7811C17.8332 5.59491 17.9259 5.36477 17.9253 5.09067C17.9246 4.81657 17.8315 4.58643 17.646 4.40025C17.4605 4.21407 17.2303 4.12098 16.9556 4.12098H14.0465C13.7717 4.12098 13.5416 4.21407 13.3561 4.40025C13.1705 4.58643 13.0774 4.81657 13.0768 5.09067C13.0761 5.36477 13.1692 5.59524 13.3561 5.78207C13.5429 5.96889 13.773 6.06166 14.0465 6.06037H16.9556ZM8.22831 8.96946C7.64649 8.96946 7.12124 9.02215 6.65255 9.12752C6.18386 9.23289 5.77174 9.39839 5.41619 9.62401C5.07679 9.83411 4.81821 10.0727 4.64043 10.3396C4.46265 10.6066 4.37376 10.8933 4.37376 11.1998C4.37376 11.3937 4.44649 11.5553 4.59194 11.6846C4.7374 11.8139 4.91518 11.8786 5.12528 11.8786H11.3313C11.5414 11.8786 11.7192 11.8097 11.8647 11.672C12.0101 11.5343 12.0829 11.3607 12.0829 11.1513C12.0829 10.8765 11.994 10.6099 11.8162 10.3513C11.6384 10.0927 11.3798 9.85027 11.0404 9.62401C10.6849 9.39774 10.2728 9.23192 9.80407 9.12655C9.33538 9.02118 8.81013 8.96881 8.22831 8.96946ZM8.22831 7.99976C8.76164 7.99976 9.21805 7.81003 9.59752 7.43055C9.977 7.05108 10.1671 6.59435 10.1677 6.06037C10.1683 5.52639 9.97861 5.06999 9.59849 4.69116C9.21837 4.31233 8.76164 4.12227 8.22831 4.12098C7.69498 4.11968 7.23857 4.30974 6.8591 4.69116C6.47962 5.07257 6.28956 5.52898 6.28891 6.06037C6.28827 6.59176 6.47833 7.04849 6.8591 7.43055C7.23986 7.81261 7.69627 8.00235 8.22831 7.99976ZM3.37982 15.7573C2.84649 15.7573 2.39009 15.5676 2.01061 15.1881C1.63114 14.8087 1.44108 14.3519 1.44043 13.8179V2.18158C1.44043 1.64825 1.63049 1.19184 2.01061 0.812369C2.39073 0.432894 2.84714 0.242834 3.37982 0.242188H18.895C19.4283 0.242188 19.885 0.432248 20.2652 0.812369C20.6453 1.19249 20.835 1.64889 20.8344 2.18158V13.8179C20.8344 14.3513 20.6446 14.808 20.2652 15.1881C19.8857 15.5682 19.429 15.758 18.895 15.7573H3.37982Z" fill="currentColor"/>
</g>
</svg>
