<svg viewBox="0 0 34 24" fill="currentColor" xmlns="http://www.w3.org/2000/svg">
<g id="Frame" clip-path="url(#clip0_5363_8159)">
<path id="Vector" d="M1.38721 4C1.38721 2.93913 1.80863 1.92172 2.55878 1.17157C3.30893 0.421427 4.32634 0 5.38721 0H29.3872C30.4481 0 31.4655 0.421427 32.2156 1.17157C32.9658 1.92172 33.3872 2.93913 33.3872 4V6H1.38721V4ZM1.38721 10V20C1.38721 21.0609 1.80863 22.0783 2.55878 22.8284C3.30893 23.5786 4.32634 24 5.38721 24H29.3872C30.4481 24 31.4655 23.5786 32.2156 22.8284C32.9658 22.0783 33.3872 21.0609 33.3872 20V10H1.38721ZM7.38721 14H9.38721C9.91764 14 10.4263 14.2107 10.8014 14.5858C11.1765 14.9609 11.3872 15.4696 11.3872 16V18C11.3872 18.5304 11.1765 19.0391 10.8014 19.4142C10.4263 19.7893 9.91764 20 9.38721 20H7.38721C6.85677 20 6.34807 19.7893 5.97299 19.4142C5.59792 19.0391 5.38721 18.5304 5.38721 18V16C5.38721 15.4696 5.59792 14.9609 5.97299 14.5858C6.34807 14.2107 6.85677 14 7.38721 14Z"/>
</g>
<defs>
<clipPath id="clip0_5363_8159">
<rect width="33" height="24" fill="white" transform="translate(0.659668)"/>
</clipPath>
</defs>
</svg>
