<svg xmlns="http://www.w3.org/2000/svg" width="30" height="28" viewBox="0 0 30 28" fill="none">
  <path d="M27.5893 0H1.6186C1.19031 0.0030528 0.780457 0.167512 0.477598 0.457846C0.174738 0.748181 0.00318449 1.14108 0 1.55167V26.4483C0.00318449 26.8589 0.174738 27.2518 0.477598 27.5422C0.780457 27.8325 1.19031 27.9969 1.6186 28H15.6019V17.1733H11.8049V12.9383H15.6019V9.82333C15.6019 6.20667 17.902 4.235 21.2853 4.235C22.4171 4.235 23.5489 4.235 24.6807 4.39833V8.16667H22.3562C20.5185 8.16667 20.1656 9.00667 20.1656 10.2317V12.9267H24.5468L23.9748 17.1617H20.1656V28H27.5893C28.0176 27.9969 28.4274 27.8325 28.7303 27.5422C29.0332 27.2518 29.2047 26.8589 29.2079 26.4483V1.55167C29.2047 1.14108 29.0332 0.748181 28.7303 0.457846C28.4274 0.167512 28.0176 0.0030528 27.5893 0Z" fill="black"/>
</svg>