<svg version="1.2" xmlns="http://www.w3.org/2000/svg" viewBox="0 0 1920 615" width="1920" height="615">
	<title>teste-svg</title>
	<style>
		.s0 { fill: #44aae4 } 
		.s1 { fill: #0f3b62 } 
	</style>
	<path id="Layer copy" class="s0" d="m1717 114.5c123.6 5.7 186.7-6 219-13.1v493.6h-1946v-573.8c125.2 47.4 293.2 99.3 469.6 65.9 54.7-10.3 103.8-19.9 148.4-28.6h0.1c248.5-48.5 358.8-69.9 545.4-52.5 101.4 9.5 177.1 30.8 253.4 52.2h0.1c89.2 25.1 179 50.3 310 56.3z"/>
	<path class="s1" d="m1717 134.5c123.6 5.7 186.7-6 219-13.1v493.6h-1946v-573.8c125.2 47.4 293.2 99.3 469.6 65.9 54.7-10.3 103.8-19.9 148.4-28.6h0.1c248.5-48.5 358.8-69.9 545.4-52.5 101.4 9.5 177.1 30.8 253.4 52.2h0.1c89.2 25.1 179 50.3 310 56.3z"/>
</svg>