<svg width="31" height="31" viewBox="0 0 31 31" fill="none" xmlns="http://www.w3.org/2000/svg">
<path d="M8.78305 6.94444H26.75L24.3056 15.5H10.0993M25.5278 20.3889H10.8611L8.41667 4.5H4.75M12.0833 25.2778C12.0833 25.9528 11.5361 26.5 10.8611 26.5C10.1861 26.5 9.63889 25.9528 9.63889 25.2778C9.63889 24.6027 10.1861 24.0556 10.8611 24.0556C11.5361 24.0556 12.0833 24.6027 12.0833 25.2778ZM25.5278 25.2778C25.5278 25.9528 24.9806 26.5 24.3056 26.5C23.6305 26.5 23.0833 25.9528 23.0833 25.2778C23.0833 24.6027 23.6305 24.0556 24.3056 24.0556C24.9806 24.0556 25.5278 24.6027 25.5278 25.2778Z" stroke="white" stroke-width="3" stroke-linecap="round" stroke-linejoin="round"/>
</svg>
