<svg width="24" height="24" viewBox="0 0 24 24" fill="none" xmlns="http://www.w3.org/2000/svg">
<path d="M9.88235 0C8.38466 0 6.94831 0.594956 5.88928 1.65399C4.83025 2.71301 4.23529 4.14937 4.23529 5.64706C4.23529 7.14475 4.83025 8.5811 5.88928 9.64013C6.94831 10.6992 8.38466 11.2941 9.88235 11.2941C11.38 11.2941 12.8164 10.6992 13.8754 9.64013C14.9345 8.5811 15.5294 7.14475 15.5294 5.64706C15.5294 4.14937 14.9345 2.71301 13.8754 1.65399C12.8164 0.594956 11.38 0 9.88235 0ZM2.83624 12.7059C2.46438 12.7042 2.09585 12.776 1.75182 12.9172C1.40778 13.0583 1.09502 13.266 0.83148 13.5284C0.567944 13.7907 0.358827 14.1026 0.216137 14.446C0.073448 14.7893 -3.76498e-06 15.1575 1.44743e-10 15.5294C1.44743e-10 17.9167 1.176 19.7167 3.01412 20.8899C4.824 22.0433 7.26353 22.5882 9.88235 22.5882C10.4631 22.5882 11.0325 22.5614 11.5906 22.5078C10.4826 21.1303 9.87969 19.4149 9.88235 17.6471C9.88235 15.7694 10.5487 14.0471 11.6569 12.7059H2.83624ZM16.7647 14.8235C16.7647 14.5895 16.8577 14.3651 17.0231 14.1996C17.1886 14.0341 17.413 13.9412 17.6471 13.9412C17.8811 13.9412 18.1055 14.0341 18.271 14.1996C18.4365 14.3651 18.5294 14.5895 18.5294 14.8235C18.5294 15.0575 18.4365 15.282 18.271 15.4474C18.1055 15.6129 17.8811 15.7059 17.6471 15.7059C17.413 15.7059 17.1886 15.6129 17.0231 15.4474C16.8577 15.282 16.7647 15.0575 16.7647 14.8235ZM18.3529 20.4706C18.3529 20.6578 18.2786 20.8373 18.1462 20.9697C18.0138 21.1021 17.8343 21.1765 17.6471 21.1765C17.4598 21.1765 17.2803 21.1021 17.1479 20.9697C17.0155 20.8373 16.9412 20.6578 16.9412 20.4706V17.6471C16.9412 17.4598 17.0155 17.2803 17.1479 17.1479C17.2803 17.0155 17.4598 16.9412 17.6471 16.9412C17.8343 16.9412 18.0138 17.0155 18.1462 17.1479C18.2786 17.2803 18.3529 17.4598 18.3529 17.6471V20.4706ZM11.2941 17.6471C11.2941 15.9622 11.9634 14.3463 13.1549 13.1549C14.3463 11.9634 15.9622 11.2941 17.6471 11.2941C19.332 11.2941 20.9479 11.9634 22.1393 13.1549C23.3307 14.3463 24 15.9622 24 17.6471C24 19.332 23.3307 20.9479 22.1393 22.1393C20.9479 23.3307 19.332 24 17.6471 24C15.9622 24 14.3463 23.3307 13.1549 22.1393C11.9634 20.9479 11.2941 19.332 11.2941 17.6471ZM12.7059 17.6471C12.7059 18.2959 12.8337 18.9385 13.082 19.538C13.3303 20.1375 13.6943 20.6822 14.1531 21.141C14.612 21.5998 15.1567 21.9638 15.7562 22.2121C16.3556 22.4604 16.9982 22.5882 17.6471 22.5882C18.2959 22.5882 18.9385 22.4604 19.538 22.2121C20.1375 21.9638 20.6822 21.5998 21.141 21.141C21.5998 20.6822 21.9638 20.1375 22.2121 19.538C22.4604 18.9385 22.5882 18.2959 22.5882 17.6471C22.5882 16.3366 22.0677 15.0798 21.141 14.1531C20.2143 13.2265 18.9575 12.7059 17.6471 12.7059C16.3366 12.7059 15.0798 13.2265 14.1531 14.1531C13.2265 15.0798 12.7059 16.3366 12.7059 17.6471Z" fill="#247BA0"/>
</svg>
