<svg width="24" height="24" viewBox="0 0 24 24" fill="none" xmlns="http://www.w3.org/2000/svg">
<path d="M11.9984 12.4688C17.3116 12.4688 22.7635 15.7793 23.1166 22.4301C23.1302 22.6865 23.0371 22.9375 22.8576 23.1281C22.6782 23.3187 22.4272 23.4333 22.1597 23.4466C19.3562 23.5835 6.37259 23.6675 1.83851 23.4466C1.57077 23.4336 1.3194 23.3192 1.13968 23.1285C0.95997 22.9379 0.866633 22.6867 0.880203 22.4301C1.23333 15.7806 6.68529 12.4688 11.9984 12.4688ZM11.9984 0.84375C10.6579 0.84375 9.37233 1.35407 8.42446 2.26245C7.47658 3.17083 6.94407 4.40286 6.94407 5.6875C6.94407 6.97214 7.47658 8.20417 8.42446 9.11255C9.37233 10.0209 10.6579 10.5312 11.9984 10.5312C13.3389 10.5312 14.6245 10.0209 15.5724 9.11255C16.5203 8.20417 17.0528 6.97214 17.0528 5.6875C17.0528 4.40286 16.5203 3.17083 15.5724 2.26245C14.6245 1.35407 13.3389 0.84375 11.9984 0.84375Z" fill="#247BA0"/>
</svg>
